Madurai-Thin.ufo
<glyph name="aytham-tamil" format="2">
	<advance width="600"/>
	<unicode hex="0B83"/>
	<outline>
		<contour>
			<point x="300" y="390" type="curve" smooth="yes"/>
			<point x="337" y="390"/>
			<point x="370" y="423"/>
			<point x="370" y="460" type="curve" smooth="yes"/>
			<point x="370" y="497"/>
			<point x="337" y="530"/>
			<point x="300" y="530" type="curve" smooth="yes"/>
			<point x="263" y="530"/>
			<point x="230" y="497"/>
			<point x="230" y="460" type="curve" smooth="yes"/>
			<point x="230" y="423"/>
			<point x="263" y="390"/>
		</contour>
		<contour>
			<point x="110" y="-10" type="curve" smooth="yes"/>
			<point x="147" y="-10"/>
			<point x="180" y="23"/>
			<point x="180" y="60" type="curve" smooth="yes"/>
			<point x="180" y="97"/>
			<point x="147" y="130"/>
			<point x="110" y="130" type="curve" smooth="yes"/>
			<point x="73" y="130"/>
			<point x="40" y="97"/>
			<point x="40" y="60" type="curve" smooth="yes"/>
			<point x="40" y="23"/>
			<point x="73" y="-10"/>
		</contour>
		<contour>
			<point x="110" y="10" type="curve" smooth="yes"/>
			<point x="82" y="10"/>
			<point x="60" y="32"/>
			<point x="60" y="60" type="curve" smooth="yes"/>
			<point x="60" y="88"/>
			<point x="82" y="110"/>
			<point x="110" y="110" type="curve" smooth="yes"/>
			<point x="138" y="110"/>
			<point x="160" y="88"/>
			<point x="160" y="60" type="curve" smooth="yes"/>
			<point x="160" y="32"/>
			<point x="138" y="10"/>
		</contour>
		<contour>
			<point x="490" y="-10" type="curve" smooth="yes"/>
			<point x="527" y="-10"/>
			<point x="560" y="23"/>
			<point x="560" y="60" type="curve" smooth="yes"/>
			<point x="560" y="97"/>
			<point x="527" y="130"/>
			<point x="490" y="130" type="curve" smooth="yes"/>
			<point x="453" y="130"/>
			<point x="420" y="97"/>
			<point x="420" y="60" type="curve" smooth="yes"/>
			<point x="420" y="23"/>
			<point x="453" y="-10"/>
		</contour>
		<contour>
			<point x="490" y="10" type="curve" smooth="yes"/>
			<point x="462" y="10"/>
			<point x="440" y="32"/>
			<point x="440" y="60" type="curve" smooth="yes"/>
			<point x="440" y="88"/>
			<point x="462" y="110"/>
			<point x="490" y="110" type="curve" smooth="yes"/>
			<point x="518" y="110"/>
			<point x="540" y="88"/>
			<point x="540" y="60" type="curve" smooth="yes"/>
			<point x="540" y="32"/>
			<point x="518" y="10"/>
		</contour>
		<contour>
			<point x="300" y="410" type="curve" smooth="yes"/>
			<point x="272" y="410"/>
			<point x="250" y="432"/>
			<point x="250" y="460" type="curve" smooth="yes"/>
			<point x="250" y="488"/>
			<point x="272" y="510"/>
			<point x="300" y="510" type="curve" smooth="yes"/>
			<point x="328" y="510"/>
			<point x="350" y="488"/>
			<point x="350" y="460" type="curve" smooth="yes"/>
			<point x="350" y="432"/>
			<point x="328" y="410"/>
		</contour>
	</outline>
</glyph>
<glyph name="aa-tamil" format="2">
	<advance width="570"/>
	<unicode hex="0B86"/>
	<outline>
		<contour>
			<point x="305" y="-220" type="curve" smooth="yes"/>
			<point x="428" y="-220" type="line" smooth="yes"/>
			<point x="486" y="-220"/>
			<point x="530" y="-176"/>
			<point x="530" y="-118" type="curve" smooth="yes"/>
			<point x="530" y="4" type="line" smooth="yes"/>
			<point x="530" y="35"/>
			<point x="505" y="60"/>
			<point x="474" y="60" type="curve" smooth="yes"/>
			<point x="450" y="60" type="line"/>
			<point x="450" y="450" type="line" smooth="yes"/>
			<point x="450" y="456"/>
			<point x="446" y="460"/>
			<point x="440" y="460" type="curve" smooth="yes"/>
			<point x="434" y="460"/>
			<point x="430" y="456"/>
			<point x="430" y="450" type="curve" smooth="yes"/>
			<point x="430" y="260" type="line"/>
			<point x="370" y="260" type="line"/>
			<point x="370" y="478" type="line" smooth="yes"/>
			<point x="370" y="554"/>
			<point x="314" y="610"/>
			<point x="238" y="610" type="curve" smooth="yes"/>
			<point x="202" y="610" type="line" smooth="yes"/>
			<point x="126" y="610"/>
			<point x="70" y="554"/>
			<point x="70" y="478" type="curve" smooth="yes"/>
			<point x="70" y="376" type="line" smooth="yes"/>
			<point x="70" y="324"/>
			<point x="106" y="284"/>
			<point x="155" y="284" type="curve" smooth="yes"/>
			<point x="205" y="284"/>
			<point x="240" y="324"/>
			<point x="240" y="376" type="curve" smooth="yes"/>
			<point x="240" y="412" type="line" smooth="yes"/>
			<point x="240" y="464"/>
			<point x="204" y="504"/>
			<point x="155" y="504" type="curve" smooth="yes"/>
			<point x="128" y="504"/>
			<point x="105" y="492"/>
			<point x="90" y="472" type="curve"/>
			<point x="90" y="478" type="line" smooth="yes"/>
			<point x="90" y="545"/>
			<point x="135" y="590"/>
			<point x="202" y="590" type="curve" smooth="yes"/>
			<point x="238" y="590" type="line" smooth="yes"/>
			<point x="305" y="590"/>
			<point x="350" y="545"/>
			<point x="350" y="478" type="curve" smooth="yes"/>
			<point x="350" y="260" type="line"/>
			<point x="50" y="260" type="line" smooth="yes"/>
			<point x="44" y="260"/>
			<point x="40" y="256"/>
			<point x="40" y="250" type="curve" smooth="yes"/>
			<point x="40" y="122" type="line" smooth="yes"/>
			<point x="40" y="46"/>
			<point x="96" y="-10"/>
			<point x="172" y="-10" type="curve" smooth="yes"/>
			<point x="238" y="-10" type="line" smooth="yes"/>
			<point x="314" y="-10"/>
			<point x="370" y="46"/>
			<point x="370" y="122" type="curve" smooth="yes"/>
			<point x="370" y="240" type="line"/>
			<point x="430" y="240" type="line"/>
			<point x="430" y="0" type="line" smooth="yes"/>
			<point x="430" y="-6"/>
			<point x="434" y="-10"/>
			<point x="440" y="-10" type="curve" smooth="yes"/>
			<point x="446" y="-10"/>
			<point x="450" y="-6"/>
			<point x="450" y="0" type="curve" smooth="yes"/>
			<point x="450" y="40" type="line"/>
			<point x="474" y="40" type="line" smooth="yes"/>
			<point x="496" y="40"/>
			<point x="510" y="26"/>
			<point x="510" y="4" type="curve" smooth="yes"/>
			<point x="510" y="-118" type="line" smooth="yes"/>
			<point x="510" y="-167"/>
			<point x="477" y="-200"/>
			<point x="428" y="-200" type="curve" smooth="yes"/>
			<point x="349" y="-200" type="line"/>
			<point x="359" y="-189"/>
			<point x="365" y="-175"/>
			<point x="365" y="-160" type="curve" smooth="yes"/>
			<point x="365" y="-128"/>
			<point x="337" y="-100"/>
			<point x="305" y="-100" type="curve" smooth="yes"/>
			<point x="273" y="-100"/>
			<point x="245" y="-128"/>
			<point x="245" y="-160" type="curve" smooth="yes"/>
			<point x="245" y="-192"/>
			<point x="273" y="-220"/>
		</contour>
		<contour>
			<point x="305" y="-200" type="curve" smooth="yes"/>
			<point x="282" y="-200"/>
			<point x="265" y="-183"/>
			<point x="265" y="-160" type="curve" smooth="yes"/>
			<point x="265" y="-137"/>
			<point x="282" y="-120"/>
			<point x="305" y="-120" type="curve" smooth="yes"/>
			<point x="328" y="-120"/>
			<point x="345" y="-137"/>
			<point x="345" y="-160" type="curve" smooth="yes"/>
			<point x="345" y="-183"/>
			<point x="328" y="-200"/>
		</contour>
		<contour>
			<point x="172" y="10" type="line" smooth="yes"/>
			<point x="105" y="10"/>
			<point x="60" y="55"/>
			<point x="60" y="122" type="curve" smooth="yes"/>
			<point x="60" y="240" type="line"/>
			<point x="350" y="240" type="line"/>
			<point x="350" y="122" type="line" smooth="yes"/>
			<point x="350" y="55"/>
			<point x="305" y="10"/>
			<point x="238" y="10" type="curve" smooth="yes"/>
		</contour>
		<contour>
			<point x="155" y="304" type="curve" smooth="yes"/>
			<point x="116" y="304"/>
			<point x="90" y="333"/>
			<point x="90" y="376" type="curve" smooth="yes"/>
			<point x="90" y="412" type="line" smooth="yes"/>
			<point x="90" y="455"/>
			<point x="116" y="484"/>
			<point x="155" y="484" type="curve" smooth="yes"/>
			<point x="194" y="484"/>
			<point x="220" y="455"/>
			<point x="220" y="412" type="curve" smooth="yes"/>
			<point x="220" y="376" type="line" smooth="yes"/>
			<point x="220" y="333"/>
			<point x="194" y="304"/>
		</contour>
	</outline>
</glyph>
<glyph name="i-tamil" format="2">
	<advance width="600"/>
	<unicode hex="0B87"/>
	<outline>
		<contour>
			<point x="172" y="-10" type="curve" smooth="yes"/>
			<point x="428" y="-10" type="line" smooth="yes"/>
			<point x="504" y="-10"/>
			<point x="560" y="46"/>
			<point x="560" y="122" type="curve" smooth="yes"/>
			<point x="560" y="250" type="line" smooth="yes"/>
			<point x="560" y="256"/>
			<point x="556" y="260"/>
			<point x="550" y="260" type="curve" smooth="yes"/>
			<point x="470" y="260" type="line"/>
			<point x="470" y="478" type="line" smooth="yes"/>
			<point x="470" y="554"/>
			<point x="414" y="610"/>
			<point x="338" y="610" type="curve" smooth="yes"/>
			<point x="322" y="610" type="line" smooth="yes"/>
			<point x="246" y="610"/>
			<point x="190" y="554"/>
			<point x="190" y="478" type="curve" smooth="yes"/>
			<point x="190" y="376" type="line" smooth="yes"/>
			<point x="190" y="324"/>
			<point x="226" y="284"/>
			<point x="275" y="284" type="curve" smooth="yes"/>
			<point x="325" y="284"/>
			<point x="360" y="324"/>
			<point x="360" y="376" type="curve" smooth="yes"/>
			<point x="360" y="412" type="line" smooth="yes"/>
			<point x="360" y="464"/>
			<point x="324" y="504"/>
			<point x="275" y="504" type="curve" smooth="yes"/>
			<point x="248" y="504"/>
			<point x="225" y="492"/>
			<point x="210" y="472" type="curve"/>
			<point x="210" y="478" type="line" smooth="yes"/>
			<point x="210" y="545"/>
			<point x="255" y="590"/>
			<point x="322" y="590" type="curve" smooth="yes"/>
			<point x="338" y="590" type="line" smooth="yes"/>
			<point x="405" y="590"/>
			<point x="450" y="545"/>
			<point x="450" y="478" type="curve" smooth="yes"/>
			<point x="450" y="260" type="line"/>
			<point x="150" y="260" type="line"/>
			<point x="150" y="484" type="line" smooth="yes"/>
			<point x="150" y="587"/>
			<point x="223" y="660"/>
			<point x="326" y="660" type="curve" smooth="yes"/>
			<point x="334" y="660" type="line" smooth="yes"/>
			<point x="437" y="660"/>
			<point x="510" y="587"/>
			<point x="510" y="484" type="curve" smooth="yes"/>
			<point x="510" y="330" type="line" smooth="yes"/>
			<point x="510" y="324"/>
			<point x="514" y="320"/>
			<point x="520" y="320" type="curve" smooth="yes"/>
			<point x="526" y="320"/>
			<point x="530" y="324"/>
			<point x="530" y="330" type="curve" smooth="yes"/>
			<point x="530" y="484" type="line" smooth="yes"/>
			<point x="530" y="596"/>
			<point x="446" y="680"/>
			<point x="334" y="680" type="curve" smooth="yes"/>
			<point x="326" y="680" type="line" smooth="yes"/>
			<point x="214" y="680"/>
			<point x="130" y="596"/>
			<point x="130" y="484" type="curve" smooth="yes"/>
			<point x="130" y="260" type="line"/>
			<point x="50" y="260" type="line" smooth="yes"/>
			<point x="44" y="260"/>
			<point x="40" y="256"/>
			<point x="40" y="250" type="curve" smooth="yes"/>
			<point x="40" y="122" type="line" smooth="yes"/>
			<point x="40" y="46"/>
			<point x="96" y="-10"/>
		</contour>
		<contour>
			<point x="172" y="10" type="line" smooth="yes"/>
			<point x="105" y="10"/>
			<point x="60" y="55"/>
			<point x="60" y="122" type="curve" smooth="yes"/>
			<point x="60" y="240" type="line"/>
			<point x="130" y="240" type="line"/>
			<point x="130" y="122" type="line" smooth="yes"/>
			<point x="130" y="73"/>
			<point x="153" y="33"/>
			<point x="189" y="10" type="curve"/>
		</contour>
		<contour>
			<point x="262" y="10" type="line" smooth="yes"/>
			<point x="195" y="10"/>
			<point x="150" y="55"/>
			<point x="150" y="122" type="curve" smooth="yes"/>
			<point x="150" y="240" type="line"/>
			<point x="450" y="240" type="line"/>
			<point x="450" y="122" type="line" smooth="yes"/>
			<point x="450" y="55"/>
			<point x="405" y="10"/>
			<point x="338" y="10" type="curve" smooth="yes"/>
		</contour>
		<contour>
			<point x="411" y="10" type="line"/>
			<point x="447" y="33"/>
			<point x="470" y="73"/>
			<point x="470" y="122" type="curve" smooth="yes"/>
			<point x="470" y="240" type="line"/>
			<point x="540" y="240" type="line"/>
			<point x="540" y="122" type="line" smooth="yes"/>
			<point x="540" y="55"/>
			<point x="495" y="10"/>
			<point x="428" y="10" type="curve" smooth="yes"/>
		</contour>
		<contour>
			<point x="275" y="304" type="curve" smooth="yes"/>
			<point x="236" y="304"/>
			<point x="210" y="333"/>
			<point x="210" y="376" type="curve" smooth="yes"/>
			<point x="210" y="412" type="line" smooth="yes"/>
			<point x="210" y="455"/>
			<point x="236" y="484"/>
			<point x="275" y="484" type="curve" smooth="yes"/>
			<point x="314" y="484"/>
			<point x="340" y="455"/>
			<point x="340" y="412" type="curve" smooth="yes"/>
			<point x="340" y="376" type="line" smooth="yes"/>
			<point x="340" y="333"/>
			<point x="314" y="304"/>
		</contour>
	</outline>
</glyph>
<glyph name="ii-tamil" format="2">
	<advance width="510"/>
	<unicode hex="0B88"/>
	<outline>
		<contour>
			<point x="50" y="-10" type="curve" smooth="yes"/>
			<point x="56" y="-10"/>
			<point x="60" y="-6"/>
			<point x="60" y="0" type="curve" smooth="yes"/>
			<point x="60" y="590" type="line"/>
			<point x="310" y="590" type="line"/>
			<point x="310" y="0" type="line" smooth="yes"/>
			<point x="310" y="-6"/>
			<point x="314" y="-10"/>
			<point x="320" y="-10" type="curve" smooth="yes"/>
			<point x="326" y="-10"/>
			<point x="330" y="-6"/>
			<point x="330" y="0" type="curve" smooth="yes"/>
			<point x="330" y="590" type="line"/>
			<point x="440" y="590" type="line" smooth="yes"/>
			<point x="446" y="590"/>
			<point x="450" y="594"/>
			<point x="450" y="600" type="curve" smooth="yes"/>
			<point x="450" y="606"/>
			<point x="446" y="610"/>
			<point x="440" y="610" type="curve" smooth="yes"/>
			<point x="50" y="610" type="line" smooth="yes"/>
			<point x="44" y="610"/>
			<point x="40" y="606"/>
			<point x="40" y="600" type="curve" smooth="yes"/>
			<point x="40" y="0" type="line" smooth="yes"/>
			<point x="40" y="-6"/>
			<point x="44" y="-10"/>
		</contour>
		<contour>
			<point x="185" y="240" type="curve" smooth="yes"/>
			<point x="217" y="240"/>
			<point x="245" y="268"/>
			<point x="245" y="300" type="curve" smooth="yes"/>
			<point x="245" y="332"/>
			<point x="217" y="360"/>
			<point x="185" y="360" type="curve" smooth="yes"/>
			<point x="153" y="360"/>
			<point x="125" y="332"/>
			<point x="125" y="300" type="curve" smooth="yes"/>
			<point x="125" y="268"/>
			<point x="153" y="240"/>
		</contour>
		<contour>
			<point x="185" y="260" type="curve" smooth="yes"/>
			<point x="162" y="260"/>
			<point x="145" y="277"/>
			<point x="145" y="300" type="curve" smooth="yes"/>
			<point x="145" y="323"/>
			<point x="162" y="340"/>
			<point x="185" y="340" type="curve" smooth="yes"/>
			<point x="208" y="340"/>
			<point x="225" y="323"/>
			<point x="225" y="300" type="curve" smooth="yes"/>
			<point x="225" y="277"/>
			<point x="208" y="260"/>
		</contour>
		<contour>
			<point x="430" y="240" type="curve" smooth="yes"/>
			<point x="462" y="240"/>
			<point x="490" y="268"/>
			<point x="490" y="300" type="curve" smooth="yes"/>
			<point x="490" y="332"/>
			<point x="462" y="360"/>
			<point x="430" y="360" type="curve" smooth="yes"/>
			<point x="398" y="360"/>
			<point x="370" y="332"/>
			<point x="370" y="300" type="curve" smooth="yes"/>
			<point x="370" y="268"/>
			<point x="398" y="240"/>
		</contour>
		<contour>
			<point x="430" y="260" type="curve" smooth="yes"/>
			<point x="407" y="260"/>
			<point x="390" y="277"/>
			<point x="390" y="300" type="curve" smooth="yes"/>
			<point x="390" y="323"/>
			<point x="407" y="340"/>
			<point x="430" y="340" type="curve" smooth="yes"/>
			<point x="453" y="340"/>
			<point x="470" y="323"/>
			<point x="470" y="300" type="curve" smooth="yes"/>
			<point x="470" y="277"/>
			<point x="453" y="260"/>
		</contour>
	</outline>
</glyph>
<glyph name="uu-tamil" format="2">
	<advance width="820"/>
	<unicode hex="0B8A"/>
	<outline>
		<contour>
			<point x="110" y="-10" type="curve" smooth="yes"/>
			<point x="770" y="-10" type="line" smooth="yes"/>
			<point x="776" y="-10"/>
			<point x="780" y="-6"/>
			<point x="780" y="0" type="curve" smooth="yes"/>
			<point x="780" y="6"/>
			<point x="776" y="10"/>
			<point x="770" y="10" type="curve" smooth="yes"/>
			<point x="110" y="10" type="line" smooth="yes"/>
			<point x="85" y="10"/>
			<point x="69" y="25"/>
			<point x="69" y="50" type="curve" smooth="yes"/>
			<point x="69" y="75"/>
			<point x="85" y="90"/>
			<point x="110" y="90" type="curve" smooth="yes"/>
			<point x="198" y="90" type="line" smooth="yes"/>
			<point x="274" y="90"/>
			<point x="330" y="146"/>
			<point x="330" y="222" type="curve" smooth="yes"/>
			<point x="330" y="478" type="line" smooth="yes"/>
			<point x="330" y="554"/>
			<point x="274" y="610"/>
			<point x="198" y="610" type="curve" smooth="yes"/>
			<point x="172" y="610" type="line" smooth="yes"/>
			<point x="96" y="610"/>
			<point x="40" y="554"/>
			<point x="40" y="478" type="curve" smooth="yes"/>
			<point x="40" y="278" type="line" smooth="yes"/>
			<point x="40" y="226"/>
			<point x="76" y="186"/>
			<point x="125" y="186" type="curve" smooth="yes"/>
			<point x="175" y="186"/>
			<point x="210" y="226"/>
			<point x="210" y="278" type="curve" smooth="yes"/>
			<point x="210" y="314" type="line" smooth="yes"/>
			<point x="210" y="366"/>
			<point x="174" y="406"/>
			<point x="125" y="406" type="curve" smooth="yes"/>
			<point x="98" y="406"/>
			<point x="75" y="394"/>
			<point x="60" y="374" type="curve"/>
			<point x="60" y="478" type="line" smooth="yes"/>
			<point x="60" y="545"/>
			<point x="105" y="590"/>
			<point x="172" y="590" type="curve" smooth="yes"/>
			<point x="198" y="590" type="line" smooth="yes"/>
			<point x="265" y="590"/>
			<point x="310" y="545"/>
			<point x="310" y="478" type="curve" smooth="yes"/>
			<point x="310" y="222" type="line" smooth="yes"/>
			<point x="310" y="155"/>
			<point x="265" y="110"/>
			<point x="198" y="110" type="curve" smooth="yes"/>
			<point x="110" y="110" type="line" smooth="yes"/>
			<point x="76" y="110"/>
			<point x="49" y="84"/>
			<point x="49" y="50" type="curve" smooth="yes"/>
			<point x="49" y="16"/>
			<point x="76" y="-10"/>
		</contour>
		<contour>
			<point x="125" y="206" type="curve" smooth="yes"/>
			<point x="86" y="206"/>
			<point x="60" y="235"/>
			<point x="60" y="278" type="curve" smooth="yes"/>
			<point x="60" y="314" type="line" smooth="yes"/>
			<point x="60" y="357"/>
			<point x="86" y="386"/>
			<point x="125" y="386" type="curve" smooth="yes"/>
			<point x="164" y="386"/>
			<point x="190" y="357"/>
			<point x="190" y="314" type="curve" smooth="yes"/>
			<point x="190" y="278" type="line" smooth="yes"/>
			<point x="190" y="235"/>
			<point x="164" y="206"/>
		</contour>
		<contour>
			<point x="471" y="60" type="curve" smooth="yes"/>
			<point x="465" y="60" type="line" smooth="yes"/>
			<point x="440" y="62"/>
			<point x="424" y="82"/>
			<point x="424" y="112" type="curve" smooth="yes"/>
			<point x="424" y="139" type="line" smooth="yes"/>
			<point x="424" y="170"/>
			<point x="442" y="190"/>
			<point x="470" y="190" type="curve" smooth="yes"/>
			<point x="499" y="190"/>
			<point x="517" y="170"/>
			<point x="517" y="139" type="curve" smooth="yes"/>
			<point x="517" y="112" type="line" smooth="yes"/>
			<point x="517" y="80"/>
			<point x="499" y="60"/>
		</contour>
		<contour>
			<point x="470" y="40" type="line"/>
			<point x="471" y="40" type="line"/>
			<point x="472" y="40" type="line" smooth="yes"/>
			<point x="510" y="41"/>
			<point x="537" y="72"/>
			<point x="537" y="112" type="curve" smooth="yes"/>
			<point x="537" y="139" type="line" smooth="yes"/>
			<point x="537" y="179"/>
			<point x="508" y="210"/>
			<point x="470" y="210" type="curve" smooth="yes"/>
			<point x="432" y="210"/>
			<point x="404" y="179"/>
			<point x="404" y="139" type="curve" smooth="yes"/>
			<point x="404" y="112" type="line" smooth="yes"/>
			<point x="404" y="104"/>
			<point x="405" y="96"/>
			<point x="408" y="88" type="curve"/>
			<point x="396" y="102"/>
			<point x="390" y="120"/>
			<point x="390" y="142" type="curve" smooth="yes"/>
			<point x="390" y="409" type="line" smooth="yes"/>
			<point x="390" y="458"/>
			<point x="422" y="490"/>
			<point x="472" y="490" type="curve" smooth="yes"/>
			<point x="490" y="490" type="line" smooth="yes"/>
			<point x="537" y="490"/>
			<point x="570" y="460"/>
			<point x="570" y="405" type="curve" smooth="yes"/>
			<point x="570" y="200" type="line" smooth="yes"/>
			<point x="570" y="194"/>
			<point x="574" y="190"/>
			<point x="580" y="190" type="curve" smooth="yes"/>
			<point x="586" y="190"/>
			<point x="590" y="194"/>
			<point x="590" y="200" type="curve" smooth="yes"/>
			<point x="590" y="490" type="line"/>
			<point x="705" y="490" type="line"/>
			<point x="705" y="50" type="line" smooth="yes"/>
			<point x="705" y="44"/>
			<point x="710" y="40"/>
			<point x="715" y="40" type="curve" smooth="yes"/>
			<point x="720" y="40"/>
			<point x="725" y="44"/>
			<point x="725" y="50" type="curve" smooth="yes"/>
			<point x="725" y="490" type="line"/>
			<point x="765" y="490" type="line" smooth="yes"/>
			<point x="770" y="490"/>
			<point x="775" y="494"/>
			<point x="775" y="500" type="curve" smooth="yes"/>
			<point x="775" y="506"/>
			<point x="770" y="510"/>
			<point x="765" y="510" type="curve" smooth="yes"/>
			<point x="580" y="510" type="line" smooth="yes"/>
			<point x="574" y="510"/>
			<point x="570" y="506"/>
			<point x="570" y="500" type="curve" smooth="yes"/>
			<point x="570" y="471" type="line"/>
			<point x="552" y="496"/>
			<point x="523" y="510"/>
			<point x="490" y="510" type="curve" smooth="yes"/>
			<point x="472" y="510" type="line" smooth="yes"/>
			<point x="413" y="510"/>
			<point x="370" y="467"/>
			<point x="370" y="409" type="curve" smooth="yes"/>
			<point x="370" y="142" type="line" smooth="yes"/>
			<point x="370" y="86"/>
			<point x="410" y="44"/>
			<point x="464" y="40" type="curve" smooth="yes"/>
		</contour>
	</outline>
</glyph>
<glyph name="e-tamil" format="2">
	<advance width="515"/>
	<unicode hex="0B8E"/>
	<outline>
		<contour>
			<point x="370" y="-10" type="curve" smooth="yes"/>
			<point x="376" y="-10"/>
			<point x="380" y="-6"/>
			<point x="380" y="0" type="curve" smooth="yes"/>
			<point x="380" y="590" type="line"/>
			<point x="490" y="590" type="line" smooth="yes"/>
			<point x="496" y="590"/>
			<point x="500" y="594"/>
			<point x="500" y="600" type="curve" smooth="yes"/>
			<point x="500" y="606"/>
			<point x="496" y="610"/>
			<point x="490" y="610" type="curve" smooth="yes"/>
			<point x="254" y="610" type="line" smooth="yes"/>
			<point x="131" y="610"/>
			<point x="40" y="519"/>
			<point x="40" y="396" type="curve" smooth="yes"/>
			<point x="40" y="148" type="line" smooth="yes"/>
			<point x="40" y="87"/>
			<point x="82" y="40"/>
			<point x="140" y="40" type="curve" smooth="yes"/>
			<point x="199" y="40"/>
			<point x="240" y="87"/>
			<point x="240" y="148" type="curve" smooth="yes"/>
			<point x="240" y="192" type="line" smooth="yes"/>
			<point x="240" y="253"/>
			<point x="198" y="300"/>
			<point x="140" y="300" type="curve" smooth="yes"/>
			<point x="106" y="300"/>
			<point x="78" y="284"/>
			<point x="60" y="258" type="curve"/>
			<point x="60" y="396" type="line" smooth="yes"/>
			<point x="60" y="510"/>
			<point x="140" y="590"/>
			<point x="254" y="590" type="curve" smooth="yes"/>
			<point x="360" y="590" type="line"/>
			<point x="360" y="0" type="line" smooth="yes"/>
			<point x="360" y="-6"/>
			<point x="364" y="-10"/>
		</contour>
		<contour>
			<point x="140" y="60" type="curve" smooth="yes"/>
			<point x="92" y="60"/>
			<point x="60" y="96"/>
			<point x="60" y="148" type="curve" smooth="yes"/>
			<point x="60" y="192" type="line" smooth="yes"/>
			<point x="60" y="244"/>
			<point x="92" y="280"/>
			<point x="140" y="280" type="curve" smooth="yes"/>
			<point x="188" y="280"/>
			<point x="220" y="244"/>
			<point x="220" y="192" type="curve" smooth="yes"/>
			<point x="220" y="148" type="line" smooth="yes"/>
			<point x="220" y="96"/>
			<point x="188" y="60"/>
		</contour>
	</outline>
</glyph>
<glyph name="ai-tamil" format="2">
	<advance width="634"/>
	<unicode hex="0B90"/>
	<outline>
		<contour>
			<point x="171" y="-11" type="curve" smooth="yes"/>
			<point x="195" y="-11" type="line" smooth="yes"/>
			<point x="252" y="-11"/>
			<point x="298" y="20"/>
			<point x="317" y="68" type="curve"/>
			<point x="337" y="21"/>
			<point x="382" y="-10"/>
			<point x="439" y="-10" type="curve" smooth="yes"/>
			<point x="463" y="-10" type="line" smooth="yes"/>
			<point x="536" y="-10"/>
			<point x="594" y="42"/>
			<point x="594" y="127" type="curve" smooth="yes"/>
			<point x="594" y="154" type="line" smooth="yes"/>
			<point x="594" y="203"/>
			<point x="558" y="241"/>
			<point x="508" y="241" type="curve" smooth="yes"/>
			<point x="482" y="241" type="line" smooth="yes"/>
			<point x="476" y="241"/>
			<point x="472" y="236"/>
			<point x="472" y="231" type="curve" smooth="yes"/>
			<point x="472" y="226"/>
			<point x="476" y="221"/>
			<point x="482" y="221" type="curve" smooth="yes"/>
			<point x="508" y="221" type="line" smooth="yes"/>
			<point x="548" y="221"/>
			<point x="574" y="194"/>
			<point x="574" y="154" type="curve" smooth="yes"/>
			<point x="574" y="127" type="line" smooth="yes"/>
			<point x="574" y="52"/>
			<point x="527" y="10"/>
			<point x="463" y="10" type="curve" smooth="yes"/>
			<point x="439" y="10" type="line" smooth="yes"/>
			<point x="372" y="10"/>
			<point x="327" y="55"/>
			<point x="327" y="122" type="curve" smooth="yes"/>
			<point x="327" y="172" type="line" smooth="yes"/>
			<point x="327" y="178"/>
			<point x="322" y="182"/>
			<point x="317" y="182" type="curve" smooth="yes"/>
			<point x="312" y="182"/>
			<point x="307" y="178"/>
			<point x="307" y="172" type="curve" smooth="yes"/>
			<point x="307" y="121" type="line" smooth="yes"/>
			<point x="307" y="54"/>
			<point x="262" y="9"/>
			<point x="195" y="9" type="curve" smooth="yes"/>
			<point x="171" y="9" type="line" smooth="yes"/>
			<point x="107" y="9"/>
			<point x="60" y="52"/>
			<point x="60" y="126" type="curve" smooth="yes"/>
			<point x="60" y="179"/>
			<point x="90" y="194"/>
			<point x="143" y="208" type="curve" smooth="yes"/>
			<point x="480" y="303" type="line" smooth="yes"/>
			<point x="547" y="322"/>
			<point x="594" y="378"/>
			<point x="594" y="450" type="curve" smooth="yes"/>
			<point x="594" y="473" type="line" smooth="yes"/>
			<point x="594" y="558"/>
			<point x="536" y="610"/>
			<point x="463" y="610" type="curve" smooth="yes"/>
			<point x="439" y="610" type="line" smooth="yes"/>
			<point x="382" y="610"/>
			<point x="336" y="578"/>
			<point x="317" y="530" type="curve"/>
			<point x="297" y="581"/>
			<point x="251" y="610"/>
			<point x="196" y="610" type="curve" smooth="yes"/>
			<point x="172" y="610" type="line" smooth="yes"/>
			<point x="96" y="610"/>
			<point x="40" y="554"/>
			<point x="40" y="478" type="curve" smooth="yes"/>
			<point x="40" y="417" type="line" smooth="yes"/>
			<point x="40" y="344"/>
			<point x="92" y="289"/>
			<point x="164" y="285" type="curve" smooth="yes"/>
			<point x="170" y="285" type="line"/>
			<point x="172" y="285" type="line" smooth="yes"/>
			<point x="221" y="286"/>
			<point x="255" y="326"/>
			<point x="255" y="377" type="curve" smooth="yes"/>
			<point x="255" y="413" type="line" smooth="yes"/>
			<point x="255" y="465"/>
			<point x="219" y="505"/>
			<point x="170" y="505" type="curve" smooth="yes"/>
			<point x="121" y="505"/>
			<point x="85" y="465"/>
			<point x="85" y="413" type="curve" smooth="yes"/>
			<point x="85" y="377" type="line" smooth="yes"/>
			<point x="85" y="361"/>
			<point x="88" y="346"/>
			<point x="95" y="332" type="curve"/>
			<point x="73" y="352"/>
			<point x="60" y="382"/>
			<point x="60" y="417" type="curve" smooth="yes"/>
			<point x="60" y="478" type="line" smooth="yes"/>
			<point x="60" y="545"/>
			<point x="105" y="590"/>
			<point x="172" y="590" type="curve" smooth="yes"/>
			<point x="196" y="590" type="line" smooth="yes"/>
			<point x="260" y="590"/>
			<point x="307" y="548"/>
			<point x="307" y="473" type="curve" smooth="yes"/>
			<point x="307" y="371" type="line" smooth="yes"/>
			<point x="307" y="366"/>
			<point x="312" y="361"/>
			<point x="317" y="361" type="curve" smooth="yes"/>
			<point x="322" y="361"/>
			<point x="327" y="366"/>
			<point x="327" y="371" type="curve" smooth="yes"/>
			<point x="327" y="478" type="line" smooth="yes"/>
			<point x="327" y="545"/>
			<point x="372" y="590"/>
			<point x="439" y="590" type="curve" smooth="yes"/>
			<point x="463" y="590" type="line" smooth="yes"/>
			<point x="527" y="590"/>
			<point x="574" y="548"/>
			<point x="574" y="473" type="curve" smooth="yes"/>
			<point x="574" y="450" type="line" smooth="yes"/>
			<point x="574" y="387"/>
			<point x="534" y="340"/>
			<point x="474" y="323" type="curve" smooth="yes"/>
			<point x="137" y="228" type="line" smooth="yes"/>
			<point x="82" y="212"/>
			<point x="40" y="192"/>
			<point x="40" y="126" type="curve" smooth="yes"/>
			<point x="40" y="41"/>
			<point x="98" y="-11"/>
		</contour>
		<contour>
			<point x="164" y="305" type="line" smooth="yes"/>
			<point x="129" y="308"/>
			<point x="105" y="336"/>
			<point x="105" y="377" type="curve" smooth="yes"/>
			<point x="105" y="413" type="line" smooth="yes"/>
			<point x="105" y="456"/>
			<point x="132" y="485"/>
			<point x="170" y="485" type="curve" smooth="yes"/>
			<point x="208" y="485"/>
			<point x="235" y="456"/>
			<point x="235" y="413" type="curve" smooth="yes"/>
			<point x="235" y="377" type="line" smooth="yes"/>
			<point x="235" y="334"/>
			<point x="210" y="306"/>
			<point x="171" y="305" type="curve" smooth="yes"/>
		</contour>
	</outline>
</glyph>
<glyph name="oo-tamil" format="2">
	<advance width="493"/>
	<unicode hex="0B93"/>
	<outline>
		<contour>
			<point x="244" y="-223" type="curve" smooth="yes"/>
			<point x="310" y="-223"/>
			<point x="359" y="-172"/>
			<point x="359" y="-106" type="curve" smooth="yes"/>
			<point x="359" y="-53"/>
			<point x="394" y="-15"/>
			<point x="443" y="-10" type="curve" smooth="yes"/>
			<point x="450" y="-10"/>
			<point x="453" y="-7"/>
			<point x="453" y="0" type="curve" smooth="yes"/>
			<point x="453" y="6"/>
			<point x="450" y="10"/>
			<point x="443" y="10" type="curve" smooth="yes"/>
			<point x="412" y="10" type="line" smooth="yes"/>
			<point x="363" y="10"/>
			<point x="330" y="44"/>
			<point x="330" y="92" type="curve" smooth="yes"/>
			<point x="330" y="127" type="line"/>
			<point x="440" y="127" type="line" smooth="yes"/>
			<point x="446" y="127"/>
			<point x="450" y="131"/>
			<point x="450" y="137" type="curve" smooth="yes"/>
			<point x="450" y="416" type="line" smooth="yes"/>
			<point x="450" y="527"/>
			<point x="367" y="610"/>
			<point x="256" y="610" type="curve" smooth="yes"/>
			<point x="234" y="610" type="line" smooth="yes"/>
			<point x="123" y="610"/>
			<point x="40" y="527"/>
			<point x="40" y="416" type="curve" smooth="yes"/>
			<point x="40" y="256" type="line" smooth="yes"/>
			<point x="40" y="204"/>
			<point x="76" y="164"/>
			<point x="125" y="164" type="curve" smooth="yes"/>
			<point x="175" y="164"/>
			<point x="210" y="204"/>
			<point x="210" y="256" type="curve" smooth="yes"/>
			<point x="210" y="292" type="line" smooth="yes"/>
			<point x="210" y="344"/>
			<point x="174" y="384"/>
			<point x="125" y="384" type="curve" smooth="yes"/>
			<point x="98" y="384"/>
			<point x="75" y="372"/>
			<point x="60" y="352" type="curve"/>
			<point x="60" y="416" type="line" smooth="yes"/>
			<point x="60" y="518"/>
			<point x="132" y="590"/>
			<point x="234" y="590" type="curve" smooth="yes"/>
			<point x="256" y="590" type="line" smooth="yes"/>
			<point x="358" y="590"/>
			<point x="430" y="518"/>
			<point x="430" y="416" type="curve" smooth="yes"/>
			<point x="430" y="147" type="line"/>
			<point x="330" y="147" type="line"/>
			<point x="330" y="227" type="line" smooth="yes"/>
			<point x="330" y="232"/>
			<point x="326" y="237"/>
			<point x="320" y="237" type="curve" smooth="yes"/>
			<point x="314" y="237"/>
			<point x="310" y="232"/>
			<point x="310" y="227" type="curve" smooth="yes"/>
			<point x="310" y="92" type="line" smooth="yes"/>
			<point x="310" y="42"/>
			<point x="343" y="2"/>
			<point x="391" y="-8" type="curve"/>
			<point x="359" y="-28"/>
			<point x="339" y="-64"/>
			<point x="339" y="-106" type="curve" smooth="yes"/>
			<point x="339" y="-163"/>
			<point x="300" y="-203"/>
			<point x="244" y="-203" type="curve" smooth="yes"/>
			<point x="208" y="-203"/>
			<point x="180" y="-187"/>
			<point x="163" y="-160" type="curve"/>
			<point x="171" y="-164"/>
			<point x="180" y="-166"/>
			<point x="189" y="-166" type="curve" smooth="yes"/>
			<point x="221" y="-166"/>
			<point x="249" y="-138"/>
			<point x="249" y="-106" type="curve" smooth="yes"/>
			<point x="249" y="-74"/>
			<point x="221" y="-46"/>
			<point x="189" y="-46" type="curve" smooth="yes"/>
			<point x="157" y="-46"/>
			<point x="129" y="-74"/>
			<point x="129" y="-106" type="curve" smooth="yes"/>
			<point x="129" y="-172"/>
			<point x="178" y="-223"/>
		</contour>
		<contour>
			<point x="189" y="-146" type="curve" smooth="yes"/>
			<point x="166" y="-146"/>
			<point x="149" y="-129"/>
			<point x="149" y="-106" type="curve" smooth="yes"/>
			<point x="149" y="-83"/>
			<point x="166" y="-66"/>
			<point x="189" y="-66" type="curve" smooth="yes"/>
			<point x="212" y="-66"/>
			<point x="229" y="-83"/>
			<point x="229" y="-106" type="curve" smooth="yes"/>
			<point x="229" y="-129"/>
			<point x="212" y="-146"/>
		</contour>
		<contour>
			<point x="125" y="184" type="curve" smooth="yes"/>
			<point x="86" y="184"/>
			<point x="60" y="213"/>
			<point x="60" y="256" type="curve" smooth="yes"/>
			<point x="60" y="292" type="line" smooth="yes"/>
			<point x="60" y="335"/>
			<point x="86" y="364"/>
			<point x="125" y="364" type="curve" smooth="yes"/>
			<point x="164" y="364"/>
			<point x="190" y="335"/>
			<point x="190" y="292" type="curve" smooth="yes"/>
			<point x="190" y="256" type="line" smooth="yes"/>
			<point x="190" y="213"/>
			<point x="164" y="184"/>
		</contour>
	</outline>
</glyph>
<glyph name="au-tamil" format="2">
	<advance width="1096"/>
	<unicode hex="0B94"/>
	<outline>
		<contour>
			<point x="244" y="-223" type="curve" smooth="yes"/>
			<point x="310" y="-223"/>
			<point x="359" y="-172"/>
			<point x="359" y="-106" type="curve" smooth="yes"/>
			<point x="359" y="-53"/>
			<point x="394" y="-15"/>
			<point x="443" y="-10" type="curve" smooth="yes"/>
			<point x="450" y="-10"/>
			<point x="453" y="-7"/>
			<point x="453" y="0" type="curve" smooth="yes"/>
			<point x="453" y="6"/>
			<point x="450" y="10"/>
			<point x="443" y="10" type="curve" smooth="yes"/>
			<point x="412" y="10" type="line" smooth="yes"/>
			<point x="363" y="10"/>
			<point x="330" y="44"/>
			<point x="330" y="92" type="curve" smooth="yes"/>
			<point x="330" y="127" type="line"/>
			<point x="440" y="127" type="line" smooth="yes"/>
			<point x="446" y="127"/>
			<point x="450" y="131"/>
			<point x="450" y="137" type="curve" smooth="yes"/>
			<point x="450" y="416" type="line" smooth="yes"/>
			<point x="450" y="527"/>
			<point x="367" y="610"/>
			<point x="256" y="610" type="curve" smooth="yes"/>
			<point x="234" y="610" type="line" smooth="yes"/>
			<point x="123" y="610"/>
			<point x="40" y="527"/>
			<point x="40" y="416" type="curve" smooth="yes"/>
			<point x="40" y="256" type="line" smooth="yes"/>
			<point x="40" y="204"/>
			<point x="76" y="164"/>
			<point x="125" y="164" type="curve" smooth="yes"/>
			<point x="175" y="164"/>
			<point x="210" y="204"/>
			<point x="210" y="256" type="curve" smooth="yes"/>
			<point x="210" y="292" type="line" smooth="yes"/>
			<point x="210" y="344"/>
			<point x="174" y="384"/>
			<point x="125" y="384" type="curve" smooth="yes"/>
			<point x="98" y="384"/>
			<point x="75" y="372"/>
			<point x="60" y="352" type="curve"/>
			<point x="60" y="416" type="line" smooth="yes"/>
			<point x="60" y="518"/>
			<point x="132" y="590"/>
			<point x="234" y="590" type="curve" smooth="yes"/>
			<point x="256" y="590" type="line" smooth="yes"/>
			<point x="358" y="590"/>
			<point x="430" y="518"/>
			<point x="430" y="416" type="curve" smooth="yes"/>
			<point x="430" y="147" type="line"/>
			<point x="330" y="147" type="line"/>
			<point x="330" y="227" type="line" smooth="yes"/>
			<point x="330" y="232"/>
			<point x="326" y="237"/>
			<point x="320" y="237" type="curve" smooth="yes"/>
			<point x="314" y="237"/>
			<point x="310" y="232"/>
			<point x="310" y="227" type="curve" smooth="yes"/>
			<point x="310" y="92" type="line" smooth="yes"/>
			<point x="310" y="42"/>
			<point x="343" y="2"/>
			<point x="391" y="-8" type="curve"/>
			<point x="359" y="-28"/>
			<point x="339" y="-64"/>
			<point x="339" y="-106" type="curve" smooth="yes"/>
			<point x="339" y="-163"/>
			<point x="300" y="-203"/>
			<point x="244" y="-203" type="curve" smooth="yes"/>
			<point x="188" y="-203"/>
			<point x="149" y="-163"/>
			<point x="149" y="-106" type="curve" smooth="yes"/>
			<point x="149" y="-100"/>
			<point x="144" y="-96"/>
			<point x="139" y="-96" type="curve" smooth="yes"/>
			<point x="134" y="-96"/>
			<point x="129" y="-100"/>
			<point x="129" y="-106" type="curve" smooth="yes"/>
			<point x="129" y="-172"/>
			<point x="178" y="-223"/>
		</contour>
		<contour>
			<point x="125" y="184" type="curve" smooth="yes"/>
			<point x="86" y="184"/>
			<point x="60" y="213"/>
			<point x="60" y="256" type="curve" smooth="yes"/>
			<point x="60" y="292" type="line" smooth="yes"/>
			<point x="60" y="335"/>
			<point x="86" y="364"/>
			<point x="125" y="364" type="curve" smooth="yes"/>
			<point x="164" y="364"/>
			<point x="190" y="335"/>
			<point x="190" y="292" type="curve" smooth="yes"/>
			<point x="190" y="256" type="line" smooth="yes"/>
			<point x="190" y="213"/>
			<point x="164" y="184"/>
		</contour>
		<contour>
			<point x="634" y="10" type="line" smooth="yes"/>
			<point x="598" y="13"/>
			<point x="574" y="41"/>
			<point x="574" y="82" type="curve" smooth="yes"/>
			<point x="574" y="118" type="line" smooth="yes"/>
			<point x="574" y="161"/>
			<point x="600" y="190"/>
			<point x="639" y="190" type="curve" smooth="yes"/>
			<point x="678" y="190"/>
			<point x="704" y="161"/>
			<point x="704" y="118" type="curve" smooth="yes"/>
			<point x="704" y="82" type="line" smooth="yes"/>
			<point x="704" y="39"/>
			<point x="679" y="10"/>
			<point x="640" y="10" type="curve" smooth="yes"/>
		</contour>
		<contour>
			<point x="639" y="-10" type="line"/>
			<point x="641" y="-10" type="line" smooth="yes"/>
			<point x="690" y="-9"/>
			<point x="724" y="31"/>
			<point x="724" y="82" type="curve" smooth="yes"/>
			<point x="724" y="118" type="line" smooth="yes"/>
			<point x="724" y="170"/>
			<point x="688" y="210"/>
			<point x="639" y="210" type="curve" smooth="yes"/>
			<point x="590" y="210"/>
			<point x="554" y="170"/>
			<point x="554" y="118" type="curve" smooth="yes"/>
			<point x="554" y="82" type="line" smooth="yes"/>
			<point x="554" y="66"/>
			<point x="558" y="50"/>
			<point x="564" y="38" type="curve"/>
			<point x="542" y="57"/>
			<point x="529" y="86"/>
			<point x="529" y="122" type="curve" smooth="yes"/>
			<point x="529" y="478" type="line" smooth="yes"/>
			<point x="529" y="545"/>
			<point x="574" y="590"/>
			<point x="641" y="590" type="curve" smooth="yes"/>
			<point x="665" y="590" type="line" smooth="yes"/>
			<point x="729" y="590"/>
			<point x="776" y="548"/>
			<point x="776" y="473" type="curve" smooth="yes"/>
			<point x="776" y="200" type="line" smooth="yes"/>
			<point x="776" y="194"/>
			<point x="780" y="190"/>
			<point x="786" y="190" type="curve" smooth="yes"/>
			<point x="792" y="190"/>
			<point x="796" y="194"/>
			<point x="796" y="200" type="curve" smooth="yes"/>
			<point x="796" y="590" type="line"/>
			<point x="956" y="590" type="line"/>
			<point x="956" y="0" type="line" smooth="yes"/>
			<point x="956" y="-6"/>
			<point x="960" y="-10"/>
			<point x="966" y="-10" type="curve" smooth="yes"/>
			<point x="972" y="-10"/>
			<point x="976" y="-6"/>
			<point x="976" y="0" type="curve" smooth="yes"/>
			<point x="976" y="590" type="line"/>
			<point x="1046" y="590" type="line" smooth="yes"/>
			<point x="1052" y="590"/>
			<point x="1056" y="594"/>
			<point x="1056" y="600" type="curve" smooth="yes"/>
			<point x="1056" y="606"/>
			<point x="1052" y="610"/>
			<point x="1046" y="610" type="curve" smooth="yes"/>
			<point x="786" y="610" type="line" smooth="yes"/>
			<point x="780" y="610"/>
			<point x="776" y="606"/>
			<point x="776" y="600" type="curve" smooth="yes"/>
			<point x="776" y="550" type="line"/>
			<point x="753" y="588"/>
			<point x="712" y="610"/>
			<point x="665" y="610" type="curve" smooth="yes"/>
			<point x="641" y="610" type="line" smooth="yes"/>
			<point x="565" y="610"/>
			<point x="509" y="554"/>
			<point x="509" y="478" type="curve" smooth="yes"/>
			<point x="509" y="122" type="line" smooth="yes"/>
			<point x="509" y="48"/>
			<point x="562" y="-6"/>
			<point x="633" y="-10" type="curve" smooth="yes"/>
		</contour>
	</outline>
</glyph>
<glyph name="ka-tamil" format="2">
	<advance width="460"/>
	<unicode hex="0B95"/>
	<anchor x="231" y="600" name="imatra"/>
	<anchor x="250" y="600" name="top"/>
	<outline>
		<contour>
			<point x="150" y="-10" type="curve" smooth="yes"/>
			<point x="178" y="-10"/>
			<point x="203" y="-1"/>
			<point x="222" y="15" type="curve"/>
			<point x="222" y="13"/>
			<point x="224" y="12"/>
			<point x="226" y="10" type="curve"/>
			<point x="248" y="-2"/>
			<point x="274" y="-10"/>
			<point x="300" y="-10" type="curve" smooth="yes"/>
			<point x="392" y="-10"/>
			<point x="420" y="74"/>
			<point x="420" y="175" type="curve" smooth="yes"/>
			<point x="420" y="276"/>
			<point x="392" y="360"/>
			<point x="290" y="360" type="curve" smooth="yes"/>
			<point x="260" y="360" type="line"/>
			<point x="260" y="590" type="line"/>
			<point x="360" y="590" type="line" smooth="yes"/>
			<point x="366" y="590"/>
			<point x="370" y="594"/>
			<point x="370" y="600" type="curve" smooth="yes"/>
			<point x="370" y="606"/>
			<point x="366" y="610"/>
			<point x="360" y="610" type="curve" smooth="yes"/>
			<point x="130" y="610" type="line" smooth="yes"/>
			<point x="124" y="610"/>
			<point x="120" y="606"/>
			<point x="120" y="600" type="curve" smooth="yes"/>
			<point x="120" y="357" type="line"/>
			<point x="76" y="346"/>
			<point x="40" y="304"/>
			<point x="40" y="248" type="curve" smooth="yes"/>
			<point x="40" y="102" type="line" smooth="yes"/>
			<point x="40" y="38"/>
			<point x="86" y="-10"/>
		</contour>
		<contour>
			<point x="150" y="10" type="curve" smooth="yes"/>
			<point x="96" y="10"/>
			<point x="60" y="47"/>
			<point x="60" y="102" type="curve" smooth="yes"/>
			<point x="60" y="248" type="line" smooth="yes"/>
			<point x="60" y="303"/>
			<point x="97" y="340"/>
			<point x="142" y="340" type="curve" smooth="yes"/>
			<point x="240" y="340" type="line"/>
			<point x="240" y="102" type="line" smooth="yes"/>
			<point x="240" y="47"/>
			<point x="204" y="10"/>
		</contour>
		<contour>
			<point x="300" y="10" type="curve" smooth="yes"/>
			<point x="276" y="10"/>
			<point x="256" y="16"/>
			<point x="236" y="28" type="curve"/>
			<point x="234" y="28" type="line"/>
			<point x="251" y="48"/>
			<point x="260" y="73"/>
			<point x="260" y="102" type="curve" smooth="yes"/>
			<point x="260" y="340" type="line"/>
			<point x="290" y="340" type="line" smooth="yes"/>
			<point x="377" y="340"/>
			<point x="400" y="271"/>
			<point x="400" y="175" type="curve" smooth="yes"/>
			<point x="400" y="79"/>
			<point x="377" y="10"/>
		</contour>
		<contour>
			<point x="140" y="360" type="line"/>
			<point x="140" y="590" type="line"/>
			<point x="240" y="590" type="line"/>
			<point x="240" y="360" type="line"/>
		</contour>
	</outline>
</glyph>
<glyph name="ca-tamil" format="2">
	<advance width="410"/>
	<unicode hex="0B9A"/>
	<anchor x="205" y="600" name="imatra"/>
	<anchor x="205" y="600" name="top"/>
	<outline>
		<contour>
			<point x="150" y="-10" type="curve" smooth="yes"/>
			<point x="214" y="-10"/>
			<point x="260" y="38"/>
			<point x="260" y="102" type="curve" smooth="yes"/>
			<point x="260" y="340" type="line"/>
			<point x="360" y="340" type="line" smooth="yes"/>
			<point x="366" y="340"/>
			<point x="370" y="344"/>
			<point x="370" y="350" type="curve" smooth="yes"/>
			<point x="370" y="356"/>
			<point x="366" y="360"/>
			<point x="360" y="360" type="curve" smooth="yes"/>
			<point x="260" y="360" type="line"/>
			<point x="260" y="590" type="line"/>
			<point x="360" y="590" type="line" smooth="yes"/>
			<point x="366" y="590"/>
			<point x="370" y="594"/>
			<point x="370" y="600" type="curve" smooth="yes"/>
			<point x="370" y="606"/>
			<point x="366" y="610"/>
			<point x="360" y="610" type="curve" smooth="yes"/>
			<point x="130" y="610" type="line" smooth="yes"/>
			<point x="124" y="610"/>
			<point x="120" y="606"/>
			<point x="120" y="600" type="curve" smooth="yes"/>
			<point x="120" y="357" type="line"/>
			<point x="76" y="346"/>
			<point x="40" y="304"/>
			<point x="40" y="248" type="curve" smooth="yes"/>
			<point x="40" y="102" type="line" smooth="yes"/>
			<point x="40" y="38"/>
			<point x="86" y="-10"/>
		</contour>
		<contour>
			<point x="150" y="10" type="curve" smooth="yes"/>
			<point x="96" y="10"/>
			<point x="60" y="47"/>
			<point x="60" y="102" type="curve" smooth="yes"/>
			<point x="60" y="248" type="line" smooth="yes"/>
			<point x="60" y="303"/>
			<point x="97" y="340"/>
			<point x="142" y="340" type="curve" smooth="yes"/>
			<point x="240" y="340" type="line"/>
			<point x="240" y="102" type="line" smooth="yes"/>
			<point x="240" y="47"/>
			<point x="204" y="10"/>
		</contour>
		<contour>
			<point x="140" y="360" type="line"/>
			<point x="140" y="590" type="line"/>
			<point x="240" y="590" type="line"/>
			<point x="240" y="360" type="line"/>
		</contour>
	</outline>
</glyph>
<glyph name="ja-tamil" format="2">
	<advance width="600"/>
	<unicode hex="0B9C"/>
	<anchor x="463" y="600" name="imatra"/>
	<anchor x="317" y="600" name="top"/>
	<outline>
		<contour>
			<point x="171" y="-11" type="curve" smooth="yes"/>
			<point x="195" y="-11" type="line" smooth="yes"/>
			<point x="285" y="-11"/>
			<point x="312" y="53"/>
			<point x="338" y="112" type="curve" smooth="yes"/>
			<point x="364" y="172"/>
			<point x="388" y="228"/>
			<point x="474" y="228" type="curve" smooth="yes"/>
			<point x="484" y="228" type="line" smooth="yes"/>
			<point x="544" y="228"/>
			<point x="574" y="182"/>
			<point x="574" y="123" type="curve" smooth="yes"/>
			<point x="574" y="39"/>
			<point x="539" y="10"/>
			<point x="478" y="10" type="curve" smooth="yes"/>
			<point x="408" y="10"/>
			<point x="382" y="38"/>
			<point x="382" y="85" type="curve" smooth="yes"/>
			<point x="382" y="90"/>
			<point x="378" y="95"/>
			<point x="372" y="95" type="curve" smooth="yes"/>
			<point x="366" y="95"/>
			<point x="362" y="90"/>
			<point x="362" y="85" type="curve" smooth="yes"/>
			<point x="362" y="29"/>
			<point x="398" y="-10"/>
			<point x="478" y="-10" type="curve" smooth="yes"/>
			<point x="548" y="-10"/>
			<point x="594" y="28"/>
			<point x="594" y="123" type="curve" smooth="yes"/>
			<point x="594" y="189"/>
			<point x="557" y="248"/>
			<point x="484" y="248" type="curve" smooth="yes"/>
			<point x="474" y="248" type="line" smooth="yes"/>
			<point x="375" y="248"/>
			<point x="346" y="180"/>
			<point x="320" y="120" type="curve" smooth="yes"/>
			<point x="294" y="61"/>
			<point x="272" y="9"/>
			<point x="195" y="9" type="curve" smooth="yes"/>
			<point x="171" y="9" type="line" smooth="yes"/>
			<point x="107" y="9"/>
			<point x="60" y="52"/>
			<point x="60" y="106" type="curve" smooth="yes"/>
			<point x="60" y="180"/>
			<point x="87" y="205"/>
			<point x="166" y="223" type="curve" smooth="yes"/>
			<point x="490" y="300" type="line" smooth="yes"/>
			<point x="560" y="316"/>
			<point x="594" y="380"/>
			<point x="594" y="450" type="curve" smooth="yes"/>
			<point x="594" y="473" type="line" smooth="yes"/>
			<point x="594" y="558"/>
			<point x="536" y="610"/>
			<point x="463" y="610" type="curve" smooth="yes"/>
			<point x="439" y="610" type="line" smooth="yes"/>
			<point x="382" y="610"/>
			<point x="336" y="578"/>
			<point x="317" y="530" type="curve"/>
			<point x="297" y="581"/>
			<point x="251" y="610"/>
			<point x="196" y="610" type="curve" smooth="yes"/>
			<point x="172" y="610" type="line" smooth="yes"/>
			<point x="96" y="610"/>
			<point x="40" y="554"/>
			<point x="40" y="478" type="curve" smooth="yes"/>
			<point x="40" y="417" type="line" smooth="yes"/>
			<point x="40" y="344"/>
			<point x="92" y="289"/>
			<point x="164" y="285" type="curve" smooth="yes"/>
			<point x="170" y="285" type="line"/>
			<point x="172" y="285" type="line" smooth="yes"/>
			<point x="221" y="286"/>
			<point x="255" y="326"/>
			<point x="255" y="377" type="curve" smooth="yes"/>
			<point x="255" y="413" type="line" smooth="yes"/>
			<point x="255" y="465"/>
			<point x="219" y="505"/>
			<point x="170" y="505" type="curve" smooth="yes"/>
			<point x="121" y="505"/>
			<point x="85" y="465"/>
			<point x="85" y="413" type="curve" smooth="yes"/>
			<point x="85" y="377" type="line" smooth="yes"/>
			<point x="85" y="361"/>
			<point x="88" y="346"/>
			<point x="95" y="332" type="curve"/>
			<point x="73" y="352"/>
			<point x="60" y="382"/>
			<point x="60" y="417" type="curve" smooth="yes"/>
			<point x="60" y="478" type="line" smooth="yes"/>
			<point x="60" y="545"/>
			<point x="105" y="590"/>
			<point x="172" y="590" type="curve" smooth="yes"/>
			<point x="196" y="590" type="line" smooth="yes"/>
			<point x="260" y="590"/>
			<point x="307" y="548"/>
			<point x="307" y="473" type="curve" smooth="yes"/>
			<point x="307" y="371" type="line" smooth="yes"/>
			<point x="307" y="366"/>
			<point x="312" y="361"/>
			<point x="317" y="361" type="curve" smooth="yes"/>
			<point x="322" y="361"/>
			<point x="327" y="366"/>
			<point x="327" y="371" type="curve" smooth="yes"/>
			<point x="327" y="478" type="line" smooth="yes"/>
			<point x="327" y="545"/>
			<point x="372" y="590"/>
			<point x="439" y="590" type="curve" smooth="yes"/>
			<point x="463" y="590" type="line" smooth="yes"/>
			<point x="527" y="590"/>
			<point x="574" y="548"/>
			<point x="574" y="473" type="curve" smooth="yes"/>
			<point x="574" y="450" type="line" smooth="yes"/>
			<point x="574" y="386"/>
			<point x="545" y="334"/>
			<point x="486" y="320" type="curve" smooth="yes"/>
			<point x="162" y="243" type="line" smooth="yes"/>
			<point x="76" y="223"/>
			<point x="40" y="190"/>
			<point x="40" y="106" type="curve" smooth="yes"/>
			<point x="40" y="41"/>
			<point x="98" y="-11"/>
		</contour>
		<contour>
			<point x="164" y="305" type="line" smooth="yes"/>
			<point x="129" y="308"/>
			<point x="105" y="336"/>
			<point x="105" y="377" type="curve" smooth="yes"/>
			<point x="105" y="413" type="line" smooth="yes"/>
			<point x="105" y="456"/>
			<point x="132" y="485"/>
			<point x="170" y="485" type="curve" smooth="yes"/>
			<point x="208" y="485"/>
			<point x="235" y="456"/>
			<point x="235" y="413" type="curve" smooth="yes"/>
			<point x="235" y="377" type="line" smooth="yes"/>
			<point x="235" y="334"/>
			<point x="210" y="306"/>
			<point x="171" y="305" type="curve" smooth="yes"/>
		</contour>
	</outline>
</glyph>
<glyph name="nya-tamil" format="2">
	<advance width="700"/>
	<unicode hex="0B9E"/>
	<anchor x="470" y="600" name="imatra"/>
	<anchor x="350" y="600" name="top"/>
	<outline>
		<contour>
			<point x="203" y="-150" type="curve" smooth="yes"/>
			<point x="492" y="-150" type="line" smooth="yes"/>
			<point x="627" y="-150"/>
			<point x="660" y="-50"/>
			<point x="660" y="37" type="curve" smooth="yes"/>
			<point x="660" y="194"/>
			<point x="660" y="257"/>
			<point x="551" y="257" type="curve" smooth="yes"/>
			<point x="517" y="257"/>
			<point x="494" y="245"/>
			<point x="480" y="227" type="curve"/>
			<point x="480" y="590" type="line"/>
			<point x="590" y="590" type="line" smooth="yes"/>
			<point x="596" y="590"/>
			<point x="600" y="594"/>
			<point x="600" y="600" type="curve" smooth="yes"/>
			<point x="600" y="606"/>
			<point x="596" y="610"/>
			<point x="590" y="610" type="curve" smooth="yes"/>
			<point x="354" y="610" type="line" smooth="yes"/>
			<point x="231" y="610"/>
			<point x="140" y="519"/>
			<point x="140" y="396" type="curve" smooth="yes"/>
			<point x="140" y="148" type="line" smooth="yes"/>
			<point x="140" y="87"/>
			<point x="182" y="40"/>
			<point x="240" y="40" type="curve" smooth="yes"/>
			<point x="299" y="40"/>
			<point x="340" y="87"/>
			<point x="340" y="148" type="curve" smooth="yes"/>
			<point x="340" y="192" type="line" smooth="yes"/>
			<point x="340" y="253"/>
			<point x="298" y="300"/>
			<point x="240" y="300" type="curve" smooth="yes"/>
			<point x="206" y="300"/>
			<point x="178" y="284"/>
			<point x="160" y="258" type="curve"/>
			<point x="160" y="396" type="line" smooth="yes"/>
			<point x="160" y="510"/>
			<point x="240" y="590"/>
			<point x="354" y="590" type="curve" smooth="yes"/>
			<point x="460" y="590" type="line"/>
			<point x="460" y="0" type="line" smooth="yes"/>
			<point x="460" y="-6"/>
			<point x="464" y="-10"/>
			<point x="470" y="-10" type="curve" smooth="yes"/>
			<point x="476" y="-10"/>
			<point x="480" y="-6"/>
			<point x="480" y="0" type="curve" smooth="yes"/>
			<point x="480" y="162" type="line" smooth="yes"/>
			<point x="480" y="204"/>
			<point x="497" y="237"/>
			<point x="551" y="237" type="curve" smooth="yes"/>
			<point x="640" y="237"/>
			<point x="640" y="194"/>
			<point x="640" y="37" type="curve" smooth="yes"/>
			<point x="640" y="-45"/>
			<point x="612" y="-130"/>
			<point x="492" y="-130" type="curve" smooth="yes"/>
			<point x="203" y="-130" type="line" smooth="yes"/>
			<point x="119" y="-130"/>
			<point x="60" y="-71"/>
			<point x="60" y="13" type="curve" smooth="yes"/>
			<point x="60" y="247" type="line" smooth="yes"/>
			<point x="60" y="252"/>
			<point x="56" y="257"/>
			<point x="50" y="257" type="curve" smooth="yes"/>
			<point x="44" y="257"/>
			<point x="40" y="252"/>
			<point x="40" y="247" type="curve" smooth="yes"/>
			<point x="40" y="13" type="line" smooth="yes"/>
			<point x="40" y="-80"/>
			<point x="110" y="-150"/>
		</contour>
		<contour>
			<point x="240" y="60" type="curve" smooth="yes"/>
			<point x="192" y="60"/>
			<point x="160" y="96"/>
			<point x="160" y="148" type="curve" smooth="yes"/>
			<point x="160" y="192" type="line" smooth="yes"/>
			<point x="160" y="244"/>
			<point x="192" y="280"/>
			<point x="240" y="280" type="curve" smooth="yes"/>
			<point x="288" y="280"/>
			<point x="320" y="244"/>
			<point x="320" y="192" type="curve" smooth="yes"/>
			<point x="320" y="148" type="line" smooth="yes"/>
			<point x="320" y="96"/>
			<point x="288" y="60"/>
		</contour>
	</outline>
</glyph>
<glyph name="tta-tamil" format="2">
	<advance width="400"/>
	<unicode hex="0B9F"/>
	<anchor x="200" y="0" name="imatra"/>
	<anchor x="200" y="600" name="top"/>
	<outline>
		<contour>
			<point x="50" y="-10" type="curve" smooth="yes"/>
			<point x="350" y="-10" type="line" smooth="yes"/>
			<point x="356" y="-10"/>
			<point x="360" y="-6"/>
			<point x="360" y="0" type="curve" smooth="yes"/>
			<point x="360" y="6"/>
			<point x="356" y="10"/>
			<point x="350" y="10" type="curve" smooth="yes"/>
			<point x="60" y="10" type="line"/>
			<point x="60" y="600" type="line" smooth="yes"/>
			<point x="60" y="606"/>
			<point x="56" y="610"/>
			<point x="50" y="610" type="curve" smooth="yes"/>
			<point x="44" y="610"/>
			<point x="40" y="606"/>
			<point x="40" y="600" type="curve" smooth="yes"/>
			<point x="40" y="0" type="line" smooth="yes"/>
			<point x="40" y="-6"/>
			<point x="44" y="-10"/>
		</contour>
	</outline>
</glyph>
<glyph name="nna-tamil" format="2">
	<advance width="950"/>
	<unicode hex="0BA3"/>
	<anchor x="800" y="600" name="imatra"/>
	<anchor x="448" y="600" name="top"/>
	<outline>
		<contour>
			<point x="170" y="-10" type="line"/>
			<point x="172" y="-10" type="line" smooth="yes"/>
			<point x="221" y="-9"/>
			<point x="255" y="31"/>
			<point x="255" y="82" type="curve" smooth="yes"/>
			<point x="255" y="118" type="line" smooth="yes"/>
			<point x="255" y="170"/>
			<point x="219" y="210"/>
			<point x="170" y="210" type="curve" smooth="yes"/>
			<point x="121" y="210"/>
			<point x="85" y="170"/>
			<point x="85" y="118" type="curve" smooth="yes"/>
			<point x="85" y="82" type="line" smooth="yes"/>
			<point x="85" y="66"/>
			<point x="88" y="50"/>
			<point x="95" y="38" type="curve"/>
			<point x="73" y="57"/>
			<point x="60" y="86"/>
			<point x="60" y="122" type="curve" smooth="yes"/>
			<point x="60" y="416" type="line" smooth="yes"/>
			<point x="60" y="518"/>
			<point x="132" y="590"/>
			<point x="234" y="590" type="curve" smooth="yes"/>
			<point x="330" y="590" type="line"/>
			<point x="306" y="572"/>
			<point x="292" y="544"/>
			<point x="292" y="511" type="curve" smooth="yes"/>
			<point x="292" y="89" type="line" smooth="yes"/>
			<point x="292" y="33"/>
			<point x="334" y="-10"/>
			<point x="389" y="-10" type="curve" smooth="yes"/>
			<point x="444" y="-10"/>
			<point x="487" y="33"/>
			<point x="487" y="89" type="curve" smooth="yes"/>
			<point x="487" y="511" type="line" smooth="yes"/>
			<point x="487" y="544"/>
			<point x="473" y="572"/>
			<point x="450" y="590" type="curve"/>
			<point x="570" y="590" type="line"/>
			<point x="546" y="572"/>
			<point x="532" y="544"/>
			<point x="532" y="511" type="curve" smooth="yes"/>
			<point x="532" y="89" type="line" smooth="yes"/>
			<point x="532" y="33"/>
			<point x="574" y="-10"/>
			<point x="629" y="-10" type="curve" smooth="yes"/>
			<point x="684" y="-10"/>
			<point x="727" y="33"/>
			<point x="727" y="89" type="curve" smooth="yes"/>
			<point x="727" y="511" type="line" smooth="yes"/>
			<point x="727" y="544"/>
			<point x="713" y="572"/>
			<point x="690" y="590" type="curve"/>
			<point x="790" y="590" type="line"/>
			<point x="790" y="0" type="line" smooth="yes"/>
			<point x="790" y="-6"/>
			<point x="794" y="-10"/>
			<point x="800" y="-10" type="curve" smooth="yes"/>
			<point x="806" y="-10"/>
			<point x="810" y="-6"/>
			<point x="810" y="0" type="curve" smooth="yes"/>
			<point x="810" y="590" type="line"/>
			<point x="900" y="590" type="line" smooth="yes"/>
			<point x="906" y="590"/>
			<point x="910" y="594"/>
			<point x="910" y="600" type="curve" smooth="yes"/>
			<point x="910" y="606"/>
			<point x="906" y="610"/>
			<point x="900" y="610" type="curve" smooth="yes"/>
			<point x="234" y="610" type="line" smooth="yes"/>
			<point x="123" y="610"/>
			<point x="40" y="527"/>
			<point x="40" y="416" type="curve" smooth="yes"/>
			<point x="40" y="122" type="line" smooth="yes"/>
			<point x="40" y="48"/>
			<point x="92" y="-6"/>
			<point x="164" y="-10" type="curve" smooth="yes"/>
		</contour>
		<contour>
			<point x="164" y="10" type="line" smooth="yes"/>
			<point x="129" y="13"/>
			<point x="105" y="41"/>
			<point x="105" y="82" type="curve" smooth="yes"/>
			<point x="105" y="118" type="line" smooth="yes"/>
			<point x="105" y="161"/>
			<point x="132" y="190"/>
			<point x="170" y="190" type="curve" smooth="yes"/>
			<point x="208" y="190"/>
			<point x="235" y="161"/>
			<point x="235" y="118" type="curve" smooth="yes"/>
			<point x="235" y="82" type="line" smooth="yes"/>
			<point x="235" y="39"/>
			<point x="210" y="10"/>
			<point x="171" y="10" type="curve" smooth="yes"/>
		</contour>
		<contour>
			<point x="389" y="10" type="curve" smooth="yes"/>
			<point x="343" y="10"/>
			<point x="312" y="42"/>
			<point x="312" y="89" type="curve" smooth="yes"/>
			<point x="312" y="511" type="line" smooth="yes"/>
			<point x="312" y="558"/>
			<point x="344" y="590"/>
			<point x="391" y="590" type="curve" smooth="yes"/>
			<point x="436" y="590"/>
			<point x="467" y="558"/>
			<point x="467" y="511" type="curve" smooth="yes"/>
			<point x="467" y="89" type="line" smooth="yes"/>
			<point x="467" y="42"/>
			<point x="435" y="10"/>
		</contour>
		<contour>
			<point x="629" y="10" type="curve" smooth="yes"/>
			<point x="583" y="10"/>
			<point x="552" y="42"/>
			<point x="552" y="89" type="curve" smooth="yes"/>
			<point x="552" y="511" type="line" smooth="yes"/>
			<point x="552" y="558"/>
			<point x="584" y="590"/>
			<point x="631" y="590" type="curve" smooth="yes"/>
			<point x="676" y="590"/>
			<point x="707" y="558"/>
			<point x="707" y="511" type="curve" smooth="yes"/>
			<point x="707" y="89" type="line" smooth="yes"/>
			<point x="707" y="42"/>
			<point x="675" y="10"/>
		</contour>
	</outline>
</glyph>
<glyph name="ta-tamil" format="2">
	<advance width="460"/>
	<unicode hex="0BA4"/>
	<anchor x="251" y="600" name="imatra"/>
	<anchor x="250" y="600" name="top"/>
	<outline>
		<contour>
			<point x="50" y="-310" type="curve" smooth="yes"/>
			<point x="56" y="-310"/>
			<point x="60" y="-306"/>
			<point x="60" y="-300" type="curve" smooth="yes"/>
			<point x="60" y="-213" type="line" smooth="yes"/>
			<point x="60" y="-129"/>
			<point x="119" y="-70"/>
			<point x="203" y="-70" type="curve" smooth="yes"/>
			<point x="251" y="-70" type="line" smooth="yes"/>
			<point x="368" y="-70"/>
			<point x="420" y="12"/>
			<point x="420" y="145" type="curve" smooth="yes"/>
			<point x="420" y="284"/>
			<point x="375" y="360"/>
			<point x="271" y="360" type="curve" smooth="yes"/>
			<point x="261" y="360" type="line"/>
			<point x="261" y="590" type="line"/>
			<point x="361" y="590" type="line" smooth="yes"/>
			<point x="366" y="590"/>
			<point x="371" y="594"/>
			<point x="371" y="600" type="curve" smooth="yes"/>
			<point x="371" y="606"/>
			<point x="366" y="610"/>
			<point x="361" y="610" type="curve" smooth="yes"/>
			<point x="131" y="610" type="line" smooth="yes"/>
			<point x="125" y="610"/>
			<point x="121" y="606"/>
			<point x="121" y="600" type="curve" smooth="yes"/>
			<point x="121" y="357" type="line"/>
			<point x="76" y="346"/>
			<point x="41" y="304"/>
			<point x="41" y="248" type="curve" smooth="yes"/>
			<point x="41" y="102" type="line" smooth="yes"/>
			<point x="41" y="38"/>
			<point x="88" y="-10"/>
			<point x="151" y="-10" type="curve" smooth="yes"/>
			<point x="214" y="-10"/>
			<point x="261" y="38"/>
			<point x="261" y="102" type="curve" smooth="yes"/>
			<point x="261" y="340" type="line"/>
			<point x="271" y="340" type="line" smooth="yes"/>
			<point x="362" y="340"/>
			<point x="400" y="277"/>
			<point x="400" y="145" type="curve" smooth="yes"/>
			<point x="400" y="19"/>
			<point x="356" y="-50"/>
			<point x="251" y="-50" type="curve" smooth="yes"/>
			<point x="203" y="-50" type="line" smooth="yes"/>
			<point x="110" y="-50"/>
			<point x="40" y="-120"/>
			<point x="40" y="-213" type="curve" smooth="yes"/>
			<point x="40" y="-300" type="line" smooth="yes"/>
			<point x="40" y="-306"/>
			<point x="44" y="-310"/>
		</contour>
		<contour>
			<point x="151" y="10" type="curve" smooth="yes"/>
			<point x="97" y="10"/>
			<point x="61" y="47"/>
			<point x="61" y="102" type="curve" smooth="yes"/>
			<point x="61" y="248" type="line" smooth="yes"/>
			<point x="61" y="303"/>
			<point x="98" y="340"/>
			<point x="143" y="340" type="curve" smooth="yes"/>
			<point x="241" y="340" type="line"/>
			<point x="241" y="102" type="line" smooth="yes"/>
			<point x="241" y="47"/>
			<point x="205" y="10"/>
		</contour>
		<contour>
			<point x="141" y="360" type="line"/>
			<point x="141" y="590" type="line"/>
			<point x="241" y="590" type="line"/>
			<point x="241" y="360" type="line"/>
		</contour>
	</outline>
</glyph>
<glyph name="na-tamil" format="2">
	<advance width="460"/>
	<unicode hex="0BA8"/>
	<anchor x="230" y="-300" name="bottom"/>
	<anchor x="460" y="-300" name="bottomright"/>
	<anchor x="230" y="600" name="imatra"/>
	<anchor x="230" y="600" name="top"/>
	<outline>
		<contour>
			<point x="50" y="-311" type="curve" smooth="yes"/>
			<point x="56" y="-311"/>
			<point x="60" y="-306"/>
			<point x="60" y="-301" type="curve" smooth="yes"/>
			<point x="60" y="-214" type="line" smooth="yes"/>
			<point x="60" y="-121"/>
			<point x="119" y="-62"/>
			<point x="203" y="-62" type="curve" smooth="yes"/>
			<point x="252" y="-62" type="line" smooth="yes"/>
			<point x="386" y="-62"/>
			<point x="420" y="-3"/>
			<point x="420" y="155" type="curve" smooth="yes"/>
			<point x="420" y="292"/>
			<point x="420" y="355"/>
			<point x="311" y="355" type="curve" smooth="yes"/>
			<point x="277" y="355"/>
			<point x="254" y="343"/>
			<point x="240" y="325" type="curve"/>
			<point x="240" y="590" type="line"/>
			<point x="360" y="590" type="line" smooth="yes"/>
			<point x="366" y="590"/>
			<point x="370" y="594"/>
			<point x="370" y="600" type="curve" smooth="yes"/>
			<point x="370" y="606"/>
			<point x="366" y="610"/>
			<point x="360" y="610" type="curve" smooth="yes"/>
			<point x="50" y="610" type="line" smooth="yes"/>
			<point x="44" y="610"/>
			<point x="40" y="606"/>
			<point x="40" y="600" type="curve" smooth="yes"/>
			<point x="40" y="80" type="line" smooth="yes"/>
			<point x="40" y="74"/>
			<point x="44" y="70"/>
			<point x="50" y="70" type="curve" smooth="yes"/>
			<point x="56" y="70"/>
			<point x="60" y="74"/>
			<point x="60" y="80" type="curve" smooth="yes"/>
			<point x="60" y="590" type="line"/>
			<point x="220" y="590" type="line"/>
			<point x="220" y="150" type="line" smooth="yes"/>
			<point x="220" y="144"/>
			<point x="224" y="140"/>
			<point x="230" y="140" type="curve" smooth="yes"/>
			<point x="236" y="140"/>
			<point x="240" y="144"/>
			<point x="240" y="150" type="curve" smooth="yes"/>
			<point x="240" y="260" type="line" smooth="yes"/>
			<point x="240" y="302"/>
			<point x="257" y="335"/>
			<point x="311" y="335" type="curve" smooth="yes"/>
			<point x="400" y="335"/>
			<point x="400" y="292"/>
			<point x="400" y="155" type="curve" smooth="yes"/>
			<point x="400" y="4"/>
			<point x="373" y="-42"/>
			<point x="252" y="-42" type="curve" smooth="yes"/>
			<point x="203" y="-42" type="line" smooth="yes"/>
			<point x="110" y="-42"/>
			<point x="40" y="-112"/>
			<point x="40" y="-214" type="curve" smooth="yes"/>
			<point x="40" y="-301" type="line" smooth="yes"/>
			<point x="40" y="-306"/>
			<point x="44" y="-311"/>
		</contour>
	</outline>
</glyph>
<glyph name="nnna-tamil" format="2">
	<advance width="730"/>
	<unicode hex="0BA9"/>
	<anchor x="580" y="600" name="imatra"/>
	<anchor x="391" y="600" name="top"/>
	<outline>
		<contour>
			<point x="170" y="-10" type="line"/>
			<point x="172" y="-10" type="line" smooth="yes"/>
			<point x="221" y="-9"/>
			<point x="255" y="31"/>
			<point x="255" y="82" type="curve" smooth="yes"/>
			<point x="255" y="118" type="line" smooth="yes"/>
			<point x="255" y="170"/>
			<point x="219" y="210"/>
			<point x="170" y="210" type="curve" smooth="yes"/>
			<point x="121" y="210"/>
			<point x="85" y="170"/>
			<point x="85" y="118" type="curve" smooth="yes"/>
			<point x="85" y="82" type="line" smooth="yes"/>
			<point x="85" y="66"/>
			<point x="88" y="50"/>
			<point x="95" y="38" type="curve"/>
			<point x="73" y="57"/>
			<point x="60" y="86"/>
			<point x="60" y="122" type="curve" smooth="yes"/>
			<point x="60" y="416" type="line" smooth="yes"/>
			<point x="60" y="518"/>
			<point x="132" y="590"/>
			<point x="234" y="590" type="curve" smooth="yes"/>
			<point x="330" y="590" type="line"/>
			<point x="306" y="572"/>
			<point x="292" y="544"/>
			<point x="292" y="511" type="curve" smooth="yes"/>
			<point x="292" y="89" type="line" smooth="yes"/>
			<point x="292" y="33"/>
			<point x="334" y="-10"/>
			<point x="389" y="-10" type="curve" smooth="yes"/>
			<point x="444" y="-10"/>
			<point x="487" y="33"/>
			<point x="487" y="89" type="curve" smooth="yes"/>
			<point x="487" y="511" type="line" smooth="yes"/>
			<point x="487" y="544"/>
			<point x="473" y="572"/>
			<point x="450" y="590" type="curve"/>
			<point x="570" y="590" type="line"/>
			<point x="570" y="0" type="line" smooth="yes"/>
			<point x="570" y="-6"/>
			<point x="574" y="-10"/>
			<point x="580" y="-10" type="curve" smooth="yes"/>
			<point x="586" y="-10"/>
			<point x="590" y="-6"/>
			<point x="590" y="0" type="curve" smooth="yes"/>
			<point x="590" y="590" type="line"/>
			<point x="680" y="590" type="line" smooth="yes"/>
			<point x="686" y="590"/>
			<point x="690" y="594"/>
			<point x="690" y="600" type="curve" smooth="yes"/>
			<point x="690" y="606"/>
			<point x="686" y="610"/>
			<point x="680" y="610" type="curve" smooth="yes"/>
			<point x="234" y="610" type="line" smooth="yes"/>
			<point x="123" y="610"/>
			<point x="40" y="527"/>
			<point x="40" y="416" type="curve" smooth="yes"/>
			<point x="40" y="122" type="line" smooth="yes"/>
			<point x="40" y="48"/>
			<point x="92" y="-6"/>
			<point x="164" y="-10" type="curve" smooth="yes"/>
		</contour>
		<contour>
			<point x="164" y="10" type="line" smooth="yes"/>
			<point x="129" y="13"/>
			<point x="105" y="41"/>
			<point x="105" y="82" type="curve" smooth="yes"/>
			<point x="105" y="118" type="line" smooth="yes"/>
			<point x="105" y="161"/>
			<point x="132" y="190"/>
			<point x="170" y="190" type="curve" smooth="yes"/>
			<point x="208" y="190"/>
			<point x="235" y="161"/>
			<point x="235" y="118" type="curve" smooth="yes"/>
			<point x="235" y="82" type="line" smooth="yes"/>
			<point x="235" y="39"/>
			<point x="210" y="10"/>
			<point x="171" y="10" type="curve" smooth="yes"/>
		</contour>
		<contour>
			<point x="389" y="10" type="curve" smooth="yes"/>
			<point x="343" y="10"/>
			<point x="312" y="42"/>
			<point x="312" y="89" type="curve" smooth="yes"/>
			<point x="312" y="511" type="line" smooth="yes"/>
			<point x="312" y="558"/>
			<point x="344" y="590"/>
			<point x="391" y="590" type="curve" smooth="yes"/>
			<point x="436" y="590"/>
			<point x="467" y="558"/>
			<point x="467" y="511" type="curve" smooth="yes"/>
			<point x="467" y="89" type="line" smooth="yes"/>
			<point x="467" y="42"/>
			<point x="435" y="10"/>
		</contour>
	</outline>
</glyph>
<glyph name="ma-tamil" format="2">
	<advance width="450"/>
	<unicode hex="0BAE"/>
	<anchor x="313" y="600" name="imatra"/>
	<anchor x="225" y="600" name="top"/>
	<outline>
		<contour>
			<point x="50" y="-10" type="curve" smooth="yes"/>
			<point x="311" y="-10" type="line" smooth="yes"/>
			<point x="367" y="-10"/>
			<point x="410" y="33"/>
			<point x="410" y="89" type="curve" smooth="yes"/>
			<point x="410" y="511" type="line" smooth="yes"/>
			<point x="410" y="567"/>
			<point x="368" y="610"/>
			<point x="313" y="610" type="curve" smooth="yes"/>
			<point x="258" y="610"/>
			<point x="215" y="567"/>
			<point x="215" y="511" type="curve" smooth="yes"/>
			<point x="215" y="10" type="line"/>
			<point x="60" y="10" type="line"/>
			<point x="60" y="600" type="line" smooth="yes"/>
			<point x="60" y="606"/>
			<point x="56" y="610"/>
			<point x="50" y="610" type="curve" smooth="yes"/>
			<point x="44" y="610"/>
			<point x="40" y="606"/>
			<point x="40" y="600" type="curve" smooth="yes"/>
			<point x="40" y="0" type="line" smooth="yes"/>
			<point x="40" y="-6"/>
			<point x="44" y="-10"/>
		</contour>
		<contour>
			<point x="235" y="10" type="line"/>
			<point x="235" y="511" type="line" smooth="yes"/>
			<point x="235" y="558"/>
			<point x="267" y="590"/>
			<point x="313" y="590" type="curve" smooth="yes"/>
			<point x="359" y="590"/>
			<point x="390" y="558"/>
			<point x="390" y="511" type="curve" smooth="yes"/>
			<point x="390" y="89" type="line" smooth="yes"/>
			<point x="390" y="42"/>
			<point x="358" y="10"/>
			<point x="311" y="10" type="curve" smooth="yes"/>
		</contour>
	</outline>
</glyph>
<glyph name="ya-tamil" format="2">
	<advance width="460"/>
	<unicode hex="0BAF"/>
	<anchor x="410" y="600" name="imatra"/>
	<anchor x="230" y="600" name="top"/>
	<outline>
		<contour>
			<point x="140" y="-10" type="curve" smooth="yes"/>
			<point x="174" y="-10"/>
			<point x="202" y="5"/>
			<point x="220" y="29" type="curve"/>
			<point x="220" y="0" type="line" smooth="yes"/>
			<point x="220" y="-6"/>
			<point x="224" y="-10"/>
			<point x="230" y="-10" type="curve" smooth="yes"/>
			<point x="410" y="-10" type="line" smooth="yes"/>
			<point x="416" y="-10"/>
			<point x="420" y="-6"/>
			<point x="420" y="0" type="curve" smooth="yes"/>
			<point x="420" y="600" type="line" smooth="yes"/>
			<point x="420" y="606"/>
			<point x="416" y="610"/>
			<point x="410" y="610" type="curve" smooth="yes"/>
			<point x="404" y="610"/>
			<point x="400" y="606"/>
			<point x="400" y="600" type="curve" smooth="yes"/>
			<point x="400" y="10" type="line"/>
			<point x="240" y="10" type="line"/>
			<point x="240" y="590" type="line" smooth="yes"/>
			<point x="240" y="596"/>
			<point x="236" y="600"/>
			<point x="230" y="600" type="curve" smooth="yes"/>
			<point x="224" y="600"/>
			<point x="220" y="596"/>
			<point x="220" y="590" type="curve" smooth="yes"/>
			<point x="220" y="92" type="line" smooth="yes"/>
			<point x="220" y="43"/>
			<point x="188" y="10"/>
			<point x="140" y="10" type="curve" smooth="yes"/>
			<point x="92" y="10"/>
			<point x="60" y="43"/>
			<point x="60" y="92" type="curve" smooth="yes"/>
			<point x="60" y="600" type="line" smooth="yes"/>
			<point x="60" y="606"/>
			<point x="56" y="610"/>
			<point x="50" y="610" type="curve" smooth="yes"/>
			<point x="44" y="610"/>
			<point x="40" y="606"/>
			<point x="40" y="600" type="curve" smooth="yes"/>
			<point x="40" y="92" type="line" smooth="yes"/>
			<point x="40" y="34"/>
			<point x="82" y="-10"/>
		</contour>
	</outline>
</glyph>
<glyph name="ra-tamil" format="2">
	<advance width="400"/>
	<unicode hex="0BB0"/>
	<anchor x="250" y="600" name="imatra"/>
	<anchor x="195" y="600" name="top"/>
	<outline>
		<contour>
			<point x="80" y="-306" type="curve" smooth="yes"/>
			<point x="84" y="-306"/>
			<point x="87" y="-304"/>
			<point x="89" y="-301" type="curve" smooth="yes"/>
			<point x="257" y="-8" type="line" smooth="yes"/>
			<point x="259" y="-4"/>
			<point x="260" y="-1"/>
			<point x="260" y="4" type="curve" smooth="yes"/>
			<point x="260" y="590" type="line"/>
			<point x="350" y="590" type="line" smooth="yes"/>
			<point x="356" y="590"/>
			<point x="360" y="594"/>
			<point x="360" y="600" type="curve" smooth="yes"/>
			<point x="360" y="606"/>
			<point x="356" y="610"/>
			<point x="350" y="610" type="curve" smooth="yes"/>
			<point x="50" y="610" type="line" smooth="yes"/>
			<point x="44" y="610"/>
			<point x="40" y="606"/>
			<point x="40" y="600" type="curve" smooth="yes"/>
			<point x="40" y="100" type="line" smooth="yes"/>
			<point x="40" y="94"/>
			<point x="44" y="90"/>
			<point x="50" y="90" type="curve" smooth="yes"/>
			<point x="56" y="90"/>
			<point x="60" y="94"/>
			<point x="60" y="100" type="curve" smooth="yes"/>
			<point x="60" y="590" type="line"/>
			<point x="240" y="590" type="line"/>
			<point x="240" y="3" type="line"/>
			<point x="72" y="-291" type="line"/>
			<point x="71" y="-291" type="line"/>
			<point x="70" y="-292"/>
			<point x="70" y="-294"/>
			<point x="70" y="-296" type="curve" smooth="yes"/>
			<point x="70" y="-302"/>
			<point x="74" y="-306"/>
		</contour>
	</outline>
</glyph>
<glyph name="rra-tamil" format="2">
	<advance width="460"/>
	<unicode hex="0BB1"/>
	<anchor x="311" y="601" name="imatra"/>
	<anchor x="230" y="600" name="top"/>
	<outline>
		<contour>
			<point x="50" y="-311" type="curve" smooth="yes"/>
			<point x="56" y="-311"/>
			<point x="60" y="-306"/>
			<point x="60" y="-301" type="curve" smooth="yes"/>
			<point x="60" y="-214" type="line" smooth="yes"/>
			<point x="60" y="-121"/>
			<point x="119" y="-62"/>
			<point x="203" y="-62" type="curve" smooth="yes"/>
			<point x="252" y="-62" type="line" smooth="yes"/>
			<point x="385" y="-62"/>
			<point x="420" y="-4"/>
			<point x="420" y="225" type="curve" smooth="yes"/>
			<point x="420" y="369" type="line" smooth="yes"/>
			<point x="420" y="507"/>
			<point x="415" y="611"/>
			<point x="311" y="611" type="curve" smooth="yes"/>
			<point x="268" y="611"/>
			<point x="243" y="592"/>
			<point x="230" y="566" type="curve"/>
			<point x="216" y="592"/>
			<point x="188" y="610"/>
			<point x="155" y="610" type="curve" smooth="yes"/>
			<point x="107" y="610"/>
			<point x="70" y="573"/>
			<point x="70" y="524" type="curve" smooth="yes"/>
			<point x="70" y="80" type="line" smooth="yes"/>
			<point x="70" y="74"/>
			<point x="74" y="70"/>
			<point x="80" y="70" type="curve" smooth="yes"/>
			<point x="86" y="70"/>
			<point x="90" y="74"/>
			<point x="90" y="80" type="curve" smooth="yes"/>
			<point x="90" y="524" type="line" smooth="yes"/>
			<point x="90" y="564"/>
			<point x="116" y="590"/>
			<point x="155" y="590" type="curve" smooth="yes"/>
			<point x="194" y="590"/>
			<point x="220" y="564"/>
			<point x="220" y="524" type="curve" smooth="yes"/>
			<point x="220" y="120" type="line" smooth="yes"/>
			<point x="220" y="114"/>
			<point x="224" y="110"/>
			<point x="230" y="110" type="curve" smooth="yes"/>
			<point x="236" y="110"/>
			<point x="240" y="114"/>
			<point x="240" y="120" type="curve" smooth="yes"/>
			<point x="240" y="516" type="line" smooth="yes"/>
			<point x="240" y="558"/>
			<point x="257" y="591"/>
			<point x="311" y="591" type="curve" smooth="yes"/>
			<point x="396" y="591"/>
			<point x="400" y="506"/>
			<point x="400" y="369" type="curve" smooth="yes"/>
			<point x="400" y="225" type="line" smooth="yes"/>
			<point x="400" y="4"/>
			<point x="373" y="-42"/>
			<point x="252" y="-42" type="curve" smooth="yes"/>
			<point x="203" y="-42" type="line" smooth="yes"/>
			<point x="110" y="-42"/>
			<point x="40" y="-112"/>
			<point x="40" y="-214" type="curve" smooth="yes"/>
			<point x="40" y="-301" type="line" smooth="yes"/>
			<point x="40" y="-306"/>
			<point x="44" y="-311"/>
		</contour>
	</outline>
</glyph>
<glyph name="la-tamil" format="2">
	<advance width="517"/>
	<unicode hex="0BB2"/>
	<anchor x="365" y="600" name="imatra"/>
	<anchor x="288" y="600" name="top"/>
	<outline>
		<contour>
			<point x="170" y="-10" type="line"/>
			<point x="172" y="-10" type="line" smooth="yes"/>
			<point x="221" y="-9"/>
			<point x="255" y="31"/>
			<point x="255" y="82" type="curve" smooth="yes"/>
			<point x="255" y="118" type="line" smooth="yes"/>
			<point x="255" y="170"/>
			<point x="219" y="210"/>
			<point x="170" y="210" type="curve" smooth="yes"/>
			<point x="121" y="210"/>
			<point x="85" y="170"/>
			<point x="85" y="118" type="curve" smooth="yes"/>
			<point x="85" y="82" type="line" smooth="yes"/>
			<point x="85" y="66"/>
			<point x="88" y="50"/>
			<point x="95" y="38" type="curve"/>
			<point x="73" y="57"/>
			<point x="60" y="86"/>
			<point x="60" y="122" type="curve" smooth="yes"/>
			<point x="60" y="478" type="line" smooth="yes"/>
			<point x="60" y="545"/>
			<point x="105" y="590"/>
			<point x="172" y="590" type="curve" smooth="yes"/>
			<point x="196" y="590" type="line" smooth="yes"/>
			<point x="260" y="590"/>
			<point x="307" y="548"/>
			<point x="307" y="473" type="curve" smooth="yes"/>
			<point x="307" y="76" type="line" smooth="yes"/>
			<point x="307" y="27"/>
			<point x="344" y="-10"/>
			<point x="392" y="-10" type="curve" smooth="yes"/>
			<point x="440" y="-10"/>
			<point x="477" y="27"/>
			<point x="477" y="76" type="curve" smooth="yes"/>
			<point x="477" y="523" type="line" smooth="yes"/>
			<point x="477" y="572"/>
			<point x="440" y="610"/>
			<point x="391" y="610" type="curve" smooth="yes"/>
			<point x="365" y="610" type="line" smooth="yes"/>
			<point x="360" y="610"/>
			<point x="355" y="606"/>
			<point x="355" y="600" type="curve" smooth="yes"/>
			<point x="355" y="594"/>
			<point x="360" y="590"/>
			<point x="365" y="590" type="curve" smooth="yes"/>
			<point x="391" y="590" type="line" smooth="yes"/>
			<point x="431" y="590"/>
			<point x="457" y="563"/>
			<point x="457" y="523" type="curve" smooth="yes"/>
			<point x="457" y="76" type="line" smooth="yes"/>
			<point x="457" y="36"/>
			<point x="431" y="10"/>
			<point x="392" y="10" type="curve" smooth="yes"/>
			<point x="353" y="10"/>
			<point x="327" y="36"/>
			<point x="327" y="76" type="curve" smooth="yes"/>
			<point x="327" y="473" type="line" smooth="yes"/>
			<point x="327" y="558"/>
			<point x="269" y="610"/>
			<point x="196" y="610" type="curve" smooth="yes"/>
			<point x="172" y="610" type="line" smooth="yes"/>
			<point x="96" y="610"/>
			<point x="40" y="554"/>
			<point x="40" y="478" type="curve" smooth="yes"/>
			<point x="40" y="122" type="line" smooth="yes"/>
			<point x="40" y="48"/>
			<point x="92" y="-6"/>
			<point x="164" y="-10" type="curve" smooth="yes"/>
		</contour>
		<contour>
			<point x="164" y="10" type="line" smooth="yes"/>
			<point x="129" y="13"/>
			<point x="105" y="41"/>
			<point x="105" y="82" type="curve" smooth="yes"/>
			<point x="105" y="118" type="line" smooth="yes"/>
			<point x="105" y="161"/>
			<point x="132" y="190"/>
			<point x="170" y="190" type="curve" smooth="yes"/>
			<point x="208" y="190"/>
			<point x="235" y="161"/>
			<point x="235" y="118" type="curve" smooth="yes"/>
			<point x="235" y="82" type="line" smooth="yes"/>
			<point x="235" y="39"/>
			<point x="210" y="10"/>
			<point x="171" y="10" type="curve" smooth="yes"/>
		</contour>
	</outline>
</glyph>
<glyph name="lla-tamil" format="2">
	<advance width="647"/>
	<unicode hex="0BB3"/>
	<anchor x="497" y="600" name="imatra"/>
	<anchor x="314" y="600" name="top"/>
	<outline>
		<contour>
			<point x="170" y="-10" type="line"/>
			<point x="172" y="-10" type="line" smooth="yes"/>
			<point x="221" y="-9"/>
			<point x="255" y="31"/>
			<point x="255" y="82" type="curve" smooth="yes"/>
			<point x="255" y="118" type="line" smooth="yes"/>
			<point x="255" y="170"/>
			<point x="219" y="210"/>
			<point x="170" y="210" type="curve" smooth="yes"/>
			<point x="121" y="210"/>
			<point x="85" y="170"/>
			<point x="85" y="118" type="curve" smooth="yes"/>
			<point x="85" y="82" type="line" smooth="yes"/>
			<point x="85" y="66"/>
			<point x="88" y="50"/>
			<point x="95" y="38" type="curve"/>
			<point x="73" y="57"/>
			<point x="60" y="86"/>
			<point x="60" y="122" type="curve" smooth="yes"/>
			<point x="60" y="478" type="line" smooth="yes"/>
			<point x="60" y="545"/>
			<point x="105" y="590"/>
			<point x="172" y="590" type="curve" smooth="yes"/>
			<point x="196" y="590" type="line" smooth="yes"/>
			<point x="260" y="590"/>
			<point x="307" y="548"/>
			<point x="307" y="473" type="curve" smooth="yes"/>
			<point x="307" y="200" type="line" smooth="yes"/>
			<point x="307" y="194"/>
			<point x="312" y="190"/>
			<point x="317" y="190" type="curve" smooth="yes"/>
			<point x="322" y="190"/>
			<point x="327" y="194"/>
			<point x="327" y="200" type="curve" smooth="yes"/>
			<point x="327" y="590" type="line"/>
			<point x="487" y="590" type="line"/>
			<point x="487" y="0" type="line" smooth="yes"/>
			<point x="487" y="-6"/>
			<point x="492" y="-10"/>
			<point x="497" y="-10" type="curve" smooth="yes"/>
			<point x="502" y="-10"/>
			<point x="507" y="-6"/>
			<point x="507" y="0" type="curve" smooth="yes"/>
			<point x="507" y="590" type="line"/>
			<point x="597" y="590" type="line" smooth="yes"/>
			<point x="602" y="590"/>
			<point x="607" y="594"/>
			<point x="607" y="600" type="curve" smooth="yes"/>
			<point x="607" y="606"/>
			<point x="602" y="610"/>
			<point x="597" y="610" type="curve" smooth="yes"/>
			<point x="317" y="610" type="line" smooth="yes"/>
			<point x="311" y="610"/>
			<point x="307" y="606"/>
			<point x="307" y="600" type="curve" smooth="yes"/>
			<point x="307" y="550" type="line"/>
			<point x="284" y="588"/>
			<point x="243" y="610"/>
			<point x="196" y="610" type="curve" smooth="yes"/>
			<point x="172" y="610" type="line" smooth="yes"/>
			<point x="96" y="610"/>
			<point x="40" y="554"/>
			<point x="40" y="478" type="curve" smooth="yes"/>
			<point x="40" y="122" type="line" smooth="yes"/>
			<point x="40" y="48"/>
			<point x="92" y="-6"/>
			<point x="164" y="-10" type="curve" smooth="yes"/>
		</contour>
		<contour>
			<point x="164" y="10" type="line" smooth="yes"/>
			<point x="129" y="13"/>
			<point x="105" y="41"/>
			<point x="105" y="82" type="curve" smooth="yes"/>
			<point x="105" y="118" type="line" smooth="yes"/>
			<point x="105" y="161"/>
			<point x="132" y="190"/>
			<point x="170" y="190" type="curve" smooth="yes"/>
			<point x="208" y="190"/>
			<point x="235" y="161"/>
			<point x="235" y="118" type="curve" smooth="yes"/>
			<point x="235" y="82" type="line" smooth="yes"/>
			<point x="235" y="39"/>
			<point x="210" y="10"/>
			<point x="171" y="10" type="curve" smooth="yes"/>
		</contour>
	</outline>
</glyph>
<glyph name="llla-tamil" format="2">
	<advance width="450"/>
	<unicode hex="0BB4"/>
	<anchor x="313" y="600" name="imatra"/>
	<anchor x="225" y="600" name="top"/>
	<outline>
		<contour>
			<point x="175" y="-309" type="curve" smooth="yes"/>
			<point x="230" y="-309"/>
			<point x="271" y="-267"/>
			<point x="272" y="-212" type="curve" smooth="yes"/>
			<point x="272" y="-165"/>
			<point x="303" y="-133"/>
			<point x="349" y="-133" type="curve" smooth="yes"/>
			<point x="370" y="-133" type="line" smooth="yes"/>
			<point x="376" y="-133"/>
			<point x="380" y="-128"/>
			<point x="380" y="-123" type="curve" smooth="yes"/>
			<point x="380" y="-118"/>
			<point x="376" y="-113"/>
			<point x="370" y="-113" type="curve" smooth="yes"/>
			<point x="317" y="-113" type="line" smooth="yes"/>
			<point x="268" y="-113"/>
			<point x="235" y="-80"/>
			<point x="235" y="-31" type="curve" smooth="yes"/>
			<point x="235" y="-10" type="line"/>
			<point x="311" y="-10" type="line" smooth="yes"/>
			<point x="367" y="-10"/>
			<point x="410" y="33"/>
			<point x="410" y="89" type="curve" smooth="yes"/>
			<point x="410" y="511" type="line" smooth="yes"/>
			<point x="410" y="567"/>
			<point x="368" y="610"/>
			<point x="313" y="610" type="curve" smooth="yes"/>
			<point x="258" y="610"/>
			<point x="215" y="567"/>
			<point x="215" y="511" type="curve" smooth="yes"/>
			<point x="215" y="10" type="line"/>
			<point x="60" y="10" type="line"/>
			<point x="60" y="600" type="line" smooth="yes"/>
			<point x="60" y="606"/>
			<point x="56" y="610"/>
			<point x="50" y="610" type="curve" smooth="yes"/>
			<point x="44" y="610"/>
			<point x="40" y="606"/>
			<point x="40" y="600" type="curve" smooth="yes"/>
			<point x="40" y="0" type="line" smooth="yes"/>
			<point x="40" y="-6"/>
			<point x="44" y="-10"/>
			<point x="50" y="-10" type="curve" smooth="yes"/>
			<point x="215" y="-10" type="line"/>
			<point x="215" y="-31" type="line" smooth="yes"/>
			<point x="215" y="-81"/>
			<point x="247" y="-120"/>
			<point x="293" y="-130" type="curve"/>
			<point x="268" y="-148"/>
			<point x="253" y="-176"/>
			<point x="252" y="-210" type="curve" smooth="yes"/>
			<point x="252" y="-257"/>
			<point x="221" y="-289"/>
			<point x="175" y="-289" type="curve" smooth="yes"/>
			<point x="129" y="-289"/>
			<point x="97" y="-257"/>
			<point x="97" y="-210" type="curve" smooth="yes"/>
			<point x="97" y="-204"/>
			<point x="92" y="-200"/>
			<point x="87" y="-200" type="curve" smooth="yes"/>
			<point x="82" y="-200"/>
			<point x="77" y="-204"/>
			<point x="77" y="-210" type="curve" smooth="yes"/>
			<point x="77" y="-266"/>
			<point x="120" y="-309"/>
		</contour>
		<contour>
			<point x="235" y="10" type="line"/>
			<point x="235" y="511" type="line" smooth="yes"/>
			<point x="235" y="558"/>
			<point x="267" y="590"/>
			<point x="313" y="590" type="curve" smooth="yes"/>
			<point x="359" y="590"/>
			<point x="390" y="558"/>
			<point x="390" y="511" type="curve" smooth="yes"/>
			<point x="390" y="89" type="line" smooth="yes"/>
			<point x="390" y="42"/>
			<point x="358" y="10"/>
			<point x="311" y="10" type="curve" smooth="yes"/>
		</contour>
	</outline>
</glyph>
<glyph name="sha-tamil" format="2">
	<advance width="560"/>
	<unicode hex="0BB6"/>
	<anchor x="510" y="600" name="imatra"/>
	<anchor x="280" y="600" name="top"/>
	<outline>
		<contour>
			<point x="140" y="-10" type="curve" smooth="yes"/>
			<point x="198" y="-10"/>
			<point x="240" y="34"/>
			<point x="240" y="92" type="curve" smooth="yes"/>
			<point x="240" y="590" type="line"/>
			<point x="320" y="590" type="line"/>
			<point x="320" y="92" type="line" smooth="yes"/>
			<point x="320" y="34"/>
			<point x="362" y="-10"/>
			<point x="420" y="-10" type="curve" smooth="yes"/>
			<point x="478" y="-10"/>
			<point x="520" y="34"/>
			<point x="520" y="92" type="curve" smooth="yes"/>
			<point x="520" y="600" type="line" smooth="yes"/>
			<point x="520" y="606"/>
			<point x="516" y="610"/>
			<point x="510" y="610" type="curve" smooth="yes"/>
			<point x="230" y="610" type="line" smooth="yes"/>
			<point x="224" y="610"/>
			<point x="220" y="606"/>
			<point x="220" y="600" type="curve" smooth="yes"/>
			<point x="220" y="92" type="line" smooth="yes"/>
			<point x="220" y="43"/>
			<point x="188" y="10"/>
			<point x="140" y="10" type="curve" smooth="yes"/>
			<point x="92" y="10"/>
			<point x="60" y="43"/>
			<point x="60" y="92" type="curve" smooth="yes"/>
			<point x="60" y="600" type="line" smooth="yes"/>
			<point x="60" y="606"/>
			<point x="56" y="610"/>
			<point x="50" y="610" type="curve" smooth="yes"/>
			<point x="44" y="610"/>
			<point x="40" y="606"/>
			<point x="40" y="600" type="curve" smooth="yes"/>
			<point x="40" y="92" type="line" smooth="yes"/>
			<point x="40" y="34"/>
			<point x="82" y="-10"/>
		</contour>
		<contour>
			<point x="420" y="10" type="curve" smooth="yes"/>
			<point x="372" y="10"/>
			<point x="340" y="43"/>
			<point x="340" y="92" type="curve" smooth="yes"/>
			<point x="340" y="590" type="line"/>
			<point x="500" y="590" type="line"/>
			<point x="500" y="92" type="line" smooth="yes"/>
			<point x="500" y="43"/>
			<point x="468" y="10"/>
		</contour>
	</outline>
</glyph>
<glyph name="ssa-tamil" format="2">
	<advance width="660"/>
	<unicode hex="0BB7"/>
	<anchor x="450" y="280" name="imatra"/>
	<anchor x="330" y="600" name="top"/>
	<outline>
		<contour>
			<point x="530" y="-307" type="curve" smooth="yes"/>
			<point x="536" y="-307"/>
			<point x="540" y="-302"/>
			<point x="540" y="-297" type="curve" smooth="yes"/>
			<point x="540" y="-10" type="line"/>
			<point x="610" y="-10" type="line" smooth="yes"/>
			<point x="616" y="-10"/>
			<point x="620" y="-6"/>
			<point x="620" y="0" type="curve" smooth="yes"/>
			<point x="620" y="6"/>
			<point x="616" y="10"/>
			<point x="610" y="10" type="curve" smooth="yes"/>
			<point x="540" y="10" type="line"/>
			<point x="540" y="198" type="line" smooth="yes"/>
			<point x="540" y="251"/>
			<point x="501" y="290"/>
			<point x="450" y="290" type="curve" smooth="yes"/>
			<point x="399" y="290"/>
			<point x="360" y="251"/>
			<point x="360" y="198" type="curve" smooth="yes"/>
			<point x="360" y="82" type="line" smooth="yes"/>
			<point x="360" y="52"/>
			<point x="372" y="26"/>
			<point x="391" y="10" type="curve"/>
			<point x="110" y="10" type="line" smooth="yes"/>
			<point x="85" y="10"/>
			<point x="69" y="25"/>
			<point x="69" y="50" type="curve" smooth="yes"/>
			<point x="69" y="75"/>
			<point x="85" y="90"/>
			<point x="110" y="90" type="curve" smooth="yes"/>
			<point x="198" y="90" type="line" smooth="yes"/>
			<point x="274" y="90"/>
			<point x="330" y="146"/>
			<point x="330" y="222" type="curve" smooth="yes"/>
			<point x="330" y="478" type="line" smooth="yes"/>
			<point x="330" y="554"/>
			<point x="274" y="610"/>
			<point x="198" y="610" type="curve" smooth="yes"/>
			<point x="172" y="610" type="line" smooth="yes"/>
			<point x="96" y="610"/>
			<point x="40" y="554"/>
			<point x="40" y="478" type="curve" smooth="yes"/>
			<point x="40" y="278" type="line" smooth="yes"/>
			<point x="40" y="226"/>
			<point x="76" y="186"/>
			<point x="125" y="186" type="curve" smooth="yes"/>
			<point x="175" y="186"/>
			<point x="210" y="226"/>
			<point x="210" y="278" type="curve" smooth="yes"/>
			<point x="210" y="314" type="line" smooth="yes"/>
			<point x="210" y="366"/>
			<point x="174" y="406"/>
			<point x="125" y="406" type="curve" smooth="yes"/>
			<point x="98" y="406"/>
			<point x="75" y="394"/>
			<point x="60" y="374" type="curve"/>
			<point x="60" y="478" type="line" smooth="yes"/>
			<point x="60" y="545"/>
			<point x="105" y="590"/>
			<point x="172" y="590" type="curve" smooth="yes"/>
			<point x="198" y="590" type="line" smooth="yes"/>
			<point x="265" y="590"/>
			<point x="310" y="545"/>
			<point x="310" y="478" type="curve" smooth="yes"/>
			<point x="310" y="222" type="line" smooth="yes"/>
			<point x="310" y="155"/>
			<point x="265" y="110"/>
			<point x="198" y="110" type="curve" smooth="yes"/>
			<point x="110" y="110" type="line" smooth="yes"/>
			<point x="76" y="110"/>
			<point x="49" y="84"/>
			<point x="49" y="50" type="curve" smooth="yes"/>
			<point x="49" y="16"/>
			<point x="76" y="-10"/>
			<point x="110" y="-10" type="curve" smooth="yes"/>
			<point x="520" y="-10" type="line"/>
			<point x="520" y="-297" type="line" smooth="yes"/>
			<point x="520" y="-302"/>
			<point x="524" y="-307"/>
		</contour>
		<contour>
			<point x="125" y="206" type="curve" smooth="yes"/>
			<point x="86" y="206"/>
			<point x="60" y="235"/>
			<point x="60" y="278" type="curve" smooth="yes"/>
			<point x="60" y="314" type="line" smooth="yes"/>
			<point x="60" y="357"/>
			<point x="86" y="386"/>
			<point x="125" y="386" type="curve" smooth="yes"/>
			<point x="164" y="386"/>
			<point x="190" y="357"/>
			<point x="190" y="314" type="curve" smooth="yes"/>
			<point x="190" y="278" type="line" smooth="yes"/>
			<point x="190" y="235"/>
			<point x="164" y="206"/>
		</contour>
		<contour>
			<point x="444" y="10" type="line" smooth="yes"/>
			<point x="408" y="10"/>
			<point x="380" y="38"/>
			<point x="380" y="82" type="curve" smooth="yes"/>
			<point x="380" y="198" type="line" smooth="yes"/>
			<point x="380" y="242"/>
			<point x="408" y="270"/>
			<point x="450" y="270" type="curve" smooth="yes"/>
			<point x="492" y="270"/>
			<point x="520" y="242"/>
			<point x="520" y="198" type="curve" smooth="yes"/>
			<point x="520" y="10" type="line"/>
		</contour>
	</outline>
</glyph>
<glyph name="ha-tamil" format="2">
	<advance width="780"/>
	<unicode hex="0BB9"/>
	<anchor x="631" y="601" name="imatra"/>
	<anchor x="400" y="600" name="top"/>
	<outline>
		<contour>
			<point x="370" y="-311" type="curve" smooth="yes"/>
			<point x="376" y="-311"/>
			<point x="380" y="-306"/>
			<point x="380" y="-301" type="curve" smooth="yes"/>
			<point x="380" y="-214" type="line" smooth="yes"/>
			<point x="380" y="-121"/>
			<point x="439" y="-62"/>
			<point x="523" y="-62" type="curve" smooth="yes"/>
			<point x="572" y="-62" type="line" smooth="yes"/>
			<point x="705" y="-62"/>
			<point x="740" y="-4"/>
			<point x="740" y="225" type="curve" smooth="yes"/>
			<point x="740" y="369" type="line" smooth="yes"/>
			<point x="740" y="507"/>
			<point x="735" y="611"/>
			<point x="631" y="611" type="curve" smooth="yes"/>
			<point x="588" y="611"/>
			<point x="563" y="592"/>
			<point x="550" y="566" type="curve"/>
			<point x="536" y="592"/>
			<point x="508" y="610"/>
			<point x="475" y="610" type="curve" smooth="yes"/>
			<point x="427" y="610"/>
			<point x="390" y="573"/>
			<point x="390" y="524" type="curve" smooth="yes"/>
			<point x="390" y="10" type="line"/>
			<point x="110" y="10" type="line" smooth="yes"/>
			<point x="85" y="10"/>
			<point x="69" y="25"/>
			<point x="69" y="50" type="curve" smooth="yes"/>
			<point x="69" y="75"/>
			<point x="85" y="90"/>
			<point x="110" y="90" type="curve" smooth="yes"/>
			<point x="198" y="90" type="line" smooth="yes"/>
			<point x="274" y="90"/>
			<point x="330" y="146"/>
			<point x="330" y="222" type="curve" smooth="yes"/>
			<point x="330" y="478" type="line" smooth="yes"/>
			<point x="330" y="554"/>
			<point x="274" y="610"/>
			<point x="198" y="610" type="curve" smooth="yes"/>
			<point x="172" y="610" type="line" smooth="yes"/>
			<point x="96" y="610"/>
			<point x="40" y="554"/>
			<point x="40" y="478" type="curve" smooth="yes"/>
			<point x="40" y="278" type="line" smooth="yes"/>
			<point x="40" y="226"/>
			<point x="76" y="186"/>
			<point x="125" y="186" type="curve" smooth="yes"/>
			<point x="175" y="186"/>
			<point x="210" y="226"/>
			<point x="210" y="278" type="curve" smooth="yes"/>
			<point x="210" y="314" type="line" smooth="yes"/>
			<point x="210" y="366"/>
			<point x="174" y="406"/>
			<point x="125" y="406" type="curve" smooth="yes"/>
			<point x="98" y="406"/>
			<point x="75" y="394"/>
			<point x="60" y="374" type="curve"/>
			<point x="60" y="478" type="line" smooth="yes"/>
			<point x="60" y="545"/>
			<point x="105" y="590"/>
			<point x="172" y="590" type="curve" smooth="yes"/>
			<point x="198" y="590" type="line" smooth="yes"/>
			<point x="265" y="590"/>
			<point x="310" y="545"/>
			<point x="310" y="478" type="curve" smooth="yes"/>
			<point x="310" y="222" type="line" smooth="yes"/>
			<point x="310" y="155"/>
			<point x="265" y="110"/>
			<point x="198" y="110" type="curve" smooth="yes"/>
			<point x="110" y="110" type="line" smooth="yes"/>
			<point x="76" y="110"/>
			<point x="49" y="84"/>
			<point x="49" y="50" type="curve" smooth="yes"/>
			<point x="49" y="16"/>
			<point x="76" y="-10"/>
			<point x="110" y="-10" type="curve" smooth="yes"/>
			<point x="400" y="-10" type="line" smooth="yes"/>
			<point x="406" y="-10"/>
			<point x="410" y="-6"/>
			<point x="410" y="0" type="curve" smooth="yes"/>
			<point x="410" y="524" type="line" smooth="yes"/>
			<point x="410" y="564"/>
			<point x="436" y="590"/>
			<point x="475" y="590" type="curve" smooth="yes"/>
			<point x="514" y="590"/>
			<point x="540" y="564"/>
			<point x="540" y="524" type="curve" smooth="yes"/>
			<point x="540" y="120" type="line" smooth="yes"/>
			<point x="540" y="114"/>
			<point x="544" y="110"/>
			<point x="550" y="110" type="curve" smooth="yes"/>
			<point x="556" y="110"/>
			<point x="560" y="114"/>
			<point x="560" y="120" type="curve" smooth="yes"/>
			<point x="560" y="516" type="line" smooth="yes"/>
			<point x="560" y="558"/>
			<point x="577" y="591"/>
			<point x="631" y="591" type="curve" smooth="yes"/>
			<point x="716" y="591"/>
			<point x="720" y="506"/>
			<point x="720" y="369" type="curve" smooth="yes"/>
			<point x="720" y="225" type="line" smooth="yes"/>
			<point x="720" y="4"/>
			<point x="693" y="-42"/>
			<point x="572" y="-42" type="curve" smooth="yes"/>
			<point x="523" y="-42" type="line" smooth="yes"/>
			<point x="430" y="-42"/>
			<point x="360" y="-112"/>
			<point x="360" y="-214" type="curve" smooth="yes"/>
			<point x="360" y="-301" type="line" smooth="yes"/>
			<point x="360" y="-306"/>
			<point x="364" y="-311"/>
		</contour>
		<contour>
			<point x="125" y="206" type="curve" smooth="yes"/>
			<point x="86" y="206"/>
			<point x="60" y="235"/>
			<point x="60" y="278" type="curve" smooth="yes"/>
			<point x="60" y="314" type="line" smooth="yes"/>
			<point x="60" y="357"/>
			<point x="86" y="386"/>
			<point x="125" y="386" type="curve" smooth="yes"/>
			<point x="164" y="386"/>
			<point x="190" y="357"/>
			<point x="190" y="314" type="curve" smooth="yes"/>
			<point x="190" y="278" type="line" smooth="yes"/>
			<point x="190" y="235"/>
			<point x="164" y="206"/>
		</contour>
	</outline>
</glyph>
<glyph name="aaMatra-tamil" format="2">
	<advance width="390"/>
	<unicode hex="0BBE"/>
	<outline>
		<contour>
			<point x="50" y="-10" type="curve" smooth="yes"/>
			<point x="55.6" y="-10"/>
			<point x="60" y="-5.6"/>
			<point x="60" y="0" type="curve" smooth="yes"/>
			<point x="60" y="590" type="line"/>
			<point x="260" y="590" type="line"/>
			<point x="260" y="0" type="line" smooth="yes"/>
			<point x="260" y="-5.6"/>
			<point x="264.4" y="-10"/>
			<point x="270" y="-10" type="curve" smooth="yes"/>
			<point x="275.6" y="-10"/>
			<point x="280" y="-5.6"/>
			<point x="280" y="0" type="curve" smooth="yes"/>
			<point x="280" y="590" type="line"/>
			<point x="390" y="590" type="line" smooth="yes"/>
			<point x="395.6" y="590"/>
			<point x="400" y="594.4"/>
			<point x="400" y="600" type="curve" smooth="yes"/>
			<point x="400" y="605.6"/>
			<point x="395.6" y="610"/>
			<point x="390" y="610" type="curve" smooth="yes"/>
			<point x="50" y="610" type="line" smooth="yes"/>
			<point x="43.6" y="610"/>
			<point x="40" y="606.4"/>
			<point x="40" y="600" type="curve" smooth="yes"/>
			<point x="40" y="0" type="line" smooth="yes"/>
			<point x="40" y="-5.6"/>
			<point x="44.4" y="-10"/>
		</contour>
	</outline>
</glyph>
<glyph name="iMatra-tamil" format="2">
	<advance width="75"/>
	<unicode hex="0BBF"/>
	<anchor x="-150" y="600" name="_imatra"/>
	<outline>
		<contour>
			<point x="50" y="-10" type="curve" smooth="yes"/>
			<point x="55.6" y="-10"/>
			<point x="60" y="-5.6"/>
			<point x="60" y="0" type="curve" smooth="yes"/>
			<point x="60" y="708" type="line" smooth="yes"/>
			<point x="60" y="766.4"/>
			<point x="16.4" y="810"/>
			<point x="-42" y="810" type="curve" smooth="yes"/>
			<point x="-58" y="810" type="line" smooth="yes"/>
			<point x="-116.4" y="810"/>
			<point x="-160" y="766.4"/>
			<point x="-160" y="708" type="curve" smooth="yes"/>
			<point x="-160" y="600" type="line" smooth="yes"/>
			<point x="-160" y="594.4"/>
			<point x="-155.6" y="590"/>
			<point x="-150" y="590" type="curve" smooth="yes"/>
			<point x="-144.4" y="590"/>
			<point x="-140" y="594.4"/>
			<point x="-140" y="600" type="curve" smooth="yes"/>
			<point x="-140" y="708" type="line" smooth="yes"/>
			<point x="-140" y="756.8"/>
			<point x="-106.8" y="790"/>
			<point x="-58" y="790" type="curve" smooth="yes"/>
			<point x="-42" y="790" type="line" smooth="yes"/>
			<point x="6.8" y="790"/>
			<point x="40" y="756.8"/>
			<point x="40" y="708" type="curve" smooth="yes"/>
			<point x="40" y="0" type="line" smooth="yes"/>
			<point x="40" y="-5.6"/>
			<point x="44.4" y="-10"/>
		</contour>
	</outline>
</glyph>
<glyph name="iiMatra-tamil" format="2">
	<advance width="200"/>
	<unicode hex="0BC0"/>
	<anchor x="0" y="592" name="_imatra"/>
	<anchor x="92" y="800" name="top"/>
	<outline>
		<contour>
			<point x="0" y="582" type="curve" smooth="yes"/>
			<point x="5.6" y="582"/>
			<point x="10" y="586.4"/>
			<point x="10" y="592" type="curve" smooth="yes"/>
			<point x="10" y="708" type="line" smooth="yes"/>
			<point x="10" y="756.8"/>
			<point x="43.2" y="790"/>
			<point x="92" y="790" type="curve" smooth="yes"/>
			<point x="108" y="790" type="line" smooth="yes"/>
			<point x="134" y="790"/>
			<point x="155.6" y="780.4"/>
			<point x="170" y="764.4" type="curve"/>
			<point x="164" y="766.8"/>
			<point x="157.2" y="768"/>
			<point x="150" y="768" type="curve" smooth="yes"/>
			<point x="117.6" y="768"/>
			<point x="90" y="740.4"/>
			<point x="90" y="708" type="curve" smooth="yes"/>
			<point x="90" y="675.6"/>
			<point x="117.6" y="648"/>
			<point x="150" y="648" type="curve" smooth="yes"/>
			<point x="182.4" y="648"/>
			<point x="210" y="675.6"/>
			<point x="210" y="708" type="curve" smooth="yes"/>
			<point x="210" y="766.4"/>
			<point x="166.4" y="810"/>
			<point x="108" y="810" type="curve" smooth="yes"/>
			<point x="92" y="810" type="line" smooth="yes"/>
			<point x="33.6" y="810"/>
			<point x="-10" y="766.4"/>
			<point x="-10" y="708" type="curve" smooth="yes"/>
			<point x="-10" y="592" type="line" smooth="yes"/>
			<point x="-10" y="586.4"/>
			<point x="-5.6" y="582"/>
		</contour>
		<contour>
			<point x="150" y="668" type="curve" smooth="yes"/>
			<point x="127.2" y="668"/>
			<point x="110" y="685.2"/>
			<point x="110" y="708" type="curve" smooth="yes"/>
			<point x="110" y="730.8"/>
			<point x="127.2" y="748"/>
			<point x="150" y="748" type="curve" smooth="yes"/>
			<point x="172.8" y="748"/>
			<point x="190" y="730.8"/>
			<point x="190" y="708" type="curve" smooth="yes"/>
			<point x="190" y="685.2"/>
			<point x="172.8" y="668"/>
		</contour>
	</outline>
</glyph>
<glyph name="eMatra-tamil" format="2">
	<advance width="420"/>
	<unicode hex="0BC6"/>
	<outline>
		<contour>
			<point x="395.2" y="-10" type="curve" smooth="yes"/>
			<point x="400.4" y="-10"/>
			<point x="405.2" y="-5.6"/>
			<point x="405.2" y="0" type="curve" smooth="yes"/>
			<point x="405.2" y="447.2" type="line" smooth="yes"/>
			<point x="405.2" y="540.4"/>
			<point x="335.2" y="610"/>
			<point x="242" y="610" type="curve" smooth="yes"/>
			<point x="229.2" y="610" type="line" smooth="yes"/>
			<point x="105.6" y="610"/>
			<point x="15.2" y="519.2"/>
			<point x="15.2" y="396" type="curve" smooth="yes"/>
			<point x="15.2" y="148" type="line" smooth="yes"/>
			<point x="15.2" y="86.8"/>
			<point x="57.2" y="40"/>
			<point x="115.2" y="40" type="curve" smooth="yes"/>
			<point x="173.6" y="40"/>
			<point x="215.2" y="87.2"/>
			<point x="215.2" y="148" type="curve" smooth="yes"/>
			<point x="215.2" y="192" type="line" smooth="yes"/>
			<point x="215.2" y="253.2"/>
			<point x="172.8" y="300"/>
			<point x="115.2" y="300" type="curve" smooth="yes"/>
			<point x="81.2" y="300"/>
			<point x="52.8" y="284"/>
			<point x="35.2" y="258.4" type="curve"/>
			<point x="35.2" y="396" type="line" smooth="yes"/>
			<point x="35.2" y="510"/>
			<point x="115.2" y="590"/>
			<point x="229.2" y="590" type="curve" smooth="yes"/>
			<point x="242" y="590" type="line" smooth="yes"/>
			<point x="326" y="590"/>
			<point x="385.2" y="530.8"/>
			<point x="385.2" y="447.2" type="curve" smooth="yes"/>
			<point x="385.2" y="0" type="line" smooth="yes"/>
			<point x="385.2" y="-5.6"/>
			<point x="389.6" y="-10"/>
		</contour>
		<contour>
			<point x="115.2" y="60" type="curve" smooth="yes"/>
			<point x="67.6" y="60"/>
			<point x="35.2" y="96"/>
			<point x="35.2" y="148" type="curve" smooth="yes"/>
			<point x="35.2" y="192" type="line" smooth="yes"/>
			<point x="35.2" y="244"/>
			<point x="67.6" y="280"/>
			<point x="115.2" y="280" type="curve" smooth="yes"/>
			<point x="162.4" y="280"/>
			<point x="195.2" y="244"/>
			<point x="195.2" y="192" type="curve" smooth="yes"/>
			<point x="195.2" y="148" type="line" smooth="yes"/>
			<point x="195.2" y="95.6"/>
			<point x="163.6" y="60"/>
		</contour>
	</outline>
</glyph>
<glyph name="eeMatra-tamil" format="2">
	<advance width="352"/>
	<unicode hex="0BC7"/>
	<outline>
		<contour>
			<point x="172" y="-10" type="curve" smooth="yes"/>
			<point x="252" y="-10" type="line" smooth="yes"/>
			<point x="301.6" y="-10"/>
			<point x="337.2" y="30"/>
			<point x="337.2" y="82" type="curve" smooth="yes"/>
			<point x="337.2" y="118" type="line" smooth="yes"/>
			<point x="337.2" y="170"/>
			<point x="300.8" y="210"/>
			<point x="252" y="210" type="curve" smooth="yes"/>
			<point x="203.2" y="210"/>
			<point x="167.2" y="170"/>
			<point x="167.2" y="118" type="curve" smooth="yes"/>
			<point x="167.2" y="82" type="line" smooth="yes"/>
			<point x="167.2" y="52.4"/>
			<point x="178.8" y="26.8"/>
			<point x="198" y="10" type="curve"/>
			<point x="172" y="10" type="line" smooth="yes"/>
			<point x="106" y="10"/>
			<point x="60" y="55.19912"/>
			<point x="60" y="122" type="curve" smooth="yes"/>
			<point x="60" y="478" type="line" smooth="yes"/>
			<point x="60" y="544.8"/>
			<point x="105.2" y="590"/>
			<point x="172" y="590" type="curve" smooth="yes"/>
			<point x="198" y="590" type="line"/>
			<point x="178.8" y="573.2"/>
			<point x="167.2" y="547.6"/>
			<point x="167.2" y="518" type="curve" smooth="yes"/>
			<point x="167.2" y="482" type="line" smooth="yes"/>
			<point x="167.2" y="430"/>
			<point x="203.2" y="390"/>
			<point x="252" y="390" type="curve" smooth="yes"/>
			<point x="301.6" y="390"/>
			<point x="337.2" y="430"/>
			<point x="337.2" y="482" type="curve" smooth="yes"/>
			<point x="337.2" y="518" type="line" smooth="yes"/>
			<point x="337.2" y="570"/>
			<point x="300.8" y="610"/>
			<point x="252" y="610" type="curve" smooth="yes"/>
			<point x="172" y="610" type="line" smooth="yes"/>
			<point x="95.6" y="610"/>
			<point x="40" y="554.4"/>
			<point x="40" y="478" type="curve" smooth="yes"/>
			<point x="40" y="122" type="line" smooth="yes"/>
			<point x="40" y="45.60088"/>
			<point x="96.8" y="-10"/>
		</contour>
		<contour>
			<point x="252" y="10" type="curve" smooth="yes"/>
			<point x="213.6" y="10"/>
			<point x="187.2" y="38.8"/>
			<point x="187.2" y="82" type="curve" smooth="yes"/>
			<point x="187.2" y="118" type="line" smooth="yes"/>
			<point x="187.2" y="161.2"/>
			<point x="213.6" y="190"/>
			<point x="252" y="190" type="curve" smooth="yes"/>
			<point x="290.4" y="190"/>
			<point x="317.2" y="161.2"/>
			<point x="317.2" y="118" type="curve" smooth="yes"/>
			<point x="317.2" y="82" type="line" smooth="yes"/>
			<point x="317.2" y="38.8"/>
			<point x="291.6" y="10"/>
		</contour>
		<contour>
			<point x="252" y="410" type="curve" smooth="yes"/>
			<point x="213.6" y="410"/>
			<point x="187.2" y="438.8"/>
			<point x="187.2" y="482" type="curve" smooth="yes"/>
			<point x="187.2" y="518" type="line" smooth="yes"/>
			<point x="187.2" y="561.2"/>
			<point x="213.6" y="590"/>
			<point x="252" y="590" type="curve" smooth="yes"/>
			<point x="290.4" y="590"/>
			<point x="317.2" y="561.2"/>
			<point x="317.2" y="518" type="curve" smooth="yes"/>
			<point x="317.2" y="482" type="line" smooth="yes"/>
			<point x="317.2" y="438.8"/>
			<point x="291.6" y="410"/>
		</contour>
	</outline>
</glyph>
<glyph name="aiMatra-tamil" format="2">
	<advance width="687"/>
	<unicode hex="0BC8"/>
	<outline>
		<contour>
			<point x="170" y="-10" type="curve" smooth="yes"/>
			<point x="172" y="-10" type="line" smooth="yes"/>
			<point x="220.8" y="-8.8"/>
			<point x="255.2" y="30.8"/>
			<point x="255.2" y="82" type="curve" smooth="yes"/>
			<point x="255.2" y="118" type="line" smooth="yes"/>
			<point x="255.2" y="170"/>
			<point x="218.8" y="210"/>
			<point x="170" y="210" type="curve" smooth="yes"/>
			<point x="121.2" y="210"/>
			<point x="85.2" y="170"/>
			<point x="85.2" y="118" type="curve" smooth="yes"/>
			<point x="85.2" y="82" type="line" smooth="yes"/>
			<point x="85.2" y="65.6"/>
			<point x="88.4" y="50.4"/>
			<point x="94.8" y="37.6" type="curve"/>
			<point x="72.8" y="57.2"/>
			<point x="60" y="86.4"/>
			<point x="60" y="122" type="curve" smooth="yes"/>
			<point x="60" y="416" type="line" smooth="yes"/>
			<point x="60" y="518"/>
			<point x="132" y="590"/>
			<point x="234" y="590" type="curve" smooth="yes"/>
			<point x="330" y="590" type="line"/>
			<point x="306.4" y="572.4"/>
			<point x="292" y="544"/>
			<point x="292" y="511.2" type="curve" smooth="yes"/>
			<point x="292" y="89.2" type="line" smooth="yes"/>
			<point x="292" y="32.8"/>
			<point x="333.6" y="-10"/>
			<point x="389.2" y="-10" type="curve" smooth="yes"/>
			<point x="444.4" y="-10"/>
			<point x="487.2" y="32.8"/>
			<point x="487.2" y="89.2" type="curve" smooth="yes"/>
			<point x="487.2" y="511.2" type="line" smooth="yes"/>
			<point x="487.2" y="544"/>
			<point x="472.8" y="572"/>
			<point x="450" y="590" type="curve"/>
			<point x="515.2" y="590" type="line" smooth="yes"/>
			<point x="582" y="590"/>
			<point x="627.2" y="544.8"/>
			<point x="627.2" y="478" type="curve" smooth="yes"/>
			<point x="627.2" y="122" type="line" smooth="yes"/>
			<point x="627.2" y="55.2"/>
			<point x="582" y="10"/>
			<point x="515.2" y="10" type="curve" smooth="yes"/>
			<point x="503.2" y="10" type="line" smooth="yes"/>
			<point x="497.6" y="10"/>
			<point x="493.2" y="5.6"/>
			<point x="493.2" y="0" type="curve" smooth="yes"/>
			<point x="493.2" y="-5.6"/>
			<point x="497.6" y="-10"/>
			<point x="503.2" y="-10" type="curve" smooth="yes"/>
			<point x="515.2" y="-10" type="line" smooth="yes"/>
			<point x="591.2" y="-10"/>
			<point x="647.2" y="45.6"/>
			<point x="647.2" y="122" type="curve" smooth="yes"/>
			<point x="647.2" y="478" type="line" smooth="yes"/>
			<point x="647.2" y="554.4"/>
			<point x="591.2" y="610"/>
			<point x="515.2" y="610" type="curve" smooth="yes"/>
			<point x="234" y="610" type="line" smooth="yes"/>
			<point x="122.8" y="610"/>
			<point x="40" y="527.2"/>
			<point x="40" y="416" type="curve" smooth="yes"/>
			<point x="40" y="122" type="line" smooth="yes"/>
			<point x="40" y="48.4"/>
			<point x="92.4" y="-6"/>
			<point x="163.6" y="-9.6" type="curve" smooth="yes"/>
			<point x="165.6" y="-10"/>
			<point x="168" y="-10"/>
		</contour>
		<contour>
			<point x="164.4" y="10" type="line" smooth="yes"/>
			<point x="128.8" y="12.8"/>
			<point x="105.2" y="40.8"/>
			<point x="105.2" y="82" type="curve" smooth="yes"/>
			<point x="105.2" y="118" type="line" smooth="yes"/>
			<point x="105.2" y="161.2"/>
			<point x="131.6" y="190"/>
			<point x="170" y="190" type="curve" smooth="yes"/>
			<point x="208.4" y="190"/>
			<point x="235.2" y="161.2"/>
			<point x="235.2" y="118" type="curve" smooth="yes"/>
			<point x="235.2" y="82" type="line" smooth="yes"/>
			<point x="235.2" y="39.2"/>
			<point x="210" y="10.4"/>
			<point x="170.8" y="10" type="curve" smooth="yes"/>
		</contour>
		<contour>
			<point x="389.2" y="10" type="curve" smooth="yes"/>
			<point x="343.2" y="10"/>
			<point x="312" y="42"/>
			<point x="312" y="89.2" type="curve" smooth="yes"/>
			<point x="312" y="511.2" type="line" smooth="yes"/>
			<point x="312" y="558"/>
			<point x="344" y="590"/>
			<point x="391.2" y="590" type="curve" smooth="yes"/>
			<point x="435.6" y="590"/>
			<point x="467.2" y="558"/>
			<point x="467.2" y="511.2" type="curve" smooth="yes"/>
			<point x="467.2" y="89.2" type="line" smooth="yes"/>
			<point x="467.2" y="42"/>
			<point x="434.8" y="10"/>
		</contour>
	</outline>
</glyph>
<glyph name="pulli-tamil" format="2">
	<advance width="120"/>
	<unicode hex="0BCD"/>
	<anchor x="60" y="600" name="_top"/>
	<outline>
		<contour>
			<point x="60" y="670" type="curve" smooth="yes"/>
			<point x="97.2" y="670"/>
			<point x="130" y="702.8"/>
			<point x="130" y="740" type="curve" smooth="yes"/>
			<point x="130" y="777.2"/>
			<point x="97.2" y="810"/>
			<point x="60" y="810" type="curve" smooth="yes"/>
			<point x="22.8" y="810"/>
			<point x="-10" y="777.2"/>
			<point x="-10" y="740" type="curve" smooth="yes"/>
			<point x="-10" y="702.8"/>
			<point x="22.8" y="670"/>
		</contour>
		<contour>
			<point x="60" y="690" type="curve" smooth="yes"/>
			<point x="32" y="690"/>
			<point x="10" y="712"/>
			<point x="10" y="740" type="curve" smooth="yes"/>
			<point x="10" y="768"/>
			<point x="32" y="790"/>
			<point x="60" y="790" type="curve" smooth="yes"/>
			<point x="88" y="790"/>
			<point x="110" y="768"/>
			<point x="110" y="740" type="curve" smooth="yes"/>
			<point x="110" y="712"/>
			<point x="88" y="690"/>
		</contour>
	</outline>
</glyph>
<glyph name="auLength-tamil" format="2">
	<advance width="597"/>
	<unicode hex="0BD7"/>
	<anchor x="472" y="600" name="imatra"/>
	<anchor x="289" y="600" name="top"/>
	<outline>
		<contour>
			<point x="145.2" y="-10" type="curve" smooth="yes"/>
			<point x="147.2" y="-10" type="line" smooth="yes"/>
			<point x="195.6" y="-8.8"/>
			<point x="230" y="30.8"/>
			<point x="230" y="82" type="curve" smooth="yes"/>
			<point x="230" y="118" type="line" smooth="yes"/>
			<point x="230" y="170"/>
			<point x="193.6" y="210"/>
			<point x="145.2" y="210" type="curve" smooth="yes"/>
			<point x="96.4" y="210"/>
			<point x="60" y="170"/>
			<point x="60" y="118" type="curve" smooth="yes"/>
			<point x="60" y="82" type="line" smooth="yes"/>
			<point x="60" y="65.6"/>
			<point x="63.6" y="50.4"/>
			<point x="70" y="37.6" type="curve"/>
			<point x="48" y="57.2"/>
			<point x="35.2" y="86.4"/>
			<point x="35.2" y="122" type="curve" smooth="yes"/>
			<point x="35.2" y="478" type="line" smooth="yes"/>
			<point x="35.2" y="544.8"/>
			<point x="80" y="590"/>
			<point x="147.2" y="590" type="curve" smooth="yes"/>
			<point x="171.2" y="590" type="line" smooth="yes"/>
			<point x="235.2" y="590"/>
			<point x="282" y="547.6"/>
			<point x="282" y="473.2" type="curve" smooth="yes"/>
			<point x="282" y="200" type="line" smooth="yes"/>
			<point x="282" y="194.4"/>
			<point x="286.4" y="190"/>
			<point x="292" y="190" type="curve" smooth="yes"/>
			<point x="297.6" y="190"/>
			<point x="302" y="194.4"/>
			<point x="302" y="200" type="curve" smooth="yes"/>
			<point x="302" y="590" type="line"/>
			<point x="462" y="590" type="line"/>
			<point x="462" y="0" type="line" smooth="yes"/>
			<point x="462" y="-5.6"/>
			<point x="466.4" y="-10"/>
			<point x="472" y="-10" type="curve" smooth="yes"/>
			<point x="477.6" y="-10"/>
			<point x="482" y="-5.6"/>
			<point x="482" y="0" type="curve" smooth="yes"/>
			<point x="482" y="590" type="line"/>
			<point x="572" y="590" type="line" smooth="yes"/>
			<point x="577.6" y="590"/>
			<point x="582" y="594.4"/>
			<point x="582" y="600" type="curve" smooth="yes"/>
			<point x="582" y="605.6"/>
			<point x="577.6" y="610"/>
			<point x="572" y="610" type="curve" smooth="yes"/>
			<point x="292" y="610" type="line" smooth="yes"/>
			<point x="285.6" y="610"/>
			<point x="282" y="606.4"/>
			<point x="282" y="600" type="curve" smooth="yes"/>
			<point x="282" y="550" type="line"/>
			<point x="258.8" y="588.4"/>
			<point x="218" y="610"/>
			<point x="171.2" y="610" type="curve" smooth="yes"/>
			<point x="147.2" y="610" type="line" smooth="yes"/>
			<point x="70.8" y="610"/>
			<point x="15.2" y="554.4"/>
			<point x="15.2" y="478" type="curve" smooth="yes"/>
			<point x="15.2" y="122" type="line" smooth="yes"/>
			<point x="15.2" y="48.4"/>
			<point x="67.6" y="-6"/>
			<point x="138.8" y="-9.6" type="curve" smooth="yes"/>
			<point x="140.8" y="-10"/>
			<point x="142.8" y="-10"/>
		</contour>
		<contour>
			<point x="139.6" y="10" type="line" smooth="yes"/>
			<point x="104" y="12.8"/>
			<point x="80" y="40.8"/>
			<point x="80" y="82" type="curve" smooth="yes"/>
			<point x="80" y="118" type="line" smooth="yes"/>
			<point x="80" y="161.2"/>
			<point x="106.4" y="190"/>
			<point x="145.2" y="190" type="curve" smooth="yes"/>
			<point x="183.6" y="190"/>
			<point x="210" y="161.2"/>
			<point x="210" y="118" type="curve" smooth="yes"/>
			<point x="210" y="82" type="line" smooth="yes"/>
			<point x="210" y="39.2"/>
			<point x="184.8" y="10.4"/>
			<point x="146" y="10" type="curve" smooth="yes"/>
		</contour>
	</outline>
</glyph>
<glyph name="zero-tamil" format="2">
	<advance width="430"/>
	<unicode hex="0BE6"/>
	<outline>
		<contour>
			<point x="203.2" y="-10" type="curve" smooth="yes"/>
			<point x="227.2" y="-10" type="line" smooth="yes"/>
			<point x="320.4" y="-10"/>
			<point x="390" y="59.6"/>
			<point x="390" y="153.2" type="curve" smooth="yes"/>
			<point x="390" y="447.2" type="line" smooth="yes"/>
			<point x="390" y="540.4"/>
			<point x="320.4" y="610"/>
			<point x="227.2" y="610" type="curve" smooth="yes"/>
			<point x="203.2" y="610" type="line" smooth="yes"/>
			<point x="109.6" y="610"/>
			<point x="40" y="540.4"/>
			<point x="40" y="447.2" type="curve" smooth="yes"/>
			<point x="40" y="153.2" type="line" smooth="yes"/>
			<point x="40" y="59.6"/>
			<point x="109.6" y="-10"/>
		</contour>
		<contour>
			<point x="203.2" y="10" type="line" smooth="yes"/>
			<point x="119.2" y="10"/>
			<point x="60" y="69.2"/>
			<point x="60" y="153.2" type="curve" smooth="yes"/>
			<point x="60" y="447.2" type="line" smooth="yes"/>
			<point x="60" y="530.8"/>
			<point x="119.2" y="590"/>
			<point x="203.2" y="590" type="curve" smooth="yes"/>
			<point x="227.2" y="590" type="line" smooth="yes"/>
			<point x="310.8" y="590"/>
			<point x="370" y="530.8"/>
			<point x="370" y="447.2" type="curve" smooth="yes"/>
			<point x="370" y="153.2" type="line" smooth="yes"/>
			<point x="370" y="69.2"/>
			<point x="310.8" y="10"/>
			<point x="227.2" y="10" type="curve" smooth="yes"/>
		</contour>
	</outline>
</glyph>
<glyph name="one-tamil" format="2">
	<advance width="460"/>
	<unicode hex="0BE7"/>
	<outline>
		<contour>
			<point x="150" y="-10" type="curve" smooth="yes"/>
			<point x="178" y="-10"/>
			<point x="202.8" y="-0.8"/>
			<point x="221.6" y="15.2" type="curve"/>
			<point x="222.4" y="13.2"/>
			<point x="224" y="11.6"/>
			<point x="226" y="10.4" type="curve"/>
			<point x="226.4" y="10.4" type="line"/>
			<point x="248" y="-2.4"/>
			<point x="273.6" y="-10"/>
			<point x="300" y="-10" type="curve" smooth="yes"/>
			<point x="392" y="-10"/>
			<point x="420" y="74.4"/>
			<point x="420" y="175.2" type="curve" smooth="yes"/>
			<point x="420" y="275.6"/>
			<point x="392" y="360"/>
			<point x="290" y="360" type="curve" smooth="yes"/>
			<point x="260" y="360" type="line"/>
			<point x="260" y="590" type="line"/>
			<point x="360" y="590" type="line" smooth="yes"/>
			<point x="365.6" y="590"/>
			<point x="370" y="594.4"/>
			<point x="370" y="600" type="curve" smooth="yes"/>
			<point x="370" y="605.6"/>
			<point x="365.6" y="610"/>
			<point x="360" y="610" type="curve" smooth="yes"/>
			<point x="130" y="610" type="line" smooth="yes"/>
			<point x="123.6" y="610"/>
			<point x="120" y="606.4"/>
			<point x="120" y="600" type="curve" smooth="yes"/>
			<point x="120" y="357.2" type="line"/>
			<point x="75.6" y="346.4"/>
			<point x="40" y="303.6"/>
			<point x="40" y="248" type="curve" smooth="yes"/>
			<point x="40" y="102" type="line" smooth="yes"/>
			<point x="40" y="37.6"/>
			<point x="86.4" y="-10"/>
		</contour>
		<contour>
			<point x="150" y="10" type="curve" smooth="yes"/>
			<point x="96.4" y="10"/>
			<point x="60" y="47.2"/>
			<point x="60" y="102" type="curve" smooth="yes"/>
			<point x="60" y="248" type="line" smooth="yes"/>
			<point x="60" y="302.8"/>
			<point x="97.2" y="340"/>
			<point x="142" y="340" type="curve" smooth="yes"/>
			<point x="240" y="340" type="line"/>
			<point x="240" y="102" type="line" smooth="yes"/>
			<point x="240" y="47.2"/>
			<point x="203.6" y="10"/>
		</contour>
		<contour>
			<point x="300" y="10" type="curve" smooth="yes"/>
			<point x="276.4" y="10"/>
			<point x="256" y="16.4"/>
			<point x="236" y="27.6" type="curve" smooth="yes"/>
			<point x="235.6" y="28"/>
			<point x="235.2" y="28"/>
			<point x="234.4" y="28.4" type="curve"/>
			<point x="250.8" y="47.6"/>
			<point x="260" y="73.2"/>
			<point x="260" y="102" type="curve" smooth="yes"/>
			<point x="260" y="340" type="line"/>
			<point x="290" y="340" type="line" smooth="yes"/>
			<point x="376.8" y="340"/>
			<point x="400" y="271.2"/>
			<point x="400" y="175.2" type="curve" smooth="yes"/>
			<point x="400" y="78.8"/>
			<point x="376.8" y="10"/>
		</contour>
		<contour>
			<point x="140" y="360" type="line"/>
			<point x="140" y="590" type="line"/>
			<point x="240" y="590" type="line"/>
			<point x="240" y="360" type="line"/>
		</contour>
	</outline>
</glyph>
<glyph name="two-tamil" format="2">
	<advance width="520"/>
	<unicode hex="0BE8"/>
	<outline>
		<contour>
			<point x="110" y="-10" type="curve" smooth="yes"/>
			<point x="470" y="-10" type="line" smooth="yes"/>
			<point x="475.6" y="-10"/>
			<point x="480" y="-5.6"/>
			<point x="480" y="0" type="curve" smooth="yes"/>
			<point x="480" y="5.6"/>
			<point x="475.6" y="10"/>
			<point x="470" y="10" type="curve" smooth="yes"/>
			<point x="110" y="10" type="line" smooth="yes"/>
			<point x="85.2" y="10"/>
			<point x="69.2" y="25.2"/>
			<point x="69.2" y="50" type="curve" smooth="yes"/>
			<point x="69.2" y="74.8"/>
			<point x="85.2" y="90"/>
			<point x="110" y="90" type="curve" smooth="yes"/>
			<point x="198" y="90" type="line" smooth="yes"/>
			<point x="274.4" y="90"/>
			<point x="330" y="145.6"/>
			<point x="330" y="222" type="curve" smooth="yes"/>
			<point x="330" y="478" type="line" smooth="yes"/>
			<point x="330" y="554.4"/>
			<point x="274.4" y="610"/>
			<point x="198" y="610" type="curve" smooth="yes"/>
			<point x="172" y="610" type="line" smooth="yes"/>
			<point x="95.6" y="610"/>
			<point x="40" y="554.4"/>
			<point x="40" y="478" type="curve" smooth="yes"/>
			<point x="40" y="278" type="line" smooth="yes"/>
			<point x="40" y="226"/>
			<point x="76.4" y="186"/>
			<point x="125.2" y="186" type="curve" smooth="yes"/>
			<point x="174.8" y="186"/>
			<point x="210" y="226"/>
			<point x="210" y="278" type="curve" smooth="yes"/>
			<point x="210" y="314" type="line" smooth="yes"/>
			<point x="210" y="366"/>
			<point x="173.6" y="406"/>
			<point x="125.2" y="406" type="curve" smooth="yes"/>
			<point x="98.4" y="406"/>
			<point x="75.2" y="394"/>
			<point x="60" y="374.4" type="curve"/>
			<point x="60" y="478" type="line" smooth="yes"/>
			<point x="60" y="544.8"/>
			<point x="105.2" y="590"/>
			<point x="172" y="590" type="curve" smooth="yes"/>
			<point x="198" y="590" type="line" smooth="yes"/>
			<point x="264.8" y="590"/>
			<point x="310" y="544.8"/>
			<point x="310" y="478" type="curve" smooth="yes"/>
			<point x="310" y="222" type="line" smooth="yes"/>
			<point x="310" y="155.2"/>
			<point x="264.8" y="110"/>
			<point x="198" y="110" type="curve" smooth="yes"/>
			<point x="110" y="110" type="line" smooth="yes"/>
			<point x="75.6" y="110"/>
			<point x="49.2" y="84.4"/>
			<point x="49.2" y="50" type="curve" smooth="yes"/>
			<point x="49.2" y="15.6"/>
			<point x="75.6" y="-10"/>
		</contour>
		<contour>
			<point x="125.2" y="206" type="curve" smooth="yes"/>
			<point x="86.4" y="206"/>
			<point x="60" y="234.8"/>
			<point x="60" y="278" type="curve" smooth="yes"/>
			<point x="60" y="314" type="line" smooth="yes"/>
			<point x="60" y="357.2"/>
			<point x="86.4" y="386"/>
			<point x="125.2" y="386" type="curve" smooth="yes"/>
			<point x="163.6" y="386"/>
			<point x="190" y="357.2"/>
			<point x="190" y="314" type="curve" smooth="yes"/>
			<point x="190" y="278" type="line" smooth="yes"/>
			<point x="190" y="234.8"/>
			<point x="164.4" y="206"/>
		</contour>
	</outline>
</glyph>
<glyph name="three-tamil" format="2">
	<advance width="560"/>
	<unicode hex="0BE9"/>
	<outline>
		<contour>
			<point x="252" y="-12" type="line"/>
			<point x="258.8" y="-12" type="line"/>
			<point x="510" y="-10" type="line" smooth="yes"/>
			<point x="515.6" y="-10"/>
			<point x="520" y="-5.6"/>
			<point x="520" y="0" type="curve" smooth="yes"/>
			<point x="520" y="5.6"/>
			<point x="515.6" y="10"/>
			<point x="510" y="10" type="curve" smooth="yes"/>
			<point x="358" y="8.8" type="line"/>
			<point x="405.6" y="34.8"/>
			<point x="420" y="84.4"/>
			<point x="420" y="155.2" type="curve" smooth="yes"/>
			<point x="420" y="292"/>
			<point x="420" y="355.2"/>
			<point x="311.2" y="355.2" type="curve" smooth="yes"/>
			<point x="277.2" y="355.2"/>
			<point x="254.4" y="343.2"/>
			<point x="240" y="325.2" type="curve"/>
			<point x="240" y="590" type="line"/>
			<point x="360" y="590" type="line" smooth="yes"/>
			<point x="365.6" y="590"/>
			<point x="370" y="594.4"/>
			<point x="370" y="600" type="curve" smooth="yes"/>
			<point x="370" y="605.6"/>
			<point x="365.6" y="610"/>
			<point x="360" y="610" type="curve" smooth="yes"/>
			<point x="50" y="610" type="line" smooth="yes"/>
			<point x="43.6" y="610"/>
			<point x="40" y="606.4"/>
			<point x="40" y="600" type="curve" smooth="yes"/>
			<point x="40" y="0" type="line" smooth="yes"/>
			<point x="40" y="-5.6"/>
			<point x="44.4" y="-10"/>
			<point x="50" y="-10" type="curve" smooth="yes"/>
			<point x="55.6" y="-10"/>
			<point x="60" y="-5.6"/>
			<point x="60" y="0" type="curve" smooth="yes"/>
			<point x="60" y="590" type="line"/>
			<point x="220" y="590" type="line"/>
			<point x="220" y="150" type="line" smooth="yes"/>
			<point x="220" y="144.4"/>
			<point x="224.4" y="140"/>
			<point x="230" y="140" type="curve" smooth="yes"/>
			<point x="235.6" y="140"/>
			<point x="240" y="144.4"/>
			<point x="240" y="150" type="curve" smooth="yes"/>
			<point x="240" y="260" type="line" smooth="yes"/>
			<point x="240" y="302.4"/>
			<point x="257.2" y="335.2"/>
			<point x="311.2" y="335.2" type="curve" smooth="yes"/>
			<point x="400" y="335.2"/>
			<point x="400" y="292"/>
			<point x="400" y="155.2" type="curve" smooth="yes"/>
			<point x="400" y="55.6"/>
			<point x="374.4" y="10"/>
			<point x="259.2" y="8" type="curve" smooth="yes"/>
			<point x="255.2" y="8"/>
			<point x="252" y="4.4"/>
			<point x="252" y="-2" type="curve" smooth="yes"/>
		</contour>
	</outline>
</glyph>
<glyph name="four-tamil" format="2">
	<advance width="410"/>
	<unicode hex="0BEA"/>
	<anchor x="205" y="600" name="imatra"/>
	<anchor x="205" y="600" name="top"/>
	<outline>
		<contour>
			<point x="150" y="-10" type="curve" smooth="yes"/>
			<point x="213.6" y="-10"/>
			<point x="260" y="37.6"/>
			<point x="260" y="102" type="curve" smooth="yes"/>
			<point x="260" y="340" type="line"/>
			<point x="360" y="340" type="line" smooth="yes"/>
			<point x="365.6" y="340"/>
			<point x="370" y="344.4"/>
			<point x="370" y="350" type="curve" smooth="yes"/>
			<point x="370" y="500" type="line" smooth="yes"/>
			<point x="370" y="505.6"/>
			<point x="365.6" y="510"/>
			<point x="360" y="510" type="curve" smooth="yes"/>
			<point x="354.4" y="510"/>
			<point x="350" y="505.6"/>
			<point x="350" y="500" type="curve" smooth="yes"/>
			<point x="350" y="360" type="line"/>
			<point x="260" y="360" type="line"/>
			<point x="260" y="590" type="line"/>
			<point x="360" y="590" type="line" smooth="yes"/>
			<point x="365.6" y="590"/>
			<point x="370" y="594.4"/>
			<point x="370" y="600" type="curve" smooth="yes"/>
			<point x="370" y="605.6"/>
			<point x="365.6" y="610"/>
			<point x="360" y="610" type="curve" smooth="yes"/>
			<point x="130" y="610" type="line" smooth="yes"/>
			<point x="123.6" y="610"/>
			<point x="120" y="606.4"/>
			<point x="120" y="600" type="curve" smooth="yes"/>
			<point x="120" y="357.2" type="line"/>
			<point x="75.6" y="346.4"/>
			<point x="40" y="303.6"/>
			<point x="40" y="248" type="curve" smooth="yes"/>
			<point x="40" y="102" type="line" smooth="yes"/>
			<point x="40" y="37.6"/>
			<point x="86.4" y="-10"/>
		</contour>
		<contour>
			<point x="150" y="10" type="curve" smooth="yes"/>
			<point x="96.4" y="10"/>
			<point x="60" y="47.2"/>
			<point x="60" y="102" type="curve" smooth="yes"/>
			<point x="60" y="248" type="line" smooth="yes"/>
			<point x="60" y="302.8"/>
			<point x="97.2" y="340"/>
			<point x="142" y="340" type="curve" smooth="yes"/>
			<point x="240" y="340" type="line"/>
			<point x="240" y="102" type="line" smooth="yes"/>
			<point x="240" y="47.2"/>
			<point x="203.6" y="10"/>
		</contour>
		<contour>
			<point x="140" y="360" type="line"/>
			<point x="140" y="590" type="line"/>
			<point x="240" y="590" type="line"/>
			<point x="240" y="360" type="line"/>
		</contour>
	</outline>
</glyph>
<glyph name="five-tamil" format="2">
	<advance width="560"/>
	<unicode hex="0BEB"/>
	<outline>
		<contour>
			<point x="203.2" y="-150" type="curve" smooth="yes"/>
			<point x="352" y="-150" type="line" smooth="yes"/>
			<point x="485.2" y="-150"/>
			<point x="520" y="-92"/>
			<point x="520" y="97.2" type="curve" smooth="yes"/>
			<point x="520" y="264"/>
			<point x="520" y="327.2"/>
			<point x="411.2" y="327.2" type="curve" smooth="yes"/>
			<point x="377.2" y="327.2"/>
			<point x="354.4" y="315.2"/>
			<point x="340" y="297.2" type="curve"/>
			<point x="340" y="590" type="line"/>
			<point x="420" y="590" type="line" smooth="yes"/>
			<point x="425.6" y="590"/>
			<point x="430" y="594.4"/>
			<point x="430" y="600" type="curve" smooth="yes"/>
			<point x="430" y="605.6"/>
			<point x="425.6" y="610"/>
			<point x="420" y="610" type="curve" smooth="yes"/>
			<point x="150" y="610" type="line" smooth="yes"/>
			<point x="143.6" y="610"/>
			<point x="140" y="606.4"/>
			<point x="140" y="600" type="curve" smooth="yes"/>
			<point x="140" y="100" type="line" smooth="yes"/>
			<point x="140" y="94.4"/>
			<point x="144.4" y="90"/>
			<point x="150" y="90" type="curve" smooth="yes"/>
			<point x="155.6" y="90"/>
			<point x="160" y="94.4"/>
			<point x="160" y="100" type="curve" smooth="yes"/>
			<point x="160" y="590" type="line"/>
			<point x="320" y="590" type="line"/>
			<point x="320" y="160" type="line" smooth="yes"/>
			<point x="320" y="154.4"/>
			<point x="324.4" y="150"/>
			<point x="330" y="150" type="curve" smooth="yes"/>
			<point x="335.6" y="150"/>
			<point x="340" y="154.4"/>
			<point x="340" y="160" type="curve" smooth="yes"/>
			<point x="340" y="232" type="line" smooth="yes"/>
			<point x="340" y="274.4"/>
			<point x="357.2" y="307.2"/>
			<point x="411.2" y="307.2" type="curve" smooth="yes"/>
			<point x="500" y="307.2"/>
			<point x="500" y="264"/>
			<point x="500" y="97.2" type="curve" smooth="yes"/>
			<point x="500" y="-84.4"/>
			<point x="473.2" y="-130"/>
			<point x="352" y="-130" type="curve" smooth="yes"/>
			<point x="203.2" y="-130" type="line" smooth="yes"/>
			<point x="119.2" y="-130"/>
			<point x="60" y="-70.8"/>
			<point x="60" y="13.2" type="curve" smooth="yes"/>
			<point x="60" y="627.2" type="line" smooth="yes"/>
			<point x="60" y="710.8"/>
			<point x="119.2" y="770"/>
			<point x="203.2" y="770" type="curve" smooth="yes"/>
			<point x="357.2" y="770" type="line" smooth="yes"/>
			<point x="440.8" y="770"/>
			<point x="500" y="710.8"/>
			<point x="500" y="627.2" type="curve" smooth="yes"/>
			<point x="500" y="550" type="line" smooth="yes"/>
			<point x="500" y="544.4"/>
			<point x="504.4" y="540"/>
			<point x="510" y="540" type="curve" smooth="yes"/>
			<point x="515.6" y="540"/>
			<point x="520" y="544.4"/>
			<point x="520" y="550" type="curve" smooth="yes"/>
			<point x="520" y="627.2" type="line" smooth="yes"/>
			<point x="520" y="720.4"/>
			<point x="450.4" y="790"/>
			<point x="357.2" y="790" type="curve" smooth="yes"/>
			<point x="203.2" y="790" type="line" smooth="yes"/>
			<point x="109.6" y="790"/>
			<point x="40" y="720.4"/>
			<point x="40" y="627.2" type="curve" smooth="yes"/>
			<point x="40" y="13.2" type="line" smooth="yes"/>
			<point x="40" y="-80.4"/>
			<point x="109.6" y="-150"/>
		</contour>
	</outline>
</glyph>
<glyph name="seven-tamil" format="2">
	<advance width="540"/>
	<unicode hex="0BED"/>
	<outline>
		<contour>
			<point x="370" y="-10" type="curve" smooth="yes"/>
			<point x="375.6" y="-10"/>
			<point x="380" y="-5.6"/>
			<point x="380" y="0" type="curve" smooth="yes"/>
			<point x="380" y="590" type="line"/>
			<point x="490" y="590" type="line" smooth="yes"/>
			<point x="495.6" y="590"/>
			<point x="500" y="594.4"/>
			<point x="500" y="600" type="curve" smooth="yes"/>
			<point x="500" y="605.6"/>
			<point x="495.6" y="610"/>
			<point x="490" y="610" type="curve" smooth="yes"/>
			<point x="254" y="610" type="line" smooth="yes"/>
			<point x="130.8" y="610"/>
			<point x="40" y="519.2"/>
			<point x="40" y="396" type="curve" smooth="yes"/>
			<point x="40" y="148" type="line" smooth="yes"/>
			<point x="40" y="86.8"/>
			<point x="82.4" y="40"/>
			<point x="140" y="40" type="curve" smooth="yes"/>
			<point x="198.8" y="40"/>
			<point x="240" y="87.2"/>
			<point x="240" y="148" type="curve" smooth="yes"/>
			<point x="240" y="192" type="line" smooth="yes"/>
			<point x="240" y="253.2"/>
			<point x="197.6" y="300"/>
			<point x="140" y="300" type="curve" smooth="yes"/>
			<point x="106.4" y="300"/>
			<point x="78" y="284"/>
			<point x="60" y="258.4" type="curve"/>
			<point x="60" y="396" type="line" smooth="yes"/>
			<point x="60" y="510"/>
			<point x="140" y="590"/>
			<point x="254" y="590" type="curve" smooth="yes"/>
			<point x="360" y="590" type="line"/>
			<point x="360" y="0" type="line" smooth="yes"/>
			<point x="360" y="-5.6"/>
			<point x="364.4" y="-10"/>
		</contour>
		<contour>
			<point x="140" y="60" type="curve" smooth="yes"/>
			<point x="92.4" y="60"/>
			<point x="60" y="96"/>
			<point x="60" y="148" type="curve" smooth="yes"/>
			<point x="60" y="192" type="line" smooth="yes"/>
			<point x="60" y="244"/>
			<point x="92.4" y="280"/>
			<point x="140" y="280" type="curve" smooth="yes"/>
			<point x="187.6" y="280"/>
			<point x="220" y="244"/>
			<point x="220" y="192" type="curve" smooth="yes"/>
			<point x="220" y="148" type="line" smooth="yes"/>
			<point x="220" y="95.6"/>
			<point x="188.4" y="60"/>
		</contour>
	</outline>
</glyph>
<glyph name="eight-tamil" format="2">
	<advance width="490"/>
	<unicode hex="0BEE"/>
	<outline>
		<contour>
			<point x="172" y="-10" type="curve" smooth="yes"/>
			<point x="238" y="-10" type="line" smooth="yes"/>
			<point x="314.4" y="-10"/>
			<point x="370" y="45.6"/>
			<point x="370" y="122" type="curve" smooth="yes"/>
			<point x="370" y="240" type="line"/>
			<point x="430" y="240" type="line"/>
			<point x="430" y="0" type="line" smooth="yes"/>
			<point x="430" y="-5.6"/>
			<point x="434.4" y="-10"/>
			<point x="440" y="-10" type="curve" smooth="yes"/>
			<point x="445.6" y="-10"/>
			<point x="450" y="-5.6"/>
			<point x="450" y="0" type="curve" smooth="yes"/>
			<point x="450" y="450" type="line" smooth="yes"/>
			<point x="450" y="455.6"/>
			<point x="445.6" y="460"/>
			<point x="440" y="460" type="curve" smooth="yes"/>
			<point x="434.4" y="460"/>
			<point x="430" y="455.6"/>
			<point x="430" y="450" type="curve" smooth="yes"/>
			<point x="430" y="260" type="line"/>
			<point x="370" y="260" type="line"/>
			<point x="370" y="478" type="line" smooth="yes"/>
			<point x="370" y="554.4"/>
			<point x="314.4" y="610"/>
			<point x="238" y="610" type="curve" smooth="yes"/>
			<point x="202" y="610" type="line" smooth="yes"/>
			<point x="125.6" y="610"/>
			<point x="70" y="554.4"/>
			<point x="70" y="478" type="curve" smooth="yes"/>
			<point x="70" y="403.2" type="line" smooth="yes"/>
			<point x="70" y="339.6"/>
			<point x="102" y="287.2"/>
			<point x="152" y="260" type="curve"/>
			<point x="50" y="260" type="line" smooth="yes"/>
			<point x="43.6" y="260"/>
			<point x="40" y="256.4"/>
			<point x="40" y="250" type="curve" smooth="yes"/>
			<point x="40" y="122" type="line" smooth="yes"/>
			<point x="40" y="45.6"/>
			<point x="95.6" y="-10"/>
		</contour>
		<contour>
			<point x="172" y="10" type="line" smooth="yes"/>
			<point x="105.2" y="10"/>
			<point x="60" y="55.2"/>
			<point x="60" y="122" type="curve" smooth="yes"/>
			<point x="60" y="240" type="line"/>
			<point x="350" y="240" type="line"/>
			<point x="350" y="122" type="line" smooth="yes"/>
			<point x="350" y="55.2"/>
			<point x="304.8" y="10"/>
			<point x="238" y="10" type="curve" smooth="yes"/>
		</contour>
		<contour>
			<point x="233.2" y="260" type="line" smooth="yes"/>
			<point x="149.2" y="260"/>
			<point x="90" y="319.2"/>
			<point x="90" y="403.2" type="curve" smooth="yes"/>
			<point x="90" y="478" type="line" smooth="yes"/>
			<point x="90" y="544.8"/>
			<point x="135.2" y="590"/>
			<point x="202" y="590" type="curve" smooth="yes"/>
			<point x="238" y="590" type="line" smooth="yes"/>
			<point x="304.8" y="590"/>
			<point x="350" y="544.8"/>
			<point x="350" y="478" type="curve" smooth="yes"/>
			<point x="350" y="260" type="line"/>
		</contour>
	</outline>
</glyph>
<glyph name="nine-tamil" format="2">
	<advance width="650"/>
	<unicode hex="0BEF"/>
	<outline>
		<contour>
			<point x="150" y="-10" type="curve" smooth="yes"/>
			<point x="213.6" y="-10"/>
			<point x="260" y="37.6"/>
			<point x="260" y="102" type="curve" smooth="yes"/>
			<point x="260" y="340" type="line"/>
			<point x="334.8" y="340" type="line"/>
			<point x="315.6" y="323.2"/>
			<point x="304" y="297.6"/>
			<point x="304" y="268" type="curve" smooth="yes"/>
			<point x="304" y="242" type="line" smooth="yes"/>
			<point x="304" y="190"/>
			<point x="340.4" y="150"/>
			<point x="389.2" y="150" type="curve" smooth="yes"/>
			<point x="438.8" y="150"/>
			<point x="474" y="190"/>
			<point x="474" y="242" type="curve" smooth="yes"/>
			<point x="474" y="268" type="line" smooth="yes"/>
			<point x="474" y="297.6"/>
			<point x="462.4" y="323.2"/>
			<point x="443.2" y="340" type="curve"/>
			<point x="447.2" y="340" type="line" smooth="yes"/>
			<point x="530.8" y="340"/>
			<point x="590" y="280.8"/>
			<point x="590" y="197.2" type="curve" smooth="yes"/>
			<point x="590" y="153.2" type="line" smooth="yes"/>
			<point x="590" y="69.2"/>
			<point x="530.8" y="10"/>
			<point x="447.2" y="10" type="curve" smooth="yes"/>
			<point x="314" y="10" type="line" smooth="yes"/>
			<point x="308.4" y="10"/>
			<point x="304" y="5.6"/>
			<point x="304" y="0" type="curve" smooth="yes"/>
			<point x="304" y="-5.6"/>
			<point x="308.4" y="-10"/>
			<point x="314" y="-10" type="curve" smooth="yes"/>
			<point x="447.2" y="-10" type="line" smooth="yes"/>
			<point x="540.4" y="-10"/>
			<point x="610" y="59.6"/>
			<point x="610" y="153.2" type="curve" smooth="yes"/>
			<point x="610" y="197.2" type="line" smooth="yes"/>
			<point x="610" y="290.4"/>
			<point x="540.4" y="360"/>
			<point x="447.2" y="360" type="curve" smooth="yes"/>
			<point x="260" y="360" type="line"/>
			<point x="260" y="590" type="line"/>
			<point x="360" y="590" type="line" smooth="yes"/>
			<point x="365.6" y="590"/>
			<point x="370" y="594.4"/>
			<point x="370" y="600" type="curve" smooth="yes"/>
			<point x="370" y="605.6"/>
			<point x="365.6" y="610"/>
			<point x="360" y="610" type="curve" smooth="yes"/>
			<point x="130" y="610" type="line" smooth="yes"/>
			<point x="123.6" y="610"/>
			<point x="120" y="606.4"/>
			<point x="120" y="600" type="curve" smooth="yes"/>
			<point x="120" y="357.2" type="line"/>
			<point x="75.6" y="346.4"/>
			<point x="40" y="303.6"/>
			<point x="40" y="248" type="curve" smooth="yes"/>
			<point x="40" y="102" type="line" smooth="yes"/>
			<point x="40" y="37.6"/>
			<point x="86.4" y="-10"/>
		</contour>
		<contour>
			<point x="150" y="10" type="curve" smooth="yes"/>
			<point x="96.4" y="10"/>
			<point x="60" y="47.2"/>
			<point x="60" y="102" type="curve" smooth="yes"/>
			<point x="60" y="248" type="line" smooth="yes"/>
			<point x="60" y="302.8"/>
			<point x="97.2" y="340"/>
			<point x="142" y="340" type="curve" smooth="yes"/>
			<point x="240" y="340" type="line"/>
			<point x="240" y="102" type="line" smooth="yes"/>
			<point x="240" y="47.2"/>
			<point x="203.6" y="10"/>
		</contour>
		<contour>
			<point x="389.2" y="170" type="curve" smooth="yes"/>
			<point x="350.4" y="170"/>
			<point x="324" y="198.8"/>
			<point x="324" y="242" type="curve" smooth="yes"/>
			<point x="324" y="268" type="line" smooth="yes"/>
			<point x="324" y="311.2"/>
			<point x="350.4" y="340"/>
			<point x="389.2" y="340" type="curve" smooth="yes"/>
			<point x="427.6" y="340"/>
			<point x="454" y="311.2"/>
			<point x="454" y="268" type="curve" smooth="yes"/>
			<point x="454" y="242" type="line" smooth="yes"/>
			<point x="454" y="198.8"/>
			<point x="428.4" y="170"/>
		</contour>
		<contour>
			<point x="140" y="360" type="line"/>
			<point x="140" y="590" type="line"/>
			<point x="240" y="590" type="line"/>
			<point x="240" y="360" type="line"/>
		</contour>
	</outline>
</glyph>
<glyph name="ten-tamil" format="2">
	<advance width="460"/>
	<unicode hex="0BF0"/>
	<outline>
		<contour>
			<point x="140" y="-10" type="curve" smooth="yes"/>
			<point x="180.8" y="-10"/>
			<point x="214" y="12"/>
			<point x="230" y="46" type="curve"/>
			<point x="246" y="12"/>
			<point x="279.2" y="-10"/>
			<point x="320" y="-10" type="curve" smooth="yes"/>
			<point x="377.6" y="-10"/>
			<point x="420" y="33.6"/>
			<point x="420" y="92" type="curve" smooth="yes"/>
			<point x="420" y="608" type="line" smooth="yes"/>
			<point x="420" y="666.4"/>
			<point x="376.4" y="710"/>
			<point x="318" y="710" type="curve" smooth="yes"/>
			<point x="252" y="710" type="line" smooth="yes"/>
			<point x="193.6" y="710"/>
			<point x="150" y="666.4"/>
			<point x="150" y="608" type="curve" smooth="yes"/>
			<point x="150" y="600" type="line" smooth="yes"/>
			<point x="150" y="594.4"/>
			<point x="154.4" y="590"/>
			<point x="160" y="590" type="curve" smooth="yes"/>
			<point x="165.6" y="590"/>
			<point x="170" y="594.4"/>
			<point x="170" y="600" type="curve" smooth="yes"/>
			<point x="170" y="608" type="line" smooth="yes"/>
			<point x="170" y="656.8"/>
			<point x="203.2" y="690"/>
			<point x="252" y="690" type="curve" smooth="yes"/>
			<point x="318" y="690" type="line" smooth="yes"/>
			<point x="366.8" y="690"/>
			<point x="400" y="656.8"/>
			<point x="400" y="608" type="curve" smooth="yes"/>
			<point x="400" y="92" type="line" smooth="yes"/>
			<point x="400" y="43.2"/>
			<point x="367.6" y="10"/>
			<point x="320" y="10" type="curve" smooth="yes"/>
			<point x="272.4" y="10"/>
			<point x="240" y="43.2"/>
			<point x="240" y="92" type="curve" smooth="yes"/>
			<point x="240" y="490" type="line" smooth="yes"/>
			<point x="240" y="495.6"/>
			<point x="235.6" y="500"/>
			<point x="230" y="500" type="curve" smooth="yes"/>
			<point x="224.4" y="500"/>
			<point x="220" y="495.6"/>
			<point x="220" y="490" type="curve" smooth="yes"/>
			<point x="220" y="92" type="line" smooth="yes"/>
			<point x="220" y="43.2"/>
			<point x="187.6" y="10"/>
			<point x="140" y="10" type="curve" smooth="yes"/>
			<point x="92.4" y="10"/>
			<point x="60" y="43.2"/>
			<point x="60" y="92" type="curve" smooth="yes"/>
			<point x="60" y="490" type="line" smooth="yes"/>
			<point x="60" y="495.6"/>
			<point x="55.6" y="500"/>
			<point x="50" y="500" type="curve" smooth="yes"/>
			<point x="44.4" y="500"/>
			<point x="40" y="495.6"/>
			<point x="40" y="490" type="curve" smooth="yes"/>
			<point x="40" y="92" type="line" smooth="yes"/>
			<point x="40" y="33.6"/>
			<point x="82.4" y="-10"/>
		</contour>
	</outline>
</glyph>
<glyph name="onehundred-tamil" format="2">
	<advance width="627"/>
	<unicode hex="0BF1"/>
	<outline>
		<contour>
			<point x="50" y="-10" type="curve" smooth="yes"/>
			<point x="55.6" y="-10"/>
			<point x="60" y="-5.6"/>
			<point x="60" y="0" type="curve" smooth="yes"/>
			<point x="60" y="478" type="line" smooth="yes"/>
			<point x="60" y="544.8"/>
			<point x="105.2" y="590"/>
			<point x="172" y="590" type="curve" smooth="yes"/>
			<point x="196" y="590" type="line" smooth="yes"/>
			<point x="260" y="590"/>
			<point x="307.2" y="547.6"/>
			<point x="307.2" y="473.2" type="curve" smooth="yes"/>
			<point x="307.2" y="0" type="line" smooth="yes"/>
			<point x="307.2" y="-5.6"/>
			<point x="311.6" y="-10"/>
			<point x="317.2" y="-10" type="curve" smooth="yes"/>
			<point x="322.4" y="-10"/>
			<point x="327.2" y="-5.6"/>
			<point x="327.2" y="0" type="curve" smooth="yes"/>
			<point x="327.2" y="590" type="line"/>
			<point x="487.2" y="590" type="line"/>
			<point x="487.2" y="0" type="line" smooth="yes"/>
			<point x="487.2" y="-5.6"/>
			<point x="491.6" y="-10"/>
			<point x="497.2" y="-10" type="curve" smooth="yes"/>
			<point x="502.4" y="-10"/>
			<point x="507.2" y="-5.6"/>
			<point x="507.2" y="0" type="curve" smooth="yes"/>
			<point x="507.2" y="590" type="line"/>
			<point x="577.2" y="590" type="line" smooth="yes"/>
			<point x="582.4" y="590"/>
			<point x="587.2" y="594.4"/>
			<point x="587.2" y="600" type="curve" smooth="yes"/>
			<point x="587.2" y="605.6"/>
			<point x="582.4" y="610"/>
			<point x="577.2" y="610" type="curve" smooth="yes"/>
			<point x="317.2" y="610" type="line" smooth="yes"/>
			<point x="310.8" y="610"/>
			<point x="307.2" y="606.4"/>
			<point x="307.2" y="600" type="curve" smooth="yes"/>
			<point x="307.2" y="550" type="line"/>
			<point x="284" y="588.4"/>
			<point x="243.2" y="610"/>
			<point x="196" y="610" type="curve" smooth="yes"/>
			<point x="172" y="610" type="line" smooth="yes"/>
			<point x="95.6" y="610"/>
			<point x="40" y="554.4"/>
			<point x="40" y="478" type="curve" smooth="yes"/>
			<point x="40" y="0" type="line" smooth="yes"/>
			<point x="40" y="-5.6"/>
			<point x="44.4" y="-10"/>
		</contour>
	</outline>
</glyph>
<glyph name="onethousand-tamil" format="2">
	<advance width="600"/>
	<unicode hex="0BF2"/>
	<outline>
		<contour>
			<point x="295.2" y="-190" type="curve" smooth="yes"/>
			<point x="300.4" y="-190"/>
			<point x="305.2" y="-185.6"/>
			<point x="305.2" y="-180" type="curve" smooth="yes"/>
			<point x="305.2" y="-128" type="line" smooth="yes"/>
			<point x="305.2" y="-79.2"/>
			<point x="338" y="-46"/>
			<point x="387.2" y="-46" type="curve" smooth="yes"/>
			<point x="416" y="-46" type="line" smooth="yes"/>
			<point x="488.8" y="-46"/>
			<point x="521.2" y="6"/>
			<point x="521.2" y="87.2" type="curve" smooth="yes"/>
			<point x="521.2" y="172"/>
			<point x="493.2" y="220"/>
			<point x="428" y="220" type="curve" smooth="yes"/>
			<point x="426" y="220" type="line"/>
			<point x="426" y="340" type="line"/>
			<point x="460" y="340" type="line" smooth="yes"/>
			<point x="465.6" y="340"/>
			<point x="470" y="344.4"/>
			<point x="470" y="350" type="curve" smooth="yes"/>
			<point x="470" y="355.6"/>
			<point x="465.6" y="360"/>
			<point x="460" y="360" type="curve" smooth="yes"/>
			<point x="260" y="360" type="line"/>
			<point x="260" y="590" type="line"/>
			<point x="360" y="590" type="line" smooth="yes"/>
			<point x="365.6" y="590"/>
			<point x="370" y="594.4"/>
			<point x="370" y="600" type="curve" smooth="yes"/>
			<point x="370" y="605.6"/>
			<point x="365.6" y="610"/>
			<point x="360" y="610" type="curve" smooth="yes"/>
			<point x="130" y="610" type="line" smooth="yes"/>
			<point x="123.6" y="610"/>
			<point x="120" y="606.4"/>
			<point x="120" y="600" type="curve" smooth="yes"/>
			<point x="120" y="357.2" type="line"/>
			<point x="76" y="346"/>
			<point x="41.2" y="303.2"/>
			<point x="41.2" y="248" type="curve" smooth="yes"/>
			<point x="41.2" y="102" type="line" smooth="yes"/>
			<point x="41.2" y="37.6"/>
			<point x="87.6" y="-10"/>
			<point x="151.2" y="-10" type="curve" smooth="yes"/>
			<point x="214.4" y="-10"/>
			<point x="261.2" y="37.6"/>
			<point x="261.2" y="102" type="curve" smooth="yes"/>
			<point x="261.2" y="340" type="line"/>
			<point x="406" y="340" type="line"/>
			<point x="406" y="220" type="line"/>
			<point x="357.2" y="220" type="line" smooth="yes"/>
			<point x="316.8" y="220"/>
			<point x="286" y="189.2"/>
			<point x="286" y="149.2" type="curve" smooth="yes"/>
			<point x="286" y="61.2" type="line" smooth="yes"/>
			<point x="286" y="20.8"/>
			<point x="316.8" y="-10"/>
			<point x="356" y="-10" type="curve" smooth="yes"/>
			<point x="395.2" y="-10"/>
			<point x="426" y="20.8"/>
			<point x="426" y="61.2" type="curve" smooth="yes"/>
			<point x="426" y="200" type="line"/>
			<point x="428" y="200" type="line" smooth="yes"/>
			<point x="480.4" y="200"/>
			<point x="501.2" y="165.2"/>
			<point x="501.2" y="87.2" type="curve" smooth="yes"/>
			<point x="501.2" y="12.8"/>
			<point x="476.4" y="-26"/>
			<point x="416" y="-26" type="curve" smooth="yes"/>
			<point x="387.2" y="-26" type="line" smooth="yes"/>
			<point x="328.8" y="-26"/>
			<point x="285.2" y="-69.6"/>
			<point x="285.2" y="-128" type="curve" smooth="yes"/>
			<point x="285.2" y="-180" type="line" smooth="yes"/>
			<point x="285.2" y="-185.6"/>
			<point x="289.6" y="-190"/>
		</contour>
		<contour>
			<point x="151.2" y="10" type="curve" smooth="yes"/>
			<point x="97.2" y="10"/>
			<point x="61.2" y="47.2"/>
			<point x="61.2" y="102" type="curve" smooth="yes"/>
			<point x="61.2" y="248" type="line" smooth="yes"/>
			<point x="61.2" y="302.8"/>
			<point x="98" y="340"/>
			<point x="143.2" y="340" type="curve" smooth="yes"/>
			<point x="241.2" y="340" type="line"/>
			<point x="241.2" y="102" type="line" smooth="yes"/>
			<point x="241.2" y="47.2"/>
			<point x="204.8" y="10"/>
		</contour>
		<contour>
			<point x="356" y="10" type="curve" smooth="yes"/>
			<point x="326" y="10"/>
			<point x="306" y="30"/>
			<point x="306" y="61.2" type="curve" smooth="yes"/>
			<point x="306" y="149.2" type="line" smooth="yes"/>
			<point x="306" y="180"/>
			<point x="326" y="200"/>
			<point x="357.2" y="200" type="curve" smooth="yes"/>
			<point x="406" y="200" type="line"/>
			<point x="406" y="61.2" type="line" smooth="yes"/>
			<point x="406" y="30"/>
			<point x="386" y="10"/>
		</contour>
		<contour>
			<point x="140" y="360" type="line"/>
			<point x="140" y="590" type="line"/>
			<point x="240" y="590" type="line"/>
			<point x="240" y="360" type="line"/>
		</contour>
	</outline>
</glyph>
<glyph name="ca_uMatra-tamil" format="2">
	<advance width="485"/>
	<anchor x="415" y="600" name="imatra"/>
	<anchor x="243" y="600" name="top"/>
	<outline>
		<contour>
			<point x="150" y="-10" type="curve" smooth="yes"/>
			<point x="214" y="-10"/>
			<point x="260" y="38"/>
			<point x="260" y="102" type="curve" smooth="yes"/>
			<point x="260" y="340" type="line"/>
			<point x="350" y="340" type="line"/>
			<point x="350" y="0" type="line" smooth="yes"/>
			<point x="350" y="-6"/>
			<point x="354" y="-10"/>
			<point x="360" y="-10" type="curve" smooth="yes"/>
			<point x="366" y="-10"/>
			<point x="370" y="-6"/>
			<point x="370" y="0" type="curve" smooth="yes"/>
			<point x="370" y="340" type="line"/>
			<point x="435" y="340" type="line" smooth="yes"/>
			<point x="440" y="340"/>
			<point x="445" y="344"/>
			<point x="445" y="350" type="curve" smooth="yes"/>
			<point x="445" y="356"/>
			<point x="440" y="360"/>
			<point x="435" y="360" type="curve" smooth="yes"/>
			<point x="260" y="360" type="line"/>
			<point x="260" y="590" type="line"/>
			<point x="360" y="590" type="line" smooth="yes"/>
			<point x="366" y="590"/>
			<point x="370" y="594"/>
			<point x="370" y="600" type="curve" smooth="yes"/>
			<point x="370" y="606"/>
			<point x="366" y="610"/>
			<point x="360" y="610" type="curve" smooth="yes"/>
			<point x="130" y="610" type="line" smooth="yes"/>
			<point x="124" y="610"/>
			<point x="120" y="606"/>
			<point x="120" y="600" type="curve" smooth="yes"/>
			<point x="120" y="357" type="line"/>
			<point x="76" y="346"/>
			<point x="40" y="304"/>
			<point x="40" y="248" type="curve" smooth="yes"/>
			<point x="40" y="102" type="line" smooth="yes"/>
			<point x="40" y="38"/>
			<point x="86" y="-10"/>
		</contour>
		<contour>
			<point x="150" y="10" type="curve" smooth="yes"/>
			<point x="96" y="10"/>
			<point x="60" y="47"/>
			<point x="60" y="102" type="curve" smooth="yes"/>
			<point x="60" y="248" type="line" smooth="yes"/>
			<point x="60" y="303"/>
			<point x="97" y="340"/>
			<point x="142" y="340" type="curve" smooth="yes"/>
			<point x="240" y="340" type="line"/>
			<point x="240" y="102" type="line" smooth="yes"/>
			<point x="240" y="47"/>
			<point x="204" y="10"/>
		</contour>
		<contour>
			<point x="140" y="360" type="line"/>
			<point x="140" y="590" type="line"/>
			<point x="240" y="590" type="line"/>
			<point x="240" y="360" type="line"/>
		</contour>
	</outline>
</glyph>
<glyph name="ca_uuMatra-tamil" format="2">
	<advance width="490"/>
	<anchor x="420" y="600" name="imatra"/>
	<anchor x="245" y="600" name="top"/>
	<outline>
		<contour>
			<point x="225" y="-220" type="curve" smooth="yes"/>
			<point x="348" y="-220" type="line" smooth="yes"/>
			<point x="406" y="-220"/>
			<point x="450" y="-176"/>
			<point x="450" y="-118" type="curve" smooth="yes"/>
			<point x="450" y="4" type="line" smooth="yes"/>
			<point x="450" y="35"/>
			<point x="425" y="60"/>
			<point x="394" y="60" type="curve" smooth="yes"/>
			<point x="370" y="60" type="line"/>
			<point x="370" y="340" type="line"/>
			<point x="435" y="340" type="line" smooth="yes"/>
			<point x="440" y="340"/>
			<point x="445" y="344"/>
			<point x="445" y="350" type="curve" smooth="yes"/>
			<point x="445" y="356"/>
			<point x="440" y="360"/>
			<point x="435" y="360" type="curve" smooth="yes"/>
			<point x="260" y="360" type="line"/>
			<point x="260" y="590" type="line"/>
			<point x="360" y="590" type="line" smooth="yes"/>
			<point x="366" y="590"/>
			<point x="370" y="594"/>
			<point x="370" y="600" type="curve" smooth="yes"/>
			<point x="370" y="606"/>
			<point x="366" y="610"/>
			<point x="360" y="610" type="curve" smooth="yes"/>
			<point x="130" y="610" type="line" smooth="yes"/>
			<point x="124" y="610"/>
			<point x="120" y="606"/>
			<point x="120" y="600" type="curve" smooth="yes"/>
			<point x="120" y="357" type="line"/>
			<point x="76" y="346"/>
			<point x="40" y="304"/>
			<point x="40" y="248" type="curve" smooth="yes"/>
			<point x="40" y="102" type="line" smooth="yes"/>
			<point x="40" y="38"/>
			<point x="86" y="-10"/>
			<point x="150" y="-10" type="curve" smooth="yes"/>
			<point x="214" y="-10"/>
			<point x="260" y="38"/>
			<point x="260" y="102" type="curve" smooth="yes"/>
			<point x="260" y="340" type="line"/>
			<point x="350" y="340" type="line"/>
			<point x="350" y="0" type="line" smooth="yes"/>
			<point x="350" y="-6"/>
			<point x="354" y="-10"/>
			<point x="360" y="-10" type="curve" smooth="yes"/>
			<point x="366" y="-10"/>
			<point x="370" y="-6"/>
			<point x="370" y="0" type="curve" smooth="yes"/>
			<point x="370" y="40" type="line"/>
			<point x="394" y="40" type="line" smooth="yes"/>
			<point x="416" y="40"/>
			<point x="430" y="26"/>
			<point x="430" y="4" type="curve" smooth="yes"/>
			<point x="430" y="-118" type="line" smooth="yes"/>
			<point x="430" y="-167"/>
			<point x="397" y="-200"/>
			<point x="348" y="-200" type="curve" smooth="yes"/>
			<point x="269" y="-200" type="line"/>
			<point x="279" y="-189"/>
			<point x="285" y="-175"/>
			<point x="285" y="-160" type="curve" smooth="yes"/>
			<point x="285" y="-128"/>
			<point x="257" y="-100"/>
			<point x="225" y="-100" type="curve" smooth="yes"/>
			<point x="193" y="-100"/>
			<point x="165" y="-128"/>
			<point x="165" y="-160" type="curve" smooth="yes"/>
			<point x="165" y="-192"/>
			<point x="193" y="-220"/>
		</contour>
		<contour>
			<point x="225" y="-200" type="curve" smooth="yes"/>
			<point x="202" y="-200"/>
			<point x="185" y="-183"/>
			<point x="185" y="-160" type="curve" smooth="yes"/>
			<point x="185" y="-137"/>
			<point x="202" y="-120"/>
			<point x="225" y="-120" type="curve" smooth="yes"/>
			<point x="248" y="-120"/>
			<point x="265" y="-137"/>
			<point x="265" y="-160" type="curve" smooth="yes"/>
			<point x="265" y="-183"/>
			<point x="248" y="-200"/>
		</contour>
		<contour>
			<point x="150" y="10" type="curve" smooth="yes"/>
			<point x="96" y="10"/>
			<point x="60" y="47"/>
			<point x="60" y="102" type="curve" smooth="yes"/>
			<point x="60" y="248" type="line" smooth="yes"/>
			<point x="60" y="303"/>
			<point x="97" y="340"/>
			<point x="142" y="340" type="curve" smooth="yes"/>
			<point x="240" y="340" type="line"/>
			<point x="240" y="102" type="line" smooth="yes"/>
			<point x="240" y="47"/>
			<point x="204" y="10"/>
		</contour>
		<contour>
			<point x="140" y="360" type="line"/>
			<point x="140" y="590" type="line"/>
			<point x="240" y="590" type="line"/>
			<point x="240" y="360" type="line"/>
		</contour>
	</outline>
</glyph>
<glyph name="chaKeezhPaadi.001" format="2">
	<advance width="280"/>
	<outline>
		<contour>
			<point x="130" y="-10" type="curve" smooth="yes"/>
			<point x="225.2" y="-10"/>
			<point x="290" y="81.6"/>
			<point x="290" y="215.2" type="curve" smooth="yes"/>
			<point x="290" y="350" type="line" smooth="yes"/>
			<point x="290" y="356.4"/>
			<point x="286.4" y="360"/>
			<point x="280" y="360" type="curve" smooth="yes"/>
			<point x="130" y="360" type="line" smooth="yes"/>
			<point x="46.4" y="360"/>
			<point x="10" y="281.6"/>
			<point x="10" y="175.2" type="curve" smooth="yes"/>
			<point x="10" y="68.4"/>
			<point x="46.4" y="-10"/>
		</contour>
		<contour>
			<point x="130" y="10" type="curve" smooth="yes"/>
			<point x="60.4" y="10"/>
			<point x="30" y="74.4"/>
			<point x="30" y="175.2" type="curve" smooth="yes"/>
			<point x="30" y="275.6"/>
			<point x="60.4" y="340"/>
			<point x="130" y="340" type="curve" smooth="yes"/>
			<point x="270" y="340" type="line"/>
			<point x="270" y="215.2" type="line" smooth="yes"/>
			<point x="270" y="88.4"/>
			<point x="212.8" y="10"/>
		</contour>
	</outline>
</glyph>
<glyph name="chaKeezhPaadi" format="2">
	<advance width="200"/>
	<outline>
		<contour>
			<point x="100" y="-10" type="curve" smooth="yes"/>
			<point x="163.6" y="-10"/>
			<point x="210" y="37.6"/>
			<point x="210" y="102" type="curve" smooth="yes"/>
			<point x="210" y="350" type="line" smooth="yes"/>
			<point x="210" y="356.4"/>
			<point x="206.4" y="360"/>
			<point x="200" y="360" type="curve" smooth="yes"/>
			<point x="92" y="360" type="line" smooth="yes"/>
			<point x="37.6" y="360"/>
			<point x="-10" y="312.4"/>
			<point x="-10" y="248" type="curve" smooth="yes"/>
			<point x="-10" y="102" type="line" smooth="yes"/>
			<point x="-10" y="37.6"/>
			<point x="36.4" y="-10"/>
		</contour>
		<contour>
			<point x="100" y="10" type="curve" smooth="yes"/>
			<point x="46.4" y="10"/>
			<point x="10" y="47.2"/>
			<point x="10" y="102" type="curve" smooth="yes"/>
			<point x="10" y="248" type="line" smooth="yes"/>
			<point x="10" y="302.8"/>
			<point x="47.2" y="340"/>
			<point x="92" y="340" type="curve" smooth="yes"/>
			<point x="190" y="340" type="line"/>
			<point x="190" y="102" type="line" smooth="yes"/>
			<point x="190" y="47.2"/>
			<point x="153.6" y="10"/>
		</contour>
	</outline>
</glyph>
<glyph name="chaMelPaadi" format="2">
	<advance width="450"/>
	<outline>
		<contour>
			<point x="180" y="340" type="curve" smooth="yes"/>
			<point x="300" y="340" type="line" smooth="yes"/>
			<point x="306.4" y="340"/>
			<point x="310" y="343.6"/>
			<point x="310" y="350" type="curve" smooth="yes"/>
			<point x="310" y="590" type="line"/>
			<point x="410" y="590" type="line" smooth="yes"/>
			<point x="415.6" y="590"/>
			<point x="420" y="594.4"/>
			<point x="420" y="600" type="curve" smooth="yes"/>
			<point x="420" y="605.6"/>
			<point x="415.6" y="610"/>
			<point x="410" y="610" type="curve" smooth="yes"/>
			<point x="180" y="610" type="line" smooth="yes"/>
			<point x="173.6" y="610"/>
			<point x="170" y="606.4"/>
			<point x="170" y="600" type="curve" smooth="yes"/>
			<point x="170" y="350" type="line" smooth="yes"/>
			<point x="170" y="343.6"/>
			<point x="173.6" y="340"/>
		</contour>
		<contour>
			<point x="190" y="360" type="line"/>
			<point x="190" y="590" type="line"/>
			<point x="290" y="590" type="line"/>
			<point x="290" y="360" type="line"/>
		</contour>
	</outline>
</glyph>
<glyph name="chinnaVattam.001" format="2">
	<advance width="150"/>
	<outline>
		<contour>
			<point x="75.2" y="-6.8" type="curve" smooth="yes"/>
			<point x="126.8" y="-6.8"/>
			<point x="160" y="28.4"/>
			<point x="160" y="103.2" type="curve" smooth="yes"/>
			<point x="160" y="177.6"/>
			<point x="126.8" y="213.2"/>
			<point x="75.2" y="213.2" type="curve" smooth="yes"/>
			<point x="23.2" y="213.2"/>
			<point x="-10" y="177.6"/>
			<point x="-10" y="103.2" type="curve" smooth="yes"/>
			<point x="-10" y="28.4"/>
			<point x="23.2" y="-6.8"/>
		</contour>
		<contour>
			<point x="75.2" y="13.2" type="curve" smooth="yes"/>
			<point x="33.2" y="13.2"/>
			<point x="10" y="38"/>
			<point x="10" y="103.2" type="curve" smooth="yes"/>
			<point x="10" y="168"/>
			<point x="33.2" y="193.2"/>
			<point x="75.2" y="193.2" type="curve" smooth="yes"/>
			<point x="116.8" y="193.2"/>
			<point x="140" y="168"/>
			<point x="140" y="103.2" type="curve" smooth="yes"/>
			<point x="140" y="38"/>
			<point x="116.8" y="13.2"/>
		</contour>
	</outline>
</glyph>
<glyph name="chinnaVattam" format="2">
	<advance width="150"/>
	<outline>
		<contour>
			<point x="75.2" y="-10" type="curve" smooth="yes"/>
			<point x="124.8" y="-10"/>
			<point x="160" y="30"/>
			<point x="160" y="82" type="curve" smooth="yes"/>
			<point x="160" y="118" type="line" smooth="yes"/>
			<point x="160" y="170"/>
			<point x="123.6" y="210"/>
			<point x="75.2" y="210" type="curve" smooth="yes"/>
			<point x="26.4" y="210"/>
			<point x="-10" y="170"/>
			<point x="-10" y="118" type="curve" smooth="yes"/>
			<point x="-10" y="82" type="line" smooth="yes"/>
			<point x="-10" y="30"/>
			<point x="26.4" y="-10"/>
		</contour>
		<contour>
			<point x="75.2" y="10" type="curve" smooth="yes"/>
			<point x="36.4" y="10"/>
			<point x="10" y="38.8"/>
			<point x="10" y="82" type="curve" smooth="yes"/>
			<point x="10" y="118" type="line" smooth="yes"/>
			<point x="10" y="161.2"/>
			<point x="36.4" y="190"/>
			<point x="75.2" y="190" type="curve" smooth="yes"/>
			<point x="113.6" y="190"/>
			<point x="140" y="161.2"/>
			<point x="140" y="118" type="curve" smooth="yes"/>
			<point x="140" y="82" type="line" smooth="yes"/>
			<point x="140" y="38.8"/>
			<point x="114.4" y="10"/>
		</contour>
	</outline>
</glyph>
<glyph name="iMatra-tamil.001" format="2">
	<advance width="75"/>
	<anchor x="-50" y="550" name="_imatra"/>
	<outline>
		<contour>
			<point x="50" y="-10" type="curve" smooth="yes"/>
			<point x="55.6" y="-10"/>
			<point x="60" y="-5.6"/>
			<point x="60" y="0" type="curve" smooth="yes"/>
			<point x="60" y="708" type="line" smooth="yes"/>
			<point x="60" y="766.4"/>
			<point x="16.4" y="810"/>
			<point x="-42" y="810" type="curve" smooth="yes"/>
			<point x="-58" y="810" type="line" smooth="yes"/>
			<point x="-116.4" y="810"/>
			<point x="-160" y="766.4"/>
			<point x="-160" y="708" type="curve" smooth="yes"/>
			<point x="-160" y="642" type="line" smooth="yes"/>
			<point x="-160" y="583.6"/>
			<point x="-116.4" y="540"/>
			<point x="-58" y="540" type="curve" smooth="yes"/>
			<point x="-50" y="540" type="line" smooth="yes"/>
			<point x="-44.4" y="540"/>
			<point x="-40" y="544.4"/>
			<point x="-40" y="550" type="curve" smooth="yes"/>
			<point x="-40" y="555.6"/>
			<point x="-44.4" y="560"/>
			<point x="-50" y="560" type="curve" smooth="yes"/>
			<point x="-58" y="560" type="line" smooth="yes"/>
			<point x="-106.8" y="560"/>
			<point x="-140" y="593.2"/>
			<point x="-140" y="642" type="curve" smooth="yes"/>
			<point x="-140" y="708" type="line" smooth="yes"/>
			<point x="-140" y="756.8"/>
			<point x="-106.8" y="790"/>
			<point x="-58" y="790" type="curve" smooth="yes"/>
			<point x="-42" y="790" type="line" smooth="yes"/>
			<point x="6.8" y="790"/>
			<point x="40" y="756.8"/>
			<point x="40" y="708" type="curve" smooth="yes"/>
			<point x="40" y="0" type="line" smooth="yes"/>
			<point x="40" y="-5.6"/>
			<point x="44.4" y="-10"/>
		</contour>
	</outline>
</glyph>
<glyph name="iiMatra-tamil.001" format="2">
	<advance width="55"/>
	<anchor x="-50" y="500" name="_imatra"/>
	<anchor x="-69" y="800" name="top"/>
	<outline>
		<contour>
			<point x="-68" y="490" type="curve" smooth="yes"/>
			<point x="-50" y="490" type="line" smooth="yes"/>
			<point x="-44.4" y="490"/>
			<point x="-40" y="494.4"/>
			<point x="-40" y="500" type="curve" smooth="yes"/>
			<point x="-40" y="505.6"/>
			<point x="-44.4" y="510"/>
			<point x="-50" y="510" type="curve" smooth="yes"/>
			<point x="-68" y="510" type="line" smooth="yes"/>
			<point x="-116.8" y="510"/>
			<point x="-150" y="543.2"/>
			<point x="-150" y="592" type="curve" smooth="yes"/>
			<point x="-150" y="708" type="line" smooth="yes"/>
			<point x="-150" y="756.8"/>
			<point x="-116.8" y="790"/>
			<point x="-68" y="790" type="curve" smooth="yes"/>
			<point x="-62" y="790" type="line" smooth="yes"/>
			<point x="-36" y="790"/>
			<point x="-14.4" y="780.4"/>
			<point x="0" y="764.4" type="curve"/>
			<point x="-6" y="766.8"/>
			<point x="-12.8" y="768"/>
			<point x="-20" y="768" type="curve" smooth="yes"/>
			<point x="-52.4" y="768"/>
			<point x="-80" y="740.4"/>
			<point x="-80" y="708" type="curve" smooth="yes"/>
			<point x="-80" y="675.6"/>
			<point x="-52.4" y="648"/>
			<point x="-20" y="648" type="curve" smooth="yes"/>
			<point x="12.4" y="648"/>
			<point x="40" y="675.6"/>
			<point x="40" y="708" type="curve" smooth="yes"/>
			<point x="40" y="766.4"/>
			<point x="-3.6" y="810"/>
			<point x="-62" y="810" type="curve" smooth="yes"/>
			<point x="-68" y="810" type="line" smooth="yes"/>
			<point x="-126.4" y="810"/>
			<point x="-170" y="766.4"/>
			<point x="-170" y="708" type="curve" smooth="yes"/>
			<point x="-170" y="592" type="line" smooth="yes"/>
			<point x="-170" y="533.6"/>
			<point x="-126.4" y="490"/>
		</contour>
		<contour>
			<point x="-20" y="668" type="curve" smooth="yes"/>
			<point x="-42.8" y="668"/>
			<point x="-60" y="685.2"/>
			<point x="-60" y="708" type="curve" smooth="yes"/>
			<point x="-60" y="730.8"/>
			<point x="-42.8" y="748"/>
			<point x="-20" y="748" type="curve" smooth="yes"/>
			<point x="2.8" y="748"/>
			<point x="20" y="730.8"/>
			<point x="20" y="708" type="curve" smooth="yes"/>
			<point x="20" y="685.2"/>
			<point x="2.8" y="668"/>
		</contour>
	</outline>
</glyph>
<glyph name="kaKeezhPaadi.001" format="2">
	<advance width="200"/>
	<outline>
		<contour>
			<point x="100" y="-10" type="curve" smooth="yes"/>
			<point x="163.6" y="-10"/>
			<point x="210" y="37.6"/>
			<point x="210" y="102" type="curve" smooth="yes"/>
			<point x="210" y="248" type="line" smooth="yes"/>
			<point x="210" y="312.4"/>
			<point x="162.4" y="360"/>
			<point x="108" y="360" type="curve" smooth="yes"/>
			<point x="51.2" y="360" type="line" smooth="yes"/>
			<point x="45.6" y="360"/>
			<point x="41.2" y="355.6"/>
			<point x="41.2" y="350" type="curve" smooth="yes"/>
			<point x="41.2" y="344.4"/>
			<point x="45.6" y="340"/>
			<point x="51.2" y="340" type="curve" smooth="yes"/>
			<point x="108" y="340" type="line" smooth="yes"/>
			<point x="152.8" y="340"/>
			<point x="190" y="302.8"/>
			<point x="190" y="248" type="curve" smooth="yes"/>
			<point x="190" y="102" type="line" smooth="yes"/>
			<point x="190" y="47.2"/>
			<point x="153.6" y="10"/>
			<point x="100" y="10" type="curve" smooth="yes"/>
			<point x="46.4" y="10"/>
			<point x="10" y="47.2"/>
			<point x="10" y="101.2" type="curve" smooth="yes"/>
			<point x="10" y="106.4"/>
			<point x="5.6" y="111.2"/>
			<point x="0" y="111.2" type="curve" smooth="yes"/>
			<point x="-5.6" y="111.2"/>
			<point x="-10" y="106.4"/>
			<point x="-10" y="101.2" type="curve" smooth="yes"/>
			<point x="-10" y="37.6"/>
			<point x="36.4" y="-10"/>
		</contour>
	</outline>
</glyph>
<glyph name="kaKeezhPaadi" format="2">
	<advance width="179"/>
	<outline>
		<contour>
			<point x="69.2" y="-10" type="curve" smooth="yes"/>
			<point x="161.2" y="-10"/>
			<point x="189.2" y="74.4"/>
			<point x="189.2" y="175.2" type="curve" smooth="yes"/>
			<point x="189.2" y="275.6"/>
			<point x="160.8" y="360"/>
			<point x="59.2" y="360" type="curve" smooth="yes"/>
			<point x="19.2" y="360" type="line" smooth="yes"/>
			<point x="13.6" y="360"/>
			<point x="9.2" y="355.6"/>
			<point x="9.2" y="350" type="curve" smooth="yes"/>
			<point x="9.2" y="344.4"/>
			<point x="13.6" y="340"/>
			<point x="19.2" y="340" type="curve" smooth="yes"/>
			<point x="59.2" y="340" type="line" smooth="yes"/>
			<point x="146" y="340"/>
			<point x="169.2" y="271.2"/>
			<point x="169.2" y="175.2" type="curve" smooth="yes"/>
			<point x="169.2" y="78.8"/>
			<point x="146" y="10"/>
			<point x="69.2" y="10" type="curve" smooth="yes"/>
			<point x="45.6" y="10"/>
			<point x="25.2" y="16.4"/>
			<point x="5.2" y="27.6" type="curve"/>
			<point x="4.8" y="27.6" type="line"/>
			<point x="3.6" y="28.4"/>
			<point x="2" y="29.2"/>
			<point x="0" y="29.2" type="curve" smooth="yes"/>
			<point x="-5.6" y="29.2"/>
			<point x="-10" y="24.4"/>
			<point x="-10" y="19.2" type="curve" smooth="yes"/>
			<point x="-10" y="15.2"/>
			<point x="-8" y="12"/>
			<point x="-4.8" y="10.4" type="curve" smooth="yes"/>
			<point x="17.2" y="-2.4"/>
			<point x="42.4" y="-10"/>
		</contour>
	</outline>
</glyph>
<glyph name="ka_uMatra-tamil" format="2">
	<advance width="530"/>
	<anchor x="460" y="600" name="imatra"/>
	<anchor x="265" y="600" name="top"/>
	<outline>
		<contour>
			<point x="203" y="-150" type="curve" smooth="yes"/>
			<point x="327" y="-150" type="line" smooth="yes"/>
			<point x="420" y="-150"/>
			<point x="490" y="-80"/>
			<point x="490" y="13" type="curve" smooth="yes"/>
			<point x="490" y="191" type="line" smooth="yes"/>
			<point x="490" y="277"/>
			<point x="491" y="357"/>
			<point x="330" y="362" type="curve"/>
			<point x="330" y="590" type="line"/>
			<point x="430" y="590" type="line" smooth="yes"/>
			<point x="436" y="590"/>
			<point x="440" y="594"/>
			<point x="440" y="600" type="curve" smooth="yes"/>
			<point x="440" y="606"/>
			<point x="436" y="610"/>
			<point x="430" y="610" type="curve" smooth="yes"/>
			<point x="200" y="610" type="line" smooth="yes"/>
			<point x="194" y="610"/>
			<point x="190" y="607"/>
			<point x="190" y="600" type="curve" smooth="yes"/>
			<point x="190" y="357" type="line"/>
			<point x="145" y="347"/>
			<point x="110" y="303"/>
			<point x="110" y="248" type="curve" smooth="yes"/>
			<point x="110" y="102" type="line" smooth="yes"/>
			<point x="110" y="38"/>
			<point x="157" y="-10"/>
			<point x="220" y="-10" type="curve" smooth="yes"/>
			<point x="283" y="-10"/>
			<point x="330" y="38"/>
			<point x="330" y="102" type="curve" smooth="yes"/>
			<point x="330" y="342" type="line"/>
			<point x="471" y="338"/>
			<point x="470" y="276"/>
			<point x="470" y="191" type="curve" smooth="yes"/>
			<point x="470" y="13" type="line" smooth="yes"/>
			<point x="470" y="-71"/>
			<point x="411" y="-130"/>
			<point x="327" y="-130" type="curve" smooth="yes"/>
			<point x="203" y="-130" type="line" smooth="yes"/>
			<point x="119" y="-130"/>
			<point x="60" y="-71"/>
			<point x="60" y="13" type="curve" smooth="yes"/>
			<point x="60" y="627" type="line" smooth="yes"/>
			<point x="60" y="711"/>
			<point x="119" y="770"/>
			<point x="203" y="770" type="curve" smooth="yes"/>
			<point x="327" y="770" type="line" smooth="yes"/>
			<point x="411" y="770"/>
			<point x="470" y="711"/>
			<point x="470" y="627" type="curve" smooth="yes"/>
			<point x="470" y="600" type="line" smooth="yes"/>
			<point x="470" y="594"/>
			<point x="474" y="590"/>
			<point x="480" y="590" type="curve" smooth="yes"/>
			<point x="486" y="590"/>
			<point x="490" y="594"/>
			<point x="490" y="600" type="curve" smooth="yes"/>
			<point x="490" y="627" type="line" smooth="yes"/>
			<point x="490" y="720"/>
			<point x="420" y="790"/>
			<point x="327" y="790" type="curve" smooth="yes"/>
			<point x="203" y="790" type="line" smooth="yes"/>
			<point x="110" y="790"/>
			<point x="40" y="720"/>
			<point x="40" y="627" type="curve" smooth="yes"/>
			<point x="40" y="13" type="line" smooth="yes"/>
			<point x="40" y="-80"/>
			<point x="110" y="-150"/>
		</contour>
		<contour>
			<point x="220" y="10" type="curve" smooth="yes"/>
			<point x="166" y="10"/>
			<point x="130" y="47"/>
			<point x="130" y="102" type="curve" smooth="yes"/>
			<point x="130" y="248" type="line" smooth="yes"/>
			<point x="130" y="303"/>
			<point x="167" y="340"/>
			<point x="212" y="340" type="curve" smooth="yes"/>
			<point x="310" y="340" type="line"/>
			<point x="310" y="102" type="line" smooth="yes"/>
			<point x="310" y="47"/>
			<point x="274" y="10"/>
		</contour>
		<contour>
			<point x="210" y="360" type="line"/>
			<point x="210" y="590" type="line"/>
			<point x="310" y="590" type="line"/>
			<point x="310" y="360" type="line"/>
		</contour>
	</outline>
</glyph>
<glyph name="ka_uuMatra-tamil" format="2">
	<advance width="750"/>
	<anchor x="680" y="600" name="imatra"/>
	<anchor x="375" y="600" name="top"/>
	<outline>
		<contour>
			<point x="150" y="-10" type="curve" smooth="yes"/>
			<point x="214" y="-10"/>
			<point x="260" y="38"/>
			<point x="260" y="102" type="curve" smooth="yes"/>
			<point x="260" y="340" type="line"/>
			<point x="335" y="340" type="line"/>
			<point x="316" y="323"/>
			<point x="304" y="298"/>
			<point x="304" y="268" type="curve" smooth="yes"/>
			<point x="304" y="242" type="line" smooth="yes"/>
			<point x="304" y="190"/>
			<point x="340" y="150"/>
			<point x="389" y="150" type="curve" smooth="yes"/>
			<point x="439" y="150"/>
			<point x="474" y="190"/>
			<point x="474" y="242" type="curve" smooth="yes"/>
			<point x="474" y="268" type="line" smooth="yes"/>
			<point x="474" y="298"/>
			<point x="462" y="323"/>
			<point x="443" y="340" type="curve"/>
			<point x="478" y="340" type="line" smooth="yes"/>
			<point x="545" y="340"/>
			<point x="590" y="294"/>
			<point x="590" y="227" type="curve" smooth="yes"/>
			<point x="590" y="222" type="line" smooth="yes"/>
			<point x="590" y="155"/>
			<point x="545" y="110"/>
			<point x="478" y="110" type="curve" smooth="yes"/>
			<point x="380" y="110" type="line" smooth="yes"/>
			<point x="346" y="110"/>
			<point x="319" y="84"/>
			<point x="319" y="50" type="curve" smooth="yes"/>
			<point x="319" y="16"/>
			<point x="346" y="-10"/>
			<point x="380" y="-10" type="curve" smooth="yes"/>
			<point x="700" y="-10" type="line" smooth="yes"/>
			<point x="706" y="-10"/>
			<point x="710" y="-6"/>
			<point x="710" y="0" type="curve" smooth="yes"/>
			<point x="710" y="6"/>
			<point x="706" y="10"/>
			<point x="700" y="10" type="curve" smooth="yes"/>
			<point x="380" y="10" type="line" smooth="yes"/>
			<point x="355" y="10"/>
			<point x="339" y="25"/>
			<point x="339" y="50" type="curve" smooth="yes"/>
			<point x="339" y="75"/>
			<point x="355" y="90"/>
			<point x="380" y="90" type="curve" smooth="yes"/>
			<point x="478" y="90" type="line" smooth="yes"/>
			<point x="554" y="90"/>
			<point x="610" y="146"/>
			<point x="610" y="222" type="curve" smooth="yes"/>
			<point x="610" y="227" type="line" smooth="yes"/>
			<point x="610" y="303"/>
			<point x="554" y="360"/>
			<point x="478" y="360" type="curve" smooth="yes"/>
			<point x="260" y="360" type="line"/>
			<point x="260" y="590" type="line"/>
			<point x="360" y="590" type="line" smooth="yes"/>
			<point x="366" y="590"/>
			<point x="370" y="594"/>
			<point x="370" y="600" type="curve" smooth="yes"/>
			<point x="370" y="606"/>
			<point x="366" y="610"/>
			<point x="360" y="610" type="curve" smooth="yes"/>
			<point x="130" y="610" type="line" smooth="yes"/>
			<point x="124" y="610"/>
			<point x="120" y="606"/>
			<point x="120" y="600" type="curve" smooth="yes"/>
			<point x="120" y="357" type="line"/>
			<point x="76" y="346"/>
			<point x="40" y="304"/>
			<point x="40" y="248" type="curve" smooth="yes"/>
			<point x="40" y="102" type="line" smooth="yes"/>
			<point x="40" y="38"/>
			<point x="86" y="-10"/>
		</contour>
		<contour>
			<point x="150" y="10" type="curve" smooth="yes"/>
			<point x="96" y="10"/>
			<point x="60" y="47"/>
			<point x="60" y="102" type="curve" smooth="yes"/>
			<point x="60" y="248" type="line" smooth="yes"/>
			<point x="60" y="303"/>
			<point x="97" y="340"/>
			<point x="142" y="340" type="curve" smooth="yes"/>
			<point x="240" y="340" type="line"/>
			<point x="240" y="102" type="line" smooth="yes"/>
			<point x="240" y="47"/>
			<point x="204" y="10"/>
		</contour>
		<contour>
			<point x="389" y="170" type="curve" smooth="yes"/>
			<point x="350" y="170"/>
			<point x="324" y="199"/>
			<point x="324" y="242" type="curve" smooth="yes"/>
			<point x="324" y="268" type="line" smooth="yes"/>
			<point x="324" y="311"/>
			<point x="350" y="340"/>
			<point x="389" y="340" type="curve" smooth="yes"/>
			<point x="428" y="340"/>
			<point x="454" y="311"/>
			<point x="454" y="268" type="curve" smooth="yes"/>
			<point x="454" y="242" type="line" smooth="yes"/>
			<point x="454" y="199"/>
			<point x="428" y="170"/>
		</contour>
		<contour>
			<point x="140" y="360" type="line"/>
			<point x="140" y="590" type="line"/>
			<point x="240" y="590" type="line"/>
			<point x="240" y="360" type="line"/>
		</contour>
	</outline>
</glyph>
<glyph name="kokkiVattam" format="2">
	<advance width="100"/>
	<outline>
		<contour>
			<point x="50" y="-10" type="curve" smooth="yes"/>
			<point x="82.4" y="-10"/>
			<point x="110" y="17.6"/>
			<point x="110" y="50" type="curve" smooth="yes"/>
			<point x="110" y="82.4"/>
			<point x="82.4" y="110"/>
			<point x="50" y="110" type="curve" smooth="yes"/>
			<point x="17.6" y="110"/>
			<point x="-10" y="82.4"/>
			<point x="-10" y="50" type="curve" smooth="yes"/>
			<point x="-10" y="17.6"/>
			<point x="17.6" y="-10"/>
		</contour>
		<contour>
			<point x="50" y="10" type="curve" smooth="yes"/>
			<point x="27.2" y="10"/>
			<point x="10" y="27.2"/>
			<point x="10" y="50" type="curve" smooth="yes"/>
			<point x="10" y="72.8"/>
			<point x="27.2" y="90"/>
			<point x="50" y="90" type="curve" smooth="yes"/>
			<point x="72.8" y="90"/>
			<point x="90" y="72.8"/>
			<point x="90" y="50" type="curve" smooth="yes"/>
			<point x="90" y="27.2"/>
			<point x="72.8" y="10"/>
		</contour>
	</outline>
</glyph>
<glyph name="la_iiMatra-tamil" format="2">
	<advance width="597"/>
	<anchor x="527" y="600" name="imatra"/>
	<anchor x="299" y="600" name="top"/>
	<outline>
		<contour>
			<point x="170" y="-10" type="line"/>
			<point x="172" y="-10" type="line" smooth="yes"/>
			<point x="221" y="-9"/>
			<point x="255" y="31"/>
			<point x="255" y="82" type="curve" smooth="yes"/>
			<point x="255" y="118" type="line" smooth="yes"/>
			<point x="255" y="170"/>
			<point x="219" y="210"/>
			<point x="170" y="210" type="curve" smooth="yes"/>
			<point x="121" y="210"/>
			<point x="85" y="170"/>
			<point x="85" y="118" type="curve" smooth="yes"/>
			<point x="85" y="82" type="line" smooth="yes"/>
			<point x="85" y="66"/>
			<point x="88" y="50"/>
			<point x="95" y="38" type="curve"/>
			<point x="73" y="57"/>
			<point x="60" y="86"/>
			<point x="60" y="122" type="curve" smooth="yes"/>
			<point x="60" y="478" type="line" smooth="yes"/>
			<point x="60" y="545"/>
			<point x="105" y="590"/>
			<point x="172" y="590" type="curve" smooth="yes"/>
			<point x="196" y="590" type="line" smooth="yes"/>
			<point x="260" y="590"/>
			<point x="307" y="548"/>
			<point x="307" y="473" type="curve" smooth="yes"/>
			<point x="307" y="76" type="line" smooth="yes"/>
			<point x="307" y="27"/>
			<point x="344" y="-10"/>
			<point x="392" y="-10" type="curve" smooth="yes"/>
			<point x="440" y="-10"/>
			<point x="477" y="27"/>
			<point x="477" y="76" type="curve" smooth="yes"/>
			<point x="477" y="523" type="line" smooth="yes"/>
			<point x="477" y="572"/>
			<point x="440" y="610"/>
			<point x="391" y="610" type="curve" smooth="yes"/>
			<point x="386" y="610"/>
			<point x="381" y="606"/>
			<point x="381" y="600" type="curve" smooth="yes"/>
			<point x="381" y="594"/>
			<point x="386" y="590"/>
			<point x="391" y="590" type="curve" smooth="yes"/>
			<point x="431" y="590"/>
			<point x="457" y="563"/>
			<point x="457" y="523" type="curve" smooth="yes"/>
			<point x="457" y="510" type="line"/>
			<point x="439" y="510" type="line" smooth="yes"/>
			<point x="390" y="510"/>
			<point x="357" y="543"/>
			<point x="357" y="592" type="curve" smooth="yes"/>
			<point x="357" y="708" type="line" smooth="yes"/>
			<point x="357" y="757"/>
			<point x="390" y="790"/>
			<point x="439" y="790" type="curve" smooth="yes"/>
			<point x="455" y="790" type="line" smooth="yes"/>
			<point x="481" y="790"/>
			<point x="503" y="780"/>
			<point x="517" y="764" type="curve"/>
			<point x="511" y="767"/>
			<point x="504" y="768"/>
			<point x="497" y="768" type="curve" smooth="yes"/>
			<point x="465" y="768"/>
			<point x="437" y="740"/>
			<point x="437" y="708" type="curve" smooth="yes"/>
			<point x="437" y="676"/>
			<point x="465" y="648"/>
			<point x="497" y="648" type="curve" smooth="yes"/>
			<point x="529" y="648"/>
			<point x="557" y="676"/>
			<point x="557" y="708" type="curve" smooth="yes"/>
			<point x="557" y="766"/>
			<point x="513" y="810"/>
			<point x="455" y="810" type="curve" smooth="yes"/>
			<point x="439" y="810" type="line" smooth="yes"/>
			<point x="381" y="810"/>
			<point x="337" y="766"/>
			<point x="337" y="708" type="curve" smooth="yes"/>
			<point x="337" y="592" type="line" smooth="yes"/>
			<point x="337" y="534"/>
			<point x="381" y="490"/>
			<point x="439" y="490" type="curve" smooth="yes"/>
			<point x="457" y="490" type="line"/>
			<point x="457" y="76" type="line" smooth="yes"/>
			<point x="457" y="36"/>
			<point x="431" y="10"/>
			<point x="392" y="10" type="curve" smooth="yes"/>
			<point x="353" y="10"/>
			<point x="327" y="36"/>
			<point x="327" y="76" type="curve" smooth="yes"/>
			<point x="327" y="473" type="line" smooth="yes"/>
			<point x="327" y="558"/>
			<point x="269" y="610"/>
			<point x="196" y="610" type="curve" smooth="yes"/>
			<point x="172" y="610" type="line" smooth="yes"/>
			<point x="96" y="610"/>
			<point x="40" y="554"/>
			<point x="40" y="478" type="curve" smooth="yes"/>
			<point x="40" y="122" type="line" smooth="yes"/>
			<point x="40" y="48"/>
			<point x="92" y="-6"/>
			<point x="164" y="-10" type="curve" smooth="yes"/>
		</contour>
		<contour>
			<point x="164" y="10" type="line" smooth="yes"/>
			<point x="129" y="13"/>
			<point x="105" y="41"/>
			<point x="105" y="82" type="curve" smooth="yes"/>
			<point x="105" y="118" type="line" smooth="yes"/>
			<point x="105" y="161"/>
			<point x="132" y="190"/>
			<point x="170" y="190" type="curve" smooth="yes"/>
			<point x="208" y="190"/>
			<point x="235" y="161"/>
			<point x="235" y="118" type="curve" smooth="yes"/>
			<point x="235" y="82" type="line" smooth="yes"/>
			<point x="235" y="39"/>
			<point x="210" y="10"/>
			<point x="171" y="10" type="curve" smooth="yes"/>
		</contour>
		<contour>
			<point x="497" y="668" type="curve" smooth="yes"/>
			<point x="474" y="668"/>
			<point x="457" y="685"/>
			<point x="457" y="708" type="curve" smooth="yes"/>
			<point x="457" y="731"/>
			<point x="474" y="748"/>
			<point x="497" y="748" type="curve" smooth="yes"/>
			<point x="520" y="748"/>
			<point x="537" y="731"/>
			<point x="537" y="708" type="curve" smooth="yes"/>
			<point x="537" y="685"/>
			<point x="520" y="668"/>
		</contour>
	</outline>
</glyph>
<glyph name="la_uMatra-tamil" format="2">
	<advance width="618"/>
	<anchor x="548" y="600" name="imatra"/>
	<anchor x="309" y="600" name="top"/>
	<outline>
		<contour>
			<point x="152" y="-311" type="curve" smooth="yes"/>
			<point x="240" y="-311" type="line" smooth="yes"/>
			<point x="333" y="-311"/>
			<point x="403" y="-241"/>
			<point x="403" y="-148" type="curve" smooth="yes"/>
			<point x="403" y="-70" type="line"/>
			<point x="568" y="-70" type="line" smooth="yes"/>
			<point x="574" y="-70"/>
			<point x="578" y="-66"/>
			<point x="578" y="-60" type="curve" smooth="yes"/>
			<point x="578" y="450" type="line" smooth="yes"/>
			<point x="578" y="456"/>
			<point x="574" y="460"/>
			<point x="568" y="460" type="curve" smooth="yes"/>
			<point x="562" y="460"/>
			<point x="558" y="456"/>
			<point x="558" y="450" type="curve" smooth="yes"/>
			<point x="558" y="-50" type="line"/>
			<point x="403" y="-50" type="line"/>
			<point x="403" y="-10" type="line"/>
			<point x="446" y="-5"/>
			<point x="478" y="30"/>
			<point x="478" y="76" type="curve" smooth="yes"/>
			<point x="478" y="523" type="line" smooth="yes"/>
			<point x="478" y="572"/>
			<point x="442" y="610"/>
			<point x="392" y="610" type="curve" smooth="yes"/>
			<point x="366" y="610" type="line" smooth="yes"/>
			<point x="360" y="610"/>
			<point x="356" y="606"/>
			<point x="356" y="600" type="curve" smooth="yes"/>
			<point x="356" y="594"/>
			<point x="360" y="590"/>
			<point x="366" y="590" type="curve" smooth="yes"/>
			<point x="392" y="590" type="line" smooth="yes"/>
			<point x="432" y="590"/>
			<point x="458" y="563"/>
			<point x="458" y="523" type="curve" smooth="yes"/>
			<point x="458" y="76" type="line" smooth="yes"/>
			<point x="458" y="36"/>
			<point x="432" y="10"/>
			<point x="393" y="10" type="curve" smooth="yes"/>
			<point x="354" y="10"/>
			<point x="328" y="36"/>
			<point x="328" y="76" type="curve" smooth="yes"/>
			<point x="328" y="473" type="line" smooth="yes"/>
			<point x="328" y="558"/>
			<point x="270" y="610"/>
			<point x="197" y="610" type="curve" smooth="yes"/>
			<point x="173" y="610" type="line" smooth="yes"/>
			<point x="97" y="610"/>
			<point x="41" y="554"/>
			<point x="41" y="478" type="curve" smooth="yes"/>
			<point x="41" y="122" type="line" smooth="yes"/>
			<point x="41" y="48"/>
			<point x="94" y="-6"/>
			<point x="165" y="-10" type="curve" smooth="yes"/>
			<point x="171" y="-10" type="line"/>
			<point x="173" y="-10" type="line" smooth="yes"/>
			<point x="222" y="-9"/>
			<point x="256" y="31"/>
			<point x="256" y="82" type="curve" smooth="yes"/>
			<point x="256" y="118" type="line" smooth="yes"/>
			<point x="256" y="170"/>
			<point x="220" y="210"/>
			<point x="171" y="210" type="curve" smooth="yes"/>
			<point x="122" y="210"/>
			<point x="86" y="170"/>
			<point x="86" y="118" type="curve" smooth="yes"/>
			<point x="86" y="82" type="line" smooth="yes"/>
			<point x="86" y="66"/>
			<point x="90" y="50"/>
			<point x="96" y="38" type="curve"/>
			<point x="74" y="57"/>
			<point x="61" y="86"/>
			<point x="61" y="122" type="curve" smooth="yes"/>
			<point x="61" y="478" type="line" smooth="yes"/>
			<point x="61" y="545"/>
			<point x="106" y="590"/>
			<point x="173" y="590" type="curve" smooth="yes"/>
			<point x="197" y="590" type="line" smooth="yes"/>
			<point x="261" y="590"/>
			<point x="308" y="548"/>
			<point x="308" y="473" type="curve" smooth="yes"/>
			<point x="308" y="76" type="line" smooth="yes"/>
			<point x="308" y="30"/>
			<point x="340" y="-5"/>
			<point x="383" y="-10" type="curve"/>
			<point x="383" y="-50" type="line"/>
			<point x="152" y="-50" type="line" smooth="yes"/>
			<point x="88" y="-50"/>
			<point x="40" y="-98"/>
			<point x="40" y="-162" type="curve" smooth="yes"/>
			<point x="40" y="-199" type="line" smooth="yes"/>
			<point x="40" y="-263"/>
			<point x="88" y="-311"/>
		</contour>
		<contour>
			<point x="152" y="-291" type="line" smooth="yes"/>
			<point x="97" y="-291"/>
			<point x="60" y="-254"/>
			<point x="60" y="-199" type="curve" smooth="yes"/>
			<point x="60" y="-162" type="line" smooth="yes"/>
			<point x="60" y="-107"/>
			<point x="97" y="-70"/>
			<point x="152" y="-70" type="curve" smooth="yes"/>
			<point x="383" y="-70" type="line"/>
			<point x="383" y="-148" type="line" smooth="yes"/>
			<point x="383" y="-232"/>
			<point x="324" y="-291"/>
			<point x="240" y="-291" type="curve" smooth="yes"/>
		</contour>
		<contour>
			<point x="166" y="10" type="line" smooth="yes"/>
			<point x="130" y="13"/>
			<point x="106" y="41"/>
			<point x="106" y="82" type="curve" smooth="yes"/>
			<point x="106" y="118" type="line" smooth="yes"/>
			<point x="106" y="161"/>
			<point x="132" y="190"/>
			<point x="171" y="190" type="curve" smooth="yes"/>
			<point x="210" y="190"/>
			<point x="236" y="161"/>
			<point x="236" y="118" type="curve" smooth="yes"/>
			<point x="236" y="82" type="line" smooth="yes"/>
			<point x="236" y="39"/>
			<point x="211" y="10"/>
			<point x="172" y="10" type="curve" smooth="yes"/>
		</contour>
	</outline>
</glyph>
<glyph name="lla_uMatra-tamil" format="2">
	<advance width="827"/>
	<anchor x="757" y="600" name="imatra"/>
	<anchor x="414" y="600" name="top"/>
	<outline>
		<contour>
			<point x="203" y="-150" type="curve" smooth="yes"/>
			<point x="619" y="-150" type="line" smooth="yes"/>
			<point x="754" y="-150"/>
			<point x="787" y="-50"/>
			<point x="787" y="37" type="curve" smooth="yes"/>
			<point x="787" y="194"/>
			<point x="787" y="257"/>
			<point x="678" y="257" type="curve" smooth="yes"/>
			<point x="644" y="257"/>
			<point x="621" y="245"/>
			<point x="607" y="227" type="curve"/>
			<point x="607" y="590" type="line"/>
			<point x="697" y="590" type="line" smooth="yes"/>
			<point x="702" y="590"/>
			<point x="707" y="594"/>
			<point x="707" y="600" type="curve" smooth="yes"/>
			<point x="707" y="606"/>
			<point x="702" y="610"/>
			<point x="697" y="610" type="curve" smooth="yes"/>
			<point x="417" y="610" type="line" smooth="yes"/>
			<point x="411" y="610"/>
			<point x="407" y="606"/>
			<point x="407" y="600" type="curve" smooth="yes"/>
			<point x="407" y="550" type="line"/>
			<point x="384" y="588"/>
			<point x="343" y="610"/>
			<point x="296" y="610" type="curve" smooth="yes"/>
			<point x="272" y="610" type="line" smooth="yes"/>
			<point x="196" y="610"/>
			<point x="140" y="554"/>
			<point x="140" y="478" type="curve" smooth="yes"/>
			<point x="140" y="122" type="line" smooth="yes"/>
			<point x="140" y="48"/>
			<point x="192" y="-6"/>
			<point x="264" y="-10" type="curve" smooth="yes"/>
			<point x="270" y="-10" type="line"/>
			<point x="272" y="-10" type="line" smooth="yes"/>
			<point x="321" y="-9"/>
			<point x="355" y="31"/>
			<point x="355" y="82" type="curve" smooth="yes"/>
			<point x="355" y="118" type="line" smooth="yes"/>
			<point x="355" y="170"/>
			<point x="319" y="210"/>
			<point x="270" y="210" type="curve" smooth="yes"/>
			<point x="221" y="210"/>
			<point x="185" y="170"/>
			<point x="185" y="118" type="curve" smooth="yes"/>
			<point x="185" y="82" type="line" smooth="yes"/>
			<point x="185" y="66"/>
			<point x="188" y="50"/>
			<point x="195" y="38" type="curve"/>
			<point x="173" y="57"/>
			<point x="160" y="86"/>
			<point x="160" y="122" type="curve" smooth="yes"/>
			<point x="160" y="478" type="line" smooth="yes"/>
			<point x="160" y="545"/>
			<point x="205" y="590"/>
			<point x="272" y="590" type="curve" smooth="yes"/>
			<point x="296" y="590" type="line" smooth="yes"/>
			<point x="360" y="590"/>
			<point x="407" y="548"/>
			<point x="407" y="473" type="curve" smooth="yes"/>
			<point x="407" y="200" type="line" smooth="yes"/>
			<point x="407" y="194"/>
			<point x="412" y="190"/>
			<point x="417" y="190" type="curve" smooth="yes"/>
			<point x="422" y="190"/>
			<point x="427" y="194"/>
			<point x="427" y="200" type="curve" smooth="yes"/>
			<point x="427" y="590" type="line"/>
			<point x="587" y="590" type="line"/>
			<point x="587" y="0" type="line" smooth="yes"/>
			<point x="587" y="-6"/>
			<point x="592" y="-10"/>
			<point x="597" y="-10" type="curve" smooth="yes"/>
			<point x="602" y="-10"/>
			<point x="607" y="-6"/>
			<point x="607" y="0" type="curve" smooth="yes"/>
			<point x="607" y="162" type="line" smooth="yes"/>
			<point x="607" y="204"/>
			<point x="624" y="237"/>
			<point x="678" y="237" type="curve" smooth="yes"/>
			<point x="767" y="237"/>
			<point x="767" y="194"/>
			<point x="767" y="37" type="curve" smooth="yes"/>
			<point x="767" y="-45"/>
			<point x="739" y="-130"/>
			<point x="619" y="-130" type="curve" smooth="yes"/>
			<point x="203" y="-130" type="line" smooth="yes"/>
			<point x="119" y="-130"/>
			<point x="60" y="-71"/>
			<point x="60" y="13" type="curve" smooth="yes"/>
			<point x="60" y="247" type="line" smooth="yes"/>
			<point x="60" y="252"/>
			<point x="56" y="257"/>
			<point x="50" y="257" type="curve" smooth="yes"/>
			<point x="44" y="257"/>
			<point x="40" y="252"/>
			<point x="40" y="247" type="curve" smooth="yes"/>
			<point x="40" y="13" type="line" smooth="yes"/>
			<point x="40" y="-80"/>
			<point x="110" y="-150"/>
		</contour>
		<contour>
			<point x="264" y="10" type="line" smooth="yes"/>
			<point x="229" y="13"/>
			<point x="205" y="41"/>
			<point x="205" y="82" type="curve" smooth="yes"/>
			<point x="205" y="118" type="line" smooth="yes"/>
			<point x="205" y="161"/>
			<point x="232" y="190"/>
			<point x="270" y="190" type="curve" smooth="yes"/>
			<point x="308" y="190"/>
			<point x="335" y="161"/>
			<point x="335" y="118" type="curve" smooth="yes"/>
			<point x="335" y="82" type="line" smooth="yes"/>
			<point x="335" y="39"/>
			<point x="310" y="10"/>
			<point x="271" y="10" type="curve" smooth="yes"/>
		</contour>
	</outline>
</glyph>
